# Blender 5.0.1
# www.blender.org
mtllib book3.mtl
o books3
v 3.103238 0.684853 0.195843
v 3.104771 0.912550 0.195843
v 3.153792 0.686059 0.195843
v 3.142194 0.913443 0.195843
v 3.110546 0.685027 0.451547
v 3.103238 0.684853 0.414584
v 3.103716 0.912524 0.402207
v 3.107563 0.912616 0.421666
v 3.153792 0.686059 0.414584
v 3.146484 0.685885 0.451547
v 3.138608 0.913357 0.421666
v 3.142455 0.913449 0.402207
v 3.097809 0.912383 0.195843
v 3.148362 0.913590 0.195843
v 3.105116 0.912558 0.451547
v 3.097809 0.912383 0.414584
v 3.148362 0.913590 0.414584
v 3.141055 0.913415 0.451547
v 3.147688 0.685914 0.195843
v 3.110098 0.685017 0.195843
v 3.106583 0.897455 0.195843
v 3.141297 0.898284 0.195843
v 3.107924 0.897487 0.421666
v 3.104077 0.897396 0.402207
v 3.142816 0.898320 0.402207
v 3.138969 0.898228 0.421666
v 2.813855 0.680430 0.152869
v 2.822855 0.980430 0.152869
v 2.879196 0.680430 0.152869
v 2.871224 0.980430 0.152869
v 2.823300 0.680430 0.408573
v 2.813855 0.680430 0.371610
v 2.821491 0.980430 0.359233
v 2.826463 0.980430 0.378692
v 2.879196 0.680430 0.371610
v 2.869751 0.680430 0.408573
v 2.866588 0.980430 0.378692
v 2.871560 0.980430 0.359233
v 2.813855 0.980430 0.152869
v 2.879196 0.980430 0.152869
v 2.823300 0.980430 0.408573
v 2.813855 0.980430 0.371610
v 2.879196 0.980430 0.371610
v 2.869751 0.980430 0.408573
v 2.871306 0.680430 0.152869
v 2.822721 0.680430 0.152869
v 2.824729 0.960483 0.152869
v 2.869598 0.960483 0.152869
v 2.826463 0.960483 0.378692
v 2.821491 0.960483 0.359233
v 2.871560 0.960483 0.359233
v 2.866588 0.960483 0.378692
v 2.879637 0.682282 0.152869
v 2.888636 0.942991 0.152869
v 2.944978 0.682282 0.152869
v 2.937005 0.942991 0.152869
v 2.889082 0.682282 0.408573
v 2.879637 0.682282 0.371610
v 2.887272 0.942991 0.359233
v 2.892245 0.942991 0.378692
v 2.944978 0.682282 0.371610
v 2.935533 0.682282 0.408573
v 2.932370 0.942991 0.378692
v 2.937342 0.942991 0.359233
v 2.879637 0.942991 0.152869
v 2.944978 0.942991 0.152869
v 2.889082 0.942991 0.408573
v 2.879637 0.942991 0.371610
v 2.944978 0.942991 0.371610
v 2.935532 0.942991 0.408573
v 2.937088 0.682282 0.152869
v 2.888503 0.682282 0.152869
v 2.890511 0.925656 0.152869
v 2.935380 0.925656 0.152869
v 2.892245 0.925656 0.378692
v 2.887272 0.925656 0.359233
v 2.937342 0.925656 0.359233
v 2.932370 0.925656 0.378692
v 2.957908 0.682818 0.195843
v 2.961091 0.955506 0.195843
v 3.028220 0.684496 0.195843
v 3.013139 0.956748 0.195843
v 2.968072 0.683061 0.451547
v 2.957908 0.682818 0.414584
v 2.959623 0.955471 0.402207
v 2.964974 0.955599 0.421666
v 3.028220 0.684496 0.414584
v 3.018056 0.684254 0.451547
v 3.008151 0.956629 0.421666
v 3.013502 0.956757 0.402207
v 2.951407 0.955275 0.195843
v 3.021718 0.956953 0.195843
v 2.961570 0.955518 0.451547
v 2.951407 0.955275 0.414584
v 3.021718 0.956953 0.414584
v 3.011554 0.956711 0.451547
v 3.019730 0.684294 0.195843
v 2.967449 0.683046 0.195843
v 2.963540 0.937439 0.195843
v 3.011822 0.938591 0.195843
v 2.965406 0.937483 0.421666
v 2.960055 0.937355 0.402207
v 3.013934 0.938641 0.402207
v 3.008584 0.938513 0.421666
v 3.043104 0.686480 0.152869
v 3.041717 1.036607 0.152869
v 3.093666 0.687687 0.152869
v 3.079146 1.037500 0.152869
v 3.050413 0.686654 0.408573
v 3.043104 0.686480 0.371610
v 3.040661 1.036582 0.359233
v 3.044509 1.036673 0.378692
v 3.093666 0.687687 0.371610
v 3.086357 0.687512 0.408573
v 3.075559 1.037414 0.378692
v 3.079406 1.037506 0.359233
v 3.034753 1.036441 0.152869
v 3.085315 1.037647 0.152869
v 3.042062 1.036615 0.408573
v 3.034753 1.036441 0.371610
v 3.085315 1.037647 0.371610
v 3.078006 1.037473 0.408573
v 3.087561 0.687541 0.152869
v 3.049965 0.686644 0.152869
v 3.043722 1.013372 0.152869
v 3.078443 1.014201 0.152869
v 3.045064 1.013404 0.378692
v 3.041217 1.013312 0.359233
v 3.079962 1.014237 0.359233
v 3.076114 1.014145 0.378692
vn -0.0000 -0.0000 -1.0000
vn -0.9807 -0.0234 0.1940
vn 0.9807 0.0234 0.1940
vn -0.9997 -0.0239 -0.0000
vn -0.0000 -0.0000 1.0000
vn -0.9998 0.0177 0.0043
vn 0.9997 0.0239 -0.0000
vn -0.0239 0.9997 -0.0000
vn 0.9974 0.0717 0.0086
vn 0.9807 0.0234 -0.1940
vn -0.9807 -0.0234 -0.1940
vn -0.9689 -0.0000 0.2476
vn 0.9689 -0.0000 0.2476
vn -1.0000 -0.0000 -0.0000
vn -0.9992 0.0407 0.0056
vn 1.0000 -0.0000 -0.0000
vn -0.0000 1.0000 -0.0000
vn 0.9988 0.0469 0.0111
vn 0.9689 -0.0000 -0.2476
vn -0.9689 -0.0000 -0.2476
vn -0.9989 0.0468 0.0056
vn 0.9985 0.0540 0.0111
vn -0.9639 -0.0230 0.2652
vn 0.9639 0.0230 0.2652
vn -0.9997 0.0244 0.0060
vn 0.9968 0.0794 0.0120
vn 0.9639 0.0230 -0.2652
vn -0.9639 -0.0230 -0.2652
vn -1.0000 0.0032 0.0043
vn 0.9984 0.0550 0.0086
vt 0.757496 0.508997
vt 0.599830 0.508997
vt 0.599830 0.487281
vt 0.757496 0.487602
vt 0.757496 0.676103
vt 0.599829 0.676103
vt 0.599829 0.643872
vt 0.757496 0.643872
vt 0.599829 0.788188
vt 0.757496 0.788188
vt 0.757496 0.820419
vt 0.599829 0.820419
vt 0.861324 0.177447
vt 0.992377 0.157666
vt 0.994298 0.170670
vt 0.867422 0.187724
vt 0.757496 0.955294
vt 0.599829 0.955294
vt 0.872756 0.018424
vt 0.860758 0.030423
vt 0.842334 0.022791
vt 0.865125 0.000000
vt 0.981575 0.030423
vt 0.969577 0.018424
vt 0.977209 0.000000
vt 1.000000 0.022791
vt 0.864049 0.157666
vt 0.842334 0.157666
vt 0.980763 0.157666
vt 1.000000 0.157666
vt 0.994298 0.300622
vt 0.862041 0.284754
vt 0.852127 0.274446
vt 0.856133 0.196912
vt 0.757496 0.974332
vt 0.599829 0.974531
vt 0.992104 0.314447
vt 0.856734 0.294340
vt 0.842334 0.279992
vt 0.846415 0.191877
vt 0.401679 0.027333
vt 0.192947 0.037099
vt 0.188798 0.009355
vt 0.397592 0.000000
vt 0.406732 0.199272
vt 0.197999 0.209037
vt 0.199250 0.171827
vt 0.407982 0.162061
vt 0.190049 0.353607
vt 0.398781 0.343842
vt 0.397530 0.381052
vt 0.188798 0.390818
vt 0.883571 0.876721
vt 0.759171 0.889335
vt 0.757496 0.872370
vt 0.876602 0.864807
vt 0.403834 0.515780
vt 0.195102 0.525546
vt 0.018424 0.725052
vt 0.030423 0.740552
vt 0.022791 0.764352
vt -0.000000 0.734911
vt 0.030423 0.584482
vt 0.018424 0.599981
vt -0.000000 0.590122
vt 0.022791 0.560681
vt 0.157666 0.736300
vt 0.157666 0.764352
vt 0.157666 0.585531
vt 0.157666 0.560681
vt 0.757496 0.709108
vt 0.885619 0.721628
vt 0.895011 0.737134
vt 0.885322 0.850574
vt 0.407471 0.540102
vt 0.198777 0.550123
vt 0.759927 0.690952
vt 0.897734 0.709163
vt 0.910633 0.733928
vt 0.898475 0.858418
vt 0.593526 0.027333
vt 0.412131 0.035819
vt 0.407982 0.008076
vt 0.589439 -0.000000
vt 0.598579 0.199271
vt 0.417184 0.207758
vt 0.418434 0.170547
vt 0.599829 0.162061
vt 0.409233 0.352328
vt 0.590629 0.343841
vt 0.589378 0.381052
vt 0.407982 0.389539
vt 0.313975 0.939479
vt 0.190207 0.951050
vt 0.188798 0.936014
vt 0.308043 0.929045
vt 0.595681 0.515780
vt 0.414286 0.524267
vt 0.896738 0.526581
vt 0.884740 0.511082
vt 0.892371 0.487281
vt 0.915162 0.516722
vt 0.884740 0.667151
vt 0.896738 0.651652
vt 0.915162 0.661511
vt 0.892371 0.690952
vt 0.757496 0.515333
vt 0.757496 0.487281
vt 0.757496 0.666102
vt 0.757496 0.690952
vt 0.188798 0.773223
vt 0.317317 0.785201
vt 0.326728 0.800699
vt 0.316889 0.914834
vt 0.599318 0.540102
vt 0.417961 0.548844
vt 0.190905 0.757170
vt 0.327663 0.774155
vt 0.340213 0.798127
vt 0.328350 0.921487
vt 0.188798 0.030203
vt -0.000000 0.030203
vt -0.000000 0.000000
vt 0.188798 0.000447
vt 0.188798 0.204119
vt 0.000000 0.204119
vt 0.000000 0.165078
vt 0.188798 0.165078
vt 0.000000 0.360009
vt 0.188798 0.360009
vt 0.188798 0.399050
vt 0.000000 0.399050
vt 0.202602 0.568347
vt 0.333295 0.550123
vt 0.335478 0.566260
vt 0.212481 0.579541
vt 0.188798 0.533926
vt 0.000000 0.533926
vt 0.547224 0.591156
vt 0.535226 0.574469
vt 0.542858 0.548844
vt 0.565649 0.580542
vt 0.535226 0.742505
vt 0.547224 0.725818
vt 0.565649 0.736432
vt 0.542858 0.768130
vt 0.407982 0.579047
vt 0.407982 0.548844
vt 0.407982 0.741375
vt 0.407982 0.768130
vt 0.335478 0.740405
vt 0.210784 0.735386
vt 0.201871 0.719965
vt 0.202870 0.595874
vt 0.188798 0.560403
vt 0.000000 0.560681
vt 0.333839 0.757170
vt 0.203711 0.746306
vt 0.188798 0.725645
vt 0.189483 0.591518
vt 0.842334 0.021719
vt 0.599829 0.021719
vt 0.599829 -0.000000
vt 0.842334 0.000321
vt 0.842334 0.188829
vt 0.599829 0.188829
vt 0.599829 0.156595
vt 0.842334 0.156595
vt 0.599829 0.300931
vt 0.842334 0.300931
vt 0.842334 0.333165
vt 0.599829 0.333165
vt 0.019946 0.787222
vt 0.153423 0.764352
vt 0.156522 0.783777
vt 0.030359 0.802570
vt 0.842334 0.468041
vt 0.599829 0.468041
vt 0.547224 0.798558
vt 0.535226 0.786558
vt 0.542858 0.768130
vt 0.565649 0.790925
vt 0.535226 0.907395
vt 0.547224 0.895395
vt 0.565649 0.903028
vt 0.542858 0.925823
vt 0.407982 0.789850
vt 0.407982 0.906582
vt 0.407982 0.925823
vt 0.156522 0.915456
vt 0.024374 0.896435
vt 0.014799 0.886121
vt 0.019290 0.811534
vt 0.842334 0.487081
vt 0.599829 0.487281
vt 0.152776 0.935939
vt 0.015182 0.910671
vt 0.000000 0.895012
vt 0.004406 0.803298
s 0
f 1/1/1 13/2/1 2/3/1 20/4/1
f 5/5/2 15/6/2 16/7/2 6/8/2
f 18/9/3 10/10/3 9/11/3 17/12/3
f 6/8/4 16/7/4 13/2/4 1/1/4
f 10/10/5 18/9/5 15/6/5 5/5/5
f 12/13/6 4/14/6 22/15/6 25/16/6
f 3/17/7 14/18/7 17/12/7 9/11/7
f 8/19/8 7/20/8 16/21/8 15/22/8
f 12/23/8 11/24/8 18/25/8 17/26/8
f 7/20/8 2/27/8 13/28/8 16/21/8
f 11/24/8 8/19/8 15/22/8 18/25/8
f 4/29/8 12/23/8 17/26/8 14/30/8
f 22/15/8 21/31/8 24/32/8 23/33/8 26/34/8 25/16/8
f 19/35/1 4/36/1 14/18/1 3/17/1
f 2/37/9 7/38/9 24/32/9 21/31/9
f 7/38/10 8/39/10 23/33/10 24/32/10
f 8/39/1 11/40/1 26/34/1 23/33/1
f 11/40/11 12/13/11 25/16/11 26/34/11
f 27/41/1 39/42/1 28/43/1 46/44/1
f 31/45/12 41/46/12 42/47/12 32/48/12
f 44/49/13 36/50/13 35/51/13 43/52/13
f 32/48/14 42/47/14 39/42/14 27/41/14
f 36/50/5 44/49/5 41/46/5 31/45/5
f 38/53/15 30/54/15 48/55/15 51/56/15
f 29/57/16 40/58/16 43/52/16 35/51/16
f 34/59/17 33/60/17 42/61/17 41/62/17
f 38/63/17 37/64/17 44/65/17 43/66/17
f 33/60/17 28/67/17 39/68/17 42/61/17
f 37/64/17 34/59/17 41/62/17 44/65/17
f 30/69/17 38/63/17 43/66/17 40/70/17
f 48/55/17 47/71/17 50/72/17 49/73/17 52/74/17 51/56/17
f 45/75/1 30/76/1 40/58/1 29/57/1
f 28/77/18 33/78/18 50/72/18 47/71/18
f 33/78/19 34/79/19 49/73/19 50/72/19
f 34/79/1 37/80/1 52/74/1 49/73/1
f 37/80/20 38/53/20 51/56/20 52/74/20
f 53/81/1 65/82/1 54/83/1 72/84/1
f 57/85/12 67/86/12 68/87/12 58/88/12
f 70/89/13 62/90/13 61/91/13 69/92/13
f 58/88/14 68/87/14 65/82/14 53/81/14
f 62/90/5 70/89/5 67/86/5 57/85/5
f 64/93/21 56/94/21 74/95/21 77/96/21
f 55/97/16 66/98/16 69/92/16 61/91/16
f 60/99/17 59/100/17 68/101/17 67/102/17
f 64/103/17 63/104/17 70/105/17 69/106/17
f 59/100/17 54/107/17 65/108/17 68/101/17
f 63/104/17 60/99/17 67/102/17 70/105/17
f 56/109/17 64/103/17 69/106/17 66/110/17
f 74/95/17 73/111/17 76/112/17 75/113/17 78/114/17 77/96/17
f 71/115/1 56/116/1 66/98/1 55/97/1
f 54/117/22 59/118/22 76/112/22 73/111/22
f 59/118/19 60/119/19 75/113/19 76/112/19
f 60/119/1 63/120/1 78/114/1 75/113/1
f 63/120/20 64/93/20 77/96/20 78/114/20
f 79/121/1 91/122/1 80/123/1 98/124/1
f 83/125/23 93/126/23 94/127/23 84/128/23
f 96/129/24 88/130/24 87/131/24 95/132/24
f 84/128/4 94/127/4 91/122/4 79/121/4
f 88/130/5 96/129/5 93/126/5 83/125/5
f 90/133/25 82/134/25 100/135/25 103/136/25
f 81/137/7 92/138/7 95/132/7 87/131/7
f 86/139/8 85/140/8 94/141/8 93/142/8
f 90/143/8 89/144/8 96/145/8 95/146/8
f 85/140/8 80/147/8 91/148/8 94/141/8
f 89/144/8 86/139/8 93/142/8 96/145/8
f 82/149/8 90/143/8 95/146/8 92/150/8
f 100/135/8 99/151/8 102/152/8 101/153/8 104/154/8 103/136/8
f 97/155/1 82/156/1 92/138/1 81/137/1
f 80/157/26 85/158/26 102/152/26 99/151/26
f 85/158/27 86/159/27 101/153/27 102/152/27
f 86/159/1 89/160/1 104/154/1 101/153/1
f 89/160/28 90/133/28 103/136/28 104/154/28
f 105/161/1 117/162/1 106/163/1 124/164/1
f 109/165/2 119/166/2 120/167/2 110/168/2
f 122/169/3 114/170/3 113/171/3 121/172/3
f 110/168/4 120/167/4 117/162/4 105/161/4
f 114/170/5 122/169/5 119/166/5 109/165/5
f 116/173/29 108/174/29 126/175/29 129/176/29
f 107/177/7 118/178/7 121/172/7 113/171/7
f 112/179/8 111/180/8 120/181/8 119/182/8
f 116/183/8 115/184/8 122/185/8 121/186/8
f 111/180/8 106/187/8 117/150/8 120/181/8
f 115/184/8 112/179/8 119/182/8 122/185/8
f 108/188/8 116/183/8 121/186/8 118/189/8
f 126/175/8 125/190/8 128/191/8 127/192/8 130/193/8 129/176/8
f 123/194/1 108/195/1 118/178/1 107/177/1
f 106/196/30 111/197/30 128/191/30 125/190/30
f 111/197/10 112/198/10 127/192/10 128/191/10
f 112/198/1 115/199/1 130/193/1 127/192/1
f 115/199/11 116/173/11 129/176/11 130/193/11
