# Blender 5.0.1
# www.blender.org
mtllib book4.mtl
o books4
v 2.846094 0.177442 0.151083
v 2.860454 0.477443 0.151083
v 2.950353 0.177442 0.151083
v 2.937632 0.477443 0.151083
v 2.861165 0.177442 0.406787
v 2.846094 0.177442 0.369825
v 2.858277 0.477443 0.357448
v 2.866211 0.477443 0.376906
v 2.950353 0.177442 0.369825
v 2.935282 0.177442 0.406787
v 2.930236 0.477443 0.376906
v 2.938169 0.477443 0.357448
v 2.846094 0.477443 0.151083
v 2.950353 0.477443 0.151083
v 2.861165 0.477443 0.406787
v 2.846094 0.477443 0.369825
v 2.950353 0.477443 0.369825
v 2.935282 0.477443 0.406787
v 2.937764 0.177442 0.151083
v 2.860241 0.177442 0.151083
v 2.863444 0.457495 0.151083
v 2.935038 0.457495 0.151083
v 2.866211 0.457495 0.376906
v 2.858277 0.457495 0.357448
v 2.938169 0.457495 0.357448
v 2.930236 0.457495 0.376906
v 3.054378 0.168648 0.151083
v 2.964279 0.399154 0.151083
v 3.132592 0.203606 0.151083
v 3.022178 0.425031 0.151083
v 3.065684 0.173702 0.406787
v 3.054378 0.168648 0.369825
v 2.962647 0.398424 0.357448
v 2.968599 0.401084 0.376906
v 3.132592 0.203606 0.369825
v 3.121286 0.198553 0.406787
v 3.016629 0.422551 0.376906
v 3.022581 0.425211 0.357448
v 2.953507 0.394339 0.151083
v 3.031721 0.429296 0.151083
v 2.964813 0.399392 0.406787
v 2.953507 0.394339 0.369825
v 3.031721 0.429296 0.369825
v 3.020415 0.424243 0.406787
v 3.123148 0.199385 0.151083
v 3.064991 0.173392 0.151083
v 2.973230 0.385150 0.151083
v 3.026939 0.409155 0.151083
v 2.975306 0.386078 0.376906
v 2.969354 0.383418 0.357448
v 3.029288 0.410205 0.357448
v 3.023336 0.407545 0.376906
vn -0.0000 -0.0000 -1.0000
vn -0.9260 -0.0000 0.3776
vn 0.9260 -0.0000 0.3776
vn -1.0000 -0.0000 -0.0000
vn -0.0000 -0.0000 1.0000
vn -0.9979 0.0649 0.0089
vn 1.0000 -0.0000 -0.0000
vn -0.0000 1.0000 -0.0000
vn 0.9970 0.0747 0.0177
vn 0.9260 -0.0000 -0.3776
vn -0.9260 -0.0000 -0.3776
vn -0.8657 -0.3869 0.3177
vn 0.8657 0.3869 0.3177
vn -0.9130 -0.4080 -0.0000
vn -0.9374 -0.3481 0.0073
vn 0.9130 0.4080 -0.0000
vn -0.4080 0.9130 -0.0000
vn 0.8799 0.4749 0.0146
vn 0.8657 0.3869 -0.3177
vn -0.8657 -0.3869 -0.3177
vt 0.263664 0.036315
vt -0.000000 0.036315
vt 0.000000 0.000000
vt 0.263664 0.000538
vt 0.263664 0.315766
vt 0.000000 0.315766
vt 0.000000 0.261865
vt 0.263664 0.261865
vt 0.000000 0.503203
vt 0.263664 0.503203
vt 0.263664 0.557103
vt 0.000000 0.557103
vt 0.676702 0.431858
vt 0.676579 0.644650
vt 0.657861 0.644779
vt 0.659170 0.431847
vt 0.263664 0.782654
vt 0.000000 0.782654
vt 0.708736 0.675590
vt 0.688672 0.695654
vt 0.657861 0.682892
vt 0.695974 0.644779
vt 0.890713 0.695654
vt 0.870649 0.675590
vt 0.883411 0.644779
vt 0.921524 0.682892
vt 0.694176 0.908442
vt 0.657861 0.908442
vt 0.889354 0.908442
vt 0.921524 0.908442
vt 0.956343 0.496516
vt 0.775287 0.496516
vt 0.762220 0.283728
vt 0.782285 0.263664
vt 0.944197 0.263664
vt 0.964262 0.283728
vt 0.263664 0.814489
vt 0.000000 0.814824
vt 0.676951 0.000335
vt 0.676828 0.213194
vt 0.659297 0.213184
vt 0.657861 -0.000000
vt 0.676812 0.241570
vt 0.659280 0.241560
vt 0.676718 0.403482
vt 0.659187 0.403472
vt 0.286830 0.667890
vt 0.598625 0.752754
vt 0.575111 0.767148
vt 0.263664 0.682070
vt 0.338352 0.403030
vt 0.650147 0.487895
vt 0.657861 0.535121
vt 0.346065 0.450257
vt 0.583172 0.362342
vt 0.271377 0.277477
vt 0.263664 0.230251
vt 0.575459 0.315115
vt 0.697632 0.362817
vt 0.756340 0.567349
vt 0.738612 0.572388
vt 0.676951 0.368641
vt 0.322899 0.012618
vt 0.634694 0.097482
vt 0.923766 0.232853
vt 0.938998 0.212788
vt 0.962390 0.225550
vt 0.933455 0.263664
vt 0.785611 0.212788
vt 0.800844 0.232853
vt 0.791155 0.263664
vt 0.762220 0.225551
vt 0.934820 0.000000
vt 0.962390 0.000000
vt 0.786643 0.000000
vt 0.762220 0.000000
vt 0.269676 0.767148
vt 0.407130 0.767147
vt 0.417051 0.979936
vt 0.401818 1.000000
vt 0.278896 1.000000
vt 0.263664 0.979936
vt 0.343513 -0.000000
vt 0.655525 0.084732
vt 0.701775 0.000000
vt 0.762220 0.204065
vt 0.741539 0.209890
vt 0.676951 0.006898
vt 0.758378 0.228962
vt 0.737696 0.234786
vt 0.701475 0.337920
vt 0.680794 0.343744
s 0
f 1/1/1 13/2/1 2/3/1 20/4/1
f 5/5/2 15/6/2 16/7/2 6/8/2
f 18/9/3 10/10/3 9/11/3 17/12/3
f 6/8/4 16/7/4 13/2/4 1/1/4
f 10/10/5 18/9/5 15/6/5 5/5/5
f 12/13/6 4/14/6 22/15/6 25/16/6
f 3/17/7 14/18/7 17/12/7 9/11/7
f 8/19/8 7/20/8 16/21/8 15/22/8
f 12/23/8 11/24/8 18/25/8 17/26/8
f 7/20/8 2/27/8 13/28/8 16/21/8
f 11/24/8 8/19/8 15/22/8 18/25/8
f 4/29/8 12/23/8 17/26/8 14/30/8
f 22/31/8 21/32/8 24/33/8 23/34/8 26/35/8 25/36/8
f 19/37/1 4/38/1 14/18/1 3/17/1
f 2/39/9 7/40/9 24/41/9 21/42/9
f 7/40/10 8/43/10 23/44/10 24/41/10
f 8/43/1 11/45/1 26/46/1 23/44/1
f 11/45/11 12/13/11 25/16/11 26/46/11
f 27/47/1 39/48/1 28/49/1 46/50/1
f 31/51/12 41/52/12 42/53/12 32/54/12
f 44/55/13 36/56/13 35/57/13 43/58/13
f 32/54/14 42/53/14 39/48/14 27/47/14
f 36/56/5 44/55/5 41/52/5 31/51/5
f 38/59/15 30/60/15 48/61/15 51/62/15
f 29/63/16 40/64/16 43/58/16 35/57/16
f 34/65/17 33/66/17 42/67/17 41/68/17
f 38/69/17 37/70/17 44/71/17 43/72/17
f 33/66/17 28/73/17 39/74/17 42/67/17
f 37/70/17 34/65/17 41/68/17 44/71/17
f 30/75/17 38/69/17 43/72/17 40/76/17
f 48/77/17 47/78/17 50/79/17 49/80/17 52/81/17 51/82/17
f 45/83/1 30/84/1 40/64/1 29/63/1
f 28/85/18 33/86/18 50/87/18 47/88/18
f 33/86/19 34/89/19 49/90/19 50/87/19
f 34/89/1 37/91/1 52/92/1 49/90/1
f 37/91/20 38/59/20 51/62/20 52/92/20
