# Apple ModelIO OBJ File: Door
mtllib Door.mtl
g Door_Frame
v -6.14996 7.065 -0.582879
v -6.14996 9.34381 -0.582879
v -6.14996 9.5 -0.70792
v -6.14996 7 -0.70792
v -6.14996 9.34381 0.667039
v -6.14996 7.065 0.667039
v -6.14996 7 0.79208
v -6.14996 9.5 0.79208
v -5.65 7 0.79208
v -5.65 9.5 0.79208
v -5.65 7 -0.70792
v -5.65 9.5 -0.70792
v -5.65 7.065 -0.582879
v -5.65 9.34381 -0.582879
v -5.65 9.34381 0.667039
v -5.65 7.065 0.667039
v -5.98358 8.11092 -0.404097
v -5.91629 8.11092 -0.404097
v -5.91629 8.31127 -0.404097
v -5.98358 8.31127 -0.404097
v -5.91629 8.11092 -0.488572
v -5.98358 8.11092 -0.488572
v -5.98358 8.31127 -0.488572
v -5.91629 8.31127 -0.488572
v -6.05466 8.22342 -0.472496
v -6.08375 8.22342 -0.443412
v -6.08375 8.27658 -0.443412
v -6.05466 8.27658 -0.472496
v -6.03058 8.22342 -0.4042
v -6.01527 8.22342 -0.419335
v -6.01527 8.27658 -0.419335
v -6.03058 8.27658 -0.4042
v -5.98059 8.27658 -0.472496
v -5.98059 8.22342 -0.472496
v -6.07627 8.23089 -0.269335
v -6.07627 8.26911 -0.269335
v -6.03806 8.23089 -0.269335
v -5.98059 8.22342 -0.419335
v -6.03806 8.26911 -0.269335
v -5.98059 8.27658 -0.419335
v -5.94998 9.34381 0.667039
v -5.94998 9.34381 -0.582879
v -5.94998 7.065 -0.582879
v -5.94998 7.065 0.667039
v -5.84998 9.34381 0.667039
v -5.84998 7.065 0.667039
v -5.84998 7.065 -0.582879
v -5.84998 9.34381 -0.582879
v -5.81637 8.11092 -0.404097
v -5.81637 8.31127 -0.404097
v -5.88367 8.31127 -0.404097
v -5.88367 8.11092 -0.404097
v -5.88367 8.11092 -0.488572
v -5.88367 8.31127 -0.488572
v -5.81637 8.31127 -0.488572
v -5.81637 8.11092 -0.488572
v -5.7453 8.22342 -0.472496
v -5.7453 8.27658 -0.472496
v -5.71621 8.27658 -0.443412
v -5.71621 8.22342 -0.443412
v -5.76937 8.22342 -0.4042
v -5.76937 8.27658 -0.4042
v -5.78469 8.27658 -0.419335
v -5.78469 8.22342 -0.419335
v -5.81938 8.22342 -0.472496
v -5.81938 8.27658 -0.472496
v -5.72369 8.26911 -0.269335
v -5.72369 8.23089 -0.269335
v -5.7619 8.23089 -0.269335
v -5.81938 8.22342 -0.419335
v -5.7619 8.26911 -0.269335
v -5.81938 8.27658 -0.419335
vn -1 -0 -0
vn -0 -0 1
vn -0 -1 -0
vn -0 1 -0
vn 1 -0 -0
vn -0 -0 -1
vn -0.7071 -0 -0.7071
vn 0.703 -0 0.7112
vn -0.9991 -0 0.0429
vn -0.0207 -0.9986 0.0483
vn -0.0207 0.9986 0.0483
vn 0.9985 -0 0.0553
vn 0.7071 -0 -0.7071
vn -0.703 -0 0.7112
vn 0.9991 -0 0.0429
vn 0.0207 -0.9986 0.0483
vn 0.0207 0.9986 0.0483
vn -0.9985 -0 0.0553
vt 0.297841 0.008276
vt 0.297842 0.293041
vt 0.282216 0.312558
vt 0.282216 0.000154
vt 0.454033 0.293041
vt 0.454034 0.008276
vt 0.469659 0.000154
vt 0.469659 0.312558
vt 0.297842 0.008275
vt 0.282216 0.000153
vt 0.000153 0.187596
vt 0.062629 0.187596
vt 0.062629 0.5
vt 0.000153 0.5
vt 0.000153 0.000153
vt 0.062629 0.000153
vt 0.062629 0.687443
vt 0.000153 0.687443
vt 0.454034 0.320987
vt 0.469659 0.312865
vt 0.469659 0.625269
vt 0.454033 0.605752
vt 0.297841 0.605752
vt 0.282216 0.625269
vt 0.282216 0.312865
vt 0.297842 0.320987
vt 0.454033 0.320987
vt 0.469658 0.312865
vt 0.062629 0.999847
vt 0.000153 0.999847
vt 0.062936 0.597301
vt 0.125412 0.597301
vt 0.125412 0.882066
vt 0.062935 0.882066
vt 0.062936 0.000153
vt 0.125412 0.000153
vt 0.125412 0.156345
vt 0.062936 0.156345
vt 0.125412 0.44111
vt 0.062936 0.44111
vt 0.491177 0.335794
vt 0.482768 0.335794
vt 0.482768 0.36083
vt 0.491177 0.36083
vt 0.510142 0.335794
vt 0.501733 0.335794
vt 0.501733 0.36083
vt 0.510142 0.36083
vt 0.491177 0.327385
vt 0.501733 0.327385
vt 0.501733 0.369239
vt 0.491177 0.369239
vt 0.496482 0.408419
vt 0.496516 0.411435
vt 0.492735 0.411905
vt 0.492519 0.40892
vt 0.504 0.411884
vt 0.504039 0.408667
vt 0.51201 0.409918
vt 0.51162 0.412771
vt 0.485481 0.412799
vt 0.48535 0.409732
vt 0.49023 0.400905
vt 0.497948 0.400984
vt 0.498372 0.431687
vt 0.492741 0.431743
vt 0.503466 0.431473
vt 0.505274 0.403432
vt 0.487308 0.431959
vt 0.482768 0.404863
vt 0.512967 0.404899
vt 0.508539 0.431959
vt 0.28191 0.594675
vt 0.125718 0.594675
vt 0.125718 0.30991
vt 0.28191 0.30991
vt 0.474741 0.29
vt 0.469966 0.29
vt 0.469966 0.285224
vt 0.474741 0.285224
vt 0.482462 0.284918
vt 0.469966 0.284918
vt 0.469966 0.000153
vt 0.482462 0.000153
vt 0.495264 0.000153
vt 0.495264 0.284918
vt 0.482768 0.284918
vt 0.482768 0.000153
vt 0.491177 0.293633
vt 0.491177 0.318669
vt 0.482768 0.318669
vt 0.482768 0.293633
vt 0.510142 0.293633
vt 0.510142 0.318669
vt 0.501733 0.318669
vt 0.501733 0.293633
vt 0.491177 0.285224
vt 0.501733 0.285224
vt 0.501733 0.327079
vt 0.491177 0.327079
vt 0.499253 0.377059
vt 0.503216 0.377561
vt 0.503 0.380546
vt 0.499219 0.380075
vt 0.491735 0.380524
vt 0.484115 0.381411
vt 0.483725 0.378558
vt 0.491696 0.377307
vt 0.510385 0.378372
vt 0.510254 0.381439
vt 0.497787 0.369624
vt 0.505505 0.369546
vt 0.502994 0.400383
vt 0.497364 0.400327
vt 0.492269 0.400114
vt 0.490461 0.372072
vt 0.508427 0.400599
vt 0.512967 0.373503
vt 0.482768 0.373539
vt 0.487196 0.400599
vt 0.28191 0.012649
vt 0.28191 0.297414
vt 0.125718 0.297414
vt 0.125718 0.012649
vt 0.469966 0.295082
vt 0.469966 0.290306
vt 0.474741 0.290306
vt 0.474741 0.295082
vt 0.125718 0.000153
vt 0.28191 0.000153
usemtl 
f 1/1/1 2/2/1 3/3/1
f 1/1/1 3/3/1 4/4/1
f 5/5/1 6/6/1 7/7/1
f 5/5/1 7/7/1 8/8/1
f 6/6/1 1/9/1 4/10/1
f 6/6/1 4/10/1 7/7/1
f 2/2/1 5/5/1 8/8/1
f 2/2/1 8/8/1 3/3/1
f 7/11/2 9/12/2 10/13/2
f 7/11/2 10/13/2 8/14/2
f 4/15/3 11/16/3 9/12/3
f 4/15/3 9/12/3 7/11/3
f 8/14/4 10/13/4 12/17/4
f 8/14/4 12/17/4 3/18/4
f 13/19/5 11/20/5 12/21/5
f 13/19/5 12/21/5 14/22/5
f 15/23/5 10/24/5 9/25/5
f 15/23/5 9/25/5 16/26/5
f 16/26/5 9/25/5 13/27/5
f 9/25/5 11/28/5 13/27/5
f 14/22/5 12/21/5 10/24/5
f 14/22/5 10/24/5 15/23/5
f 11/29/6 4/30/6 3/18/6
f 11/29/6 3/18/6 12/17/6
f 14/31/2 2/32/2 1/33/2
f 14/31/2 1/33/2 13/34/2
f 13/35/4 1/36/4 6/37/4
f 13/35/4 6/37/4 16/38/4
f 16/38/6 6/37/6 5/39/6
f 16/38/6 5/39/6 15/40/6
f 15/40/3 5/39/3 2/32/3
f 15/40/3 2/32/3 14/31/3
f 17/41/2 18/42/2 19/43/2
f 17/41/2 19/43/2 20/44/2
f 21/45/6 22/46/6 23/47/6
f 21/45/6 23/47/6 24/48/6
f 22/46/1 17/41/1 20/44/1
f 22/46/1 20/44/1 23/47/1
f 18/49/3 17/41/3 22/46/3
f 18/49/3 22/46/3 21/50/3
f 24/51/4 23/47/4 20/44/4
f 24/51/4 20/44/4 19/52/4
f 25/53/7 26/54/7 27/55/7
f 25/53/7 27/55/7 28/56/7
f 29/57/8 30/58/8 31/59/8
f 29/57/8 31/59/8 32/60/8
f 28/56/4 27/55/4 32/61/4
f 28/56/4 32/61/4 31/62/4
f 26/54/3 25/53/3 29/57/3
f 25/53/3 30/58/3 29/57/3
f 28/56/6 33/63/6 34/64/6
f 28/56/6 34/64/6 25/53/6
f 26/54/9 35/65/9 36/66/9
f 26/54/9 36/66/9 27/55/9
f 29/57/10 37/67/10 26/54/10
f 37/67/10 35/65/10 26/54/10
f 25/53/3 34/64/3 38/68/3
f 25/53/3 38/68/3 30/58/3
f 27/55/11 36/66/11 39/69/11
f 27/55/11 39/69/11 32/61/11
f 31/62/4 40/70/4 33/63/4
f 31/62/4 33/63/4 28/56/4
f 30/58/2 38/68/2 40/71/2
f 30/58/2 40/71/2 31/59/2
f 32/60/12 39/72/12 37/67/12
f 32/60/12 37/67/12 29/57/12
f 41/73/1 42/74/1 43/75/1
f 41/73/1 43/75/1 44/76/1
f 36/77/2 35/78/2 37/79/2
f 36/77/2 37/79/2 39/80/2
f 45/81/2 41/82/2 44/83/2
f 45/81/2 44/83/2 46/84/2
f 47/85/2 48/86/2 42/87/2
f 47/85/2 42/87/2 43/88/2
f 49/89/2 50/90/2 51/91/2
f 49/89/2 51/91/2 52/92/2
f 53/93/6 54/94/6 55/95/6
f 53/93/6 55/95/6 56/96/6
f 56/96/5 55/95/5 50/90/5
f 56/96/5 50/90/5 49/89/5
f 52/97/3 53/98/3 56/96/3
f 52/97/3 56/96/3 49/89/3
f 54/99/4 51/100/4 50/90/4
f 54/99/4 50/90/4 55/95/4
f 57/101/13 58/102/13 59/103/13
f 57/101/13 59/103/13 60/104/13
f 61/105/14 62/106/14 63/107/14
f 61/105/14 63/107/14 64/108/14
f 58/102/4 63/109/4 62/110/4
f 58/102/4 62/110/4 59/103/4
f 60/104/3 61/105/3 57/101/3
f 61/105/3 64/108/3 57/101/3
f 58/102/6 57/101/6 65/111/6
f 58/102/6 65/111/6 66/112/6
f 60/104/15 59/103/15 67/113/15
f 60/104/15 67/113/15 68/114/15
f 61/105/16 60/104/16 69/115/16
f 60/104/16 68/114/16 69/115/16
f 57/101/3 64/108/3 70/116/3
f 57/101/3 70/116/3 65/111/3
f 59/103/17 62/110/17 71/117/17
f 59/103/17 71/117/17 67/113/17
f 63/109/4 58/102/4 66/112/4
f 63/109/4 66/112/4 72/118/4
f 64/108/2 63/107/2 72/119/2
f 64/108/2 72/119/2 70/116/2
f 62/106/18 61/105/18 69/115/18
f 62/106/18 69/115/18 71/120/18
f 45/121/5 46/122/5 47/123/5
f 45/121/5 47/123/5 48/124/5
f 67/125/2 71/126/2 69/127/2
f 67/125/2 69/127/2 68/128/2
f 48/124/4 42/129/4 41/130/4
f 48/124/4 41/130/4 45/121/4
f 46/122/3 44/76/3 43/75/3
f 46/122/3 43/75/3 47/123/3
s off
