# Blender 5.0.1
# www.blender.org
mtllib Ground 4x6m v2.mtl
o Ground_4x6m
v 3.000000 7.057991 7.000000
v 9.000000 7.057991 7.000000
v 3.000000 7.057991 3.000000
v 9.000000 7.000000 3.000000
v 3.000000 6.857991 3.000000
v 3.000000 6.857991 7.000000
v 9.000000 6.857991 7.000000
v 9.000000 6.800000 3.000000
v 4.000000 7.057991 7.000000
v 5.000000 7.000000 7.000000
v 6.000000 7.000000 7.000000
v 7.000000 7.057991 7.000000
v 8.000000 7.000000 7.000000
v 8.000000 7.057991 3.000000
v 7.000000 7.000000 3.000000
v 6.000000 7.000000 3.000000
v 5.000000 7.000000 3.000000
v 4.000000 7.000000 3.000000
v 4.000000 6.857991 7.000000
v 5.000000 6.800000 7.000000
v 6.000000 6.800000 7.000000
v 7.000000 6.857991 7.000000
v 8.000000 6.800000 7.000000
v 8.000000 6.857991 3.000000
v 7.000000 6.800000 3.000000
v 6.000000 6.760602 3.000000
v 5.000000 6.800000 3.000000
v 4.000000 6.800000 3.000000
v 3.000000 6.960602 4.333333
v 3.000000 7.000000 5.666667
v 9.000000 6.960602 5.666667
v 9.000000 7.057991 4.333333
v 3.000000 6.760602 4.333333
v 3.000000 6.800000 5.666667
v 9.000000 6.760602 5.666667
v 9.000000 6.857991 4.333333
v 4.000000 7.000000 5.666667
v 4.000000 7.057991 4.333333
v 5.000000 6.960602 5.666667
v 5.000000 7.000000 4.333333
v 6.000000 7.057991 5.666667
v 6.000000 7.000000 4.333333
v 7.000000 7.000000 5.666667
v 7.000000 7.057991 4.333333
v 8.000000 6.960602 5.666667
v 8.000000 7.057991 4.333333
vn 0.0290 0.9993 -0.0217
vn -0.0000 -0.0000 -1.0000
vn -0.0000 -0.0000 1.0000
vn 1.0000 -0.0000 -0.0000
vn -1.0000 -0.0000 -0.0000
vn -0.0197 0.9997 0.0148
vn -0.0000 1.0000 -0.0000
vn -0.0290 0.9993 -0.0217
vn 0.0486 0.9982 -0.0365
vn 0.0197 0.9981 0.0582
vn -0.0486 0.9988 0.0070
vn -0.0486 0.9988 -0.0070
vn 0.0486 0.9982 0.0365
vn -0.0000 0.9991 -0.0435
vn -0.0289 0.9983 -0.0512
vn -0.0000 0.9973 0.0728
vt 0.447917 0.187500
vt 0.447917 0.031250
vt 0.656250 0.031250
vt 0.656250 0.187500
vt 0.656250 0.812500
vt 0.687500 0.812500
vt 0.687500 0.968750
vt 0.656250 0.968750
vt 0.031250 0.187500
vt 0.000000 0.187500
vt 0.000000 0.031250
vt 0.031250 0.031250
vt 0.447917 -0.000000
vt 0.656250 -0.000000
vt 0.239583 0.968750
vt 0.239583 1.000000
vt 0.031250 1.000000
vt 0.031250 0.968750
vt 0.000000 0.968750
vt 0.000000 0.812500
vt 0.031250 0.812500
vt 0.000000 0.656250
vt 0.031250 0.656250
vt 0.000000 0.500000
vt 0.031250 0.500000
vt 0.000000 0.343750
vt 0.031250 0.343750
vt 0.687500 0.031250
vt 0.687500 0.187500
vt 0.687500 0.343750
vt 0.656250 0.343750
vt 0.687500 0.500000
vt 0.656250 0.500000
vt 0.687500 0.656250
vt 0.656250 0.656250
vt 0.447917 0.968750
vt 0.447917 0.812500
vt 0.447917 0.656250
vt 0.447917 0.500000
vt 0.447917 0.343750
vt 0.239583 0.187500
vt 0.239583 0.343750
vt 0.239583 0.500000
vt 0.239583 0.656250
vt 0.239583 0.812500
vt 0.656250 1.000000
vt 0.447917 1.000000
vt 0.031250 -0.000000
vt 0.239583 -0.000000
vt 0.239583 0.031250
s 0
usemtl Wood_texture
f 46/1/1 32/2/1 4/3/1 14/4/1
f 18/5/2 28/6/2 5/7/2 3/8/2
f 13/9/3 23/10/3 7/11/3 2/12/3
f 32/2/4 36/13/4 8/14/4 4/3/4
f 30/15/5 34/16/5 6/17/5 1/18/5
f 1/18/3 6/19/3 19/20/3 9/21/3
f 9/21/3 19/20/3 20/22/3 10/23/3
f 10/23/3 20/22/3 21/24/3 11/25/3
f 11/25/3 21/24/3 22/26/3 12/27/3
f 12/27/3 22/26/3 23/10/3 13/9/3
f 4/3/2 8/28/2 24/29/2 14/4/2
f 14/4/2 24/29/2 25/30/2 15/31/2
f 15/31/2 25/30/2 26/32/2 16/33/2
f 16/33/2 26/32/2 27/34/2 17/35/2
f 17/35/2 27/34/2 28/6/2 18/5/2
f 29/36/6 38/37/6 18/5/6 3/8/6
f 38/37/1 40/38/1 17/35/1 18/5/1
f 40/38/7 42/39/7 16/33/7 17/35/7
f 42/39/8 44/40/8 15/31/8 16/33/8
f 44/40/8 46/1/8 14/4/8 15/31/8
f 12/27/9 13/9/9 45/41/9 43/42/9
f 43/42/10 45/41/10 46/1/10 44/40/10
f 11/25/7 12/27/7 43/42/7 41/43/7
f 41/43/7 43/42/7 44/40/7 42/39/7
f 10/23/11 11/25/11 41/43/11 39/44/11
f 39/44/12 41/43/12 42/39/12 40/38/12
f 9/21/9 10/23/9 39/44/9 37/45/9
f 37/45/13 39/44/13 40/38/13 38/37/13
f 1/18/14 9/21/14 37/45/14 30/15/14
f 30/15/11 37/45/11 38/37/11 29/36/11
f 3/8/5 5/46/5 33/47/5 29/36/5
f 29/36/5 33/47/5 34/16/5 30/15/5
f 2/12/4 7/48/4 35/49/4 31/50/4
f 31/50/4 35/49/4 36/13/4 32/2/4
f 13/9/15 2/12/15 31/50/15 45/41/15
f 45/41/16 31/50/16 32/2/16 46/1/16
