# Blender 5.0.1
# www.blender.org
mtllib Ground 4x10m v2.mtl
o Ground_4x10m
v 10.000000 7.000000 7.000000
v 20.000000 7.000000 7.000000
v 10.000000 7.039365 3.000000
v 20.000000 7.039365 3.000000
v 10.000000 6.839365 3.000000
v 10.000000 6.800000 7.000000
v 20.000000 6.800000 7.000000
v 20.000000 6.839365 3.000000
v 11.111111 7.039365 7.000000
v 12.222222 7.039365 7.000000
v 13.333334 7.000000 7.000000
v 14.444445 7.039365 7.000000
v 15.555555 7.000000 7.000000
v 16.666666 7.000000 7.000000
v 17.777779 7.039365 7.000000
v 18.888889 7.039365 7.000000
v 18.888889 7.039365 3.000000
v 17.777779 6.970809 3.000000
v 16.666666 7.000000 3.000000
v 15.555555 7.039365 3.000000
v 14.444445 7.000000 3.000000
v 13.333333 7.039365 3.000000
v 12.222222 7.039365 3.000000
v 11.111111 7.000000 3.000000
v 11.111111 6.839365 7.000000
v 12.222222 6.839365 7.000000
v 13.333334 6.800000 7.000000
v 14.444445 6.839365 7.000000
v 15.555555 6.800000 7.000000
v 16.666666 6.800000 7.000000
v 17.777779 6.839365 7.000000
v 18.888889 6.839365 7.000000
v 18.888889 6.839365 3.000000
v 17.777779 6.770810 3.000000
v 16.666666 6.800000 3.000000
v 15.555555 6.839365 3.000000
v 14.444445 6.800000 3.000000
v 13.333333 6.839365 3.000000
v 12.222222 6.839365 3.000000
v 11.111111 6.800000 3.000000
v 10.000000 6.970809 4.333333
v 10.000000 7.039365 5.666667
v 20.000000 7.039365 5.666667
v 20.000000 7.000000 4.333333
v 10.000000 6.770810 4.333333
v 10.000000 6.839365 5.666667
v 20.000000 6.839365 5.666667
v 20.000000 6.800000 4.333333
v 11.111111 7.039365 5.666667
v 11.111111 7.000000 4.333333
v 12.222222 6.970809 5.666667
v 12.222222 7.000000 4.333333
v 13.333333 7.000000 5.666667
v 13.333333 7.039365 4.333333
v 14.444445 6.970809 5.666667
v 14.444445 7.039365 4.333333
v 15.555555 7.000000 5.666667
v 15.555555 7.000000 4.333333
v 16.666666 7.039365 5.666667
v 16.666666 7.000000 4.333333
v 17.777779 7.000000 5.666667
v 17.777779 7.000000 4.333333
v 18.888889 6.970809 5.666667
v 18.888889 7.039365 4.333333
vn 0.0177 0.9997 0.0148
vn -0.0000 -0.0000 -1.0000
vn -0.0000 -0.0000 1.0000
vn 1.0000 -0.0000 -0.0000
vn -1.0000 -0.0000 -0.0000
vn 0.0046 0.9997 0.0257
vn -0.0177 0.9997 0.0148
vn 0.0177 0.9997 -0.0148
vn -0.0000 1.0000 -0.0000
vn 0.0131 0.9999 -0.0109
vn -0.0485 0.9988 -0.0109
vn 0.0131 0.9991 -0.0404
vn -0.0046 0.9997 0.0257
vn -0.0177 0.9997 -0.0148
vn 0.0046 0.9997 -0.0257
vn -0.0046 0.9997 -0.0257
vn 0.0131 0.9991 0.0404
vn -0.0308 0.9992 0.0257
vn 0.0308 0.9992 -0.0257
vn 0.0308 0.9995 -0.0038
vn -0.0131 0.9991 -0.0404
vn -0.0131 0.9999 -0.0109
vn -0.0131 0.9999 0.0109
vt 0.275641 0.126068
vt 0.275641 0.019231
vt 0.403846 0.019231
vt 0.403846 0.126068
vt 0.403846 0.873932
vt 0.423077 0.873932
vt 0.423077 0.980769
vt 0.403846 0.980769
vt 0.019231 0.126068
vt 0.000000 0.126068
vt 0.000000 0.019231
vt 0.019231 0.019231
vt 0.275641 -0.000000
vt 0.403846 -0.000000
vt 0.147436 0.980769
vt 0.147436 1.000000
vt 0.019231 1.000000
vt 0.019231 0.980769
vt 0.000000 0.980769
vt 0.000000 0.873932
vt 0.019231 0.873932
vt 0.000000 0.767094
vt 0.019231 0.767094
vt 0.000000 0.660256
vt 0.019231 0.660256
vt 0.000000 0.553419
vt 0.019231 0.553419
vt 0.000000 0.446581
vt 0.019231 0.446581
vt 0.000000 0.339744
vt 0.019231 0.339744
vt 0.000000 0.232906
vt 0.019231 0.232906
vt 0.423077 0.019231
vt 0.423077 0.126068
vt 0.423077 0.232906
vt 0.403846 0.232906
vt 0.423077 0.339744
vt 0.403846 0.339744
vt 0.423077 0.446581
vt 0.403846 0.446581
vt 0.423077 0.553419
vt 0.403846 0.553419
vt 0.423077 0.660257
vt 0.403846 0.660257
vt 0.423077 0.767094
vt 0.403846 0.767094
vt 0.275641 0.980769
vt 0.275641 0.873932
vt 0.275641 0.767094
vt 0.275641 0.660256
vt 0.275641 0.553419
vt 0.275641 0.446581
vt 0.275641 0.339744
vt 0.275641 0.232906
vt 0.147436 0.126068
vt 0.147436 0.232906
vt 0.147436 0.339744
vt 0.147436 0.446581
vt 0.147436 0.553419
vt 0.147436 0.660256
vt 0.147436 0.767094
vt 0.147436 0.873932
vt 0.403846 1.000000
vt 0.275641 1.000000
vt 0.019231 -0.000000
vt 0.147436 -0.000000
vt 0.147436 0.019231
s 0
usemtl Wood_texture
f 64/1/1 44/2/1 4/3/1 17/4/1
f 24/5/2 40/6/2 5/7/2 3/8/2
f 16/9/3 32/10/3 7/11/3 2/12/3
f 44/2/4 48/13/4 8/14/4 4/3/4
f 42/15/5 46/16/5 6/17/5 1/18/5
f 1/18/3 6/19/3 25/20/3 9/21/3
f 9/21/3 25/20/3 26/22/3 10/23/3
f 10/23/3 26/22/3 27/24/3 11/25/3
f 11/25/3 27/24/3 28/26/3 12/27/3
f 12/27/3 28/26/3 29/28/3 13/29/3
f 13/29/3 29/28/3 30/30/3 14/31/3
f 14/31/3 30/30/3 31/32/3 15/33/3
f 15/33/3 31/32/3 32/10/3 16/9/3
f 4/3/2 8/34/2 33/35/2 17/4/2
f 17/4/2 33/35/2 34/36/2 18/37/2
f 18/37/2 34/36/2 35/38/2 19/39/2
f 19/39/2 35/38/2 36/40/2 20/41/2
f 20/41/2 36/40/2 37/42/2 21/43/2
f 21/43/2 37/42/2 38/44/2 22/45/2
f 22/45/2 38/44/2 39/46/2 23/47/2
f 23/47/2 39/46/2 40/6/2 24/5/2
f 41/48/6 50/49/6 24/5/6 3/8/6
f 50/49/7 52/50/7 23/47/7 24/5/7
f 52/50/7 54/51/7 22/45/7 23/47/7
f 54/51/8 56/52/8 21/43/8 22/45/8
f 56/52/9 58/53/9 20/41/9 21/43/9
f 58/53/1 60/54/1 19/39/1 20/41/1
f 60/54/10 62/55/10 18/37/10 19/39/10
f 62/55/11 64/1/11 17/4/11 18/37/11
f 15/33/12 16/9/12 63/56/12 61/57/12
f 61/57/13 63/56/13 64/1/13 62/55/13
f 14/31/9 15/33/9 61/57/9 59/58/9
f 59/58/8 61/57/8 62/55/8 60/54/8
f 13/29/7 14/31/7 59/58/7 57/59/7
f 57/59/14 59/58/14 60/54/14 58/53/14
f 12/27/15 13/29/15 57/59/15 55/60/15
f 55/60/6 57/59/6 58/53/6 56/52/6
f 11/25/16 12/27/16 55/60/16 53/61/16
f 53/61/17 55/60/17 56/52/17 54/51/17
f 10/23/15 11/25/15 53/61/15 51/62/15
f 51/62/18 53/61/18 54/51/18 52/50/18
f 9/21/19 10/23/19 51/62/19 49/63/19
f 49/63/20 51/62/20 52/50/20 50/49/20
f 1/18/7 9/21/7 49/63/7 42/15/7
f 42/15/21 49/63/21 50/49/21 41/48/21
f 3/8/5 5/64/5 45/65/5 41/48/5
f 41/48/5 45/65/5 46/16/5 42/15/5
f 2/12/4 7/66/4 47/67/4 43/68/4
f 43/68/4 47/67/4 48/13/4 44/2/4
f 16/9/22 2/12/22 43/68/22 63/56/22
f 63/56/23 43/68/23 44/2/23 64/1/23
