# Apple ModelIO OBJ File: Light_Big
mtllib Light_Big.mtl
g Light_Big
v 15.2468 9.70001 0
v 15.2073 9.8 0
v 15.1795 9.8 0.103641
v 15.2137 9.70001 0.123393
v 15.0513 9.85 -0.088829
v 15.025 9.86 -0.043301
v 15.0433 9.86 -0.025
v 15.0888 9.85 -0.051285
v 15 9.86 -0.05
v 15 10.5 -0.05
v 15.025 10.5 -0.043301
v 15.2137 9.70001 -0.123393
v 15.1795 9.8 -0.103641
v 15.05 9.86 0
v 15.1026 9.85 0
v 15.0433 10.5 -0.025
v 15.1234 9.70001 0.213723
v 15.1036 9.8 0.179512
v 15 9.8 0.207283
v 15 9.70001 0.246786
v 15.0888 9.85 0.051285
v 15.0433 9.86 0.025
v 15.05 10.5 0
v 14.8766 9.70001 0.213723
v 14.8964 9.8 0.179512
v 15.0513 9.85 0.088829
v 15.025 9.86 0.043301
v 15.0433 10.5 0.025
v 14.7863 9.70001 0.123393
v 14.8205 9.8 0.103641
v 15 9.86 0.05
v 15 9.85 0.102571
v 15.025 10.5 0.043301
v 14.7532 9.70001 0
v 14.7927 9.8 0
v 14.9487 9.85 0.088829
v 14.975 9.86 0.043301
v 15 10.5 0.05
v 14.8205 9.8 -0.103641
v 14.7863 9.70001 -0.123393
v 14.9567 9.86 0.025
v 14.9112 9.85 0.051285
v 14.975 10.5 0.043301
v 14.8964 9.8 -0.179512
v 14.8766 9.70001 -0.213723
v 14.95 9.86 0
v 14.8974 9.85 0
v 14.9567 10.5 0.025
v 15 9.8 -0.207283
v 15 9.70001 -0.246786
v 14.9112 9.85 -0.051285
v 14.9567 9.86 -0.025
v 14.95 10.5 0
v 15.1234 9.70001 -0.213723
v 15.1036 9.8 -0.179512
v 14.9487 9.85 -0.088829
v 14.975 9.86 -0.043301
v 14.9567 10.5 -0.025
v 15 9.85 -0.102571
v 14.975 10.5 -0.043301
v 14.8023 9.70001 -0.11415
v 14.8858 9.70001 -0.197714
v 14.8392 9.80001 -0.09281
v 14.9072 9.80001 -0.160751
v 15.1142 9.70001 -0.197714
v 15 9.70001 -0.2283
v 15.1977 9.70001 -0.11415
v 15.2283 9.70001 0
v 15.1977 9.70001 0.11415
v 15.1142 9.70001 0.197714
v 15 9.70001 0.2283
v 14.8858 9.70001 0.197714
v 14.8023 9.70001 0.11415
v 14.7717 9.70001 0
v 15.1856 9.80001 0
v 15.1608 9.80001 0.09281
v 15.079 9.85001 0
v 15.0684 9.85001 0.039509
v 15 9.80001 -0.18562
v 14.8392 9.80001 0.09281
v 14.9072 9.80001 0.160751
v 15.0928 9.80001 0.160751
v 15.1608 9.80001 -0.09281
v 15.0928 9.80001 -0.160751
v 14.8144 9.80001 0
v 15 9.80001 0.18562
v 14.9605 9.85001 -0.068431
v 15 9.85001 -0.079018
v 15.0395 9.85001 -0.068431
v 14.9316 9.85001 -0.039509
v 14.921 9.85001 0
v 14.9316 9.85001 0.039509
v 14.9605 9.85001 0.068431
v 15 9.85001 0.079018
v 15.0395 9.85001 0.068431
v 15.0684 9.85001 -0.039509
v 15 9.519 -0.041012
v 15 9.56001 -0.058
v 15.029 9.519 -0.029
v 15.041 9.56001 -0.041012
v 14.959 9.60102 0
v 14.971 9.60102 0.029
v 14.9829 9.61102 0
v 14.9879 9.61102 0.012102
v 15 9.50201 0
v 15 9.60102 -0.041012
v 15.029 9.60102 -0.029
v 15.041 9.519 0
v 15.058 9.56001 0
v 15 9.60102 0.041012
v 15.029 9.60102 0.029
v 15 9.61102 0.017115
v 15.0121 9.61102 0.012102
v 15.041 9.60102 0
v 15.041 9.56001 0.041012
v 15.029 9.519 0.029
v 14.971 9.60102 -0.029
v 15 9.61102 -0.017115
v 14.9879 9.61102 -0.012102
v 15 9.56001 0.058
v 15 9.519 0.041012
v 15.0171 9.61102 0
v 14.959 9.56001 0.041012
v 14.971 9.519 0.029
v 15.0121 9.61102 -0.012102
v 14.959 9.519 0
v 14.942 9.56001 0
v 14.971 9.519 -0.029
v 14.959 9.56001 -0.041012
v 14.9829 9.66102 0
v 14.9879 9.66102 -0.012102
v 15 9.66102 -0.017115
v 15.0121 9.66102 -0.012102
v 15.0171 9.66102 0
v 15.0121 9.66102 0.012102
v 15 9.66102 0.017115
v 14.9879 9.66102 0.012102
v 15.0227 9.66102 0.022683
v 15.0321 9.66102 0
v 14.9773 9.66102 -0.022683
v 14.9679 9.66102 0
v 15 9.66102 0.032079
v 15 9.66102 -0.032079
v 15.0227 9.66102 -0.022683
v 14.9773 9.66102 0.022683
v 14.9679 9.85874 0
v 14.9773 9.85874 -0.022683
v 15 9.85874 0.032079
v 14.9773 9.85874 0.022683
v 15.0321 9.85874 0
v 15.0227 9.85874 0.022683
v 15 9.85874 -0.032079
v 15.0227 9.85874 -0.022683
vn 0.9025 0.3565 0.2418
vn 0.1366 0.9812 -0.1366
vn 0.2588 -0 -0.9659
vn 0.9025 0.3565 -0.2418
vn 0.1866 0.9812 -0.05
vn 0.7071 -0 -0.7071
vn 0.2418 0.3565 0.9025
vn 0.1866 0.9812 0.05
vn 0.9659 -0 -0.2588
vn -0.2418 0.3565 0.9025
vn 0.1366 0.9812 0.1366
vn 0.9659 -0 0.2588
vn -0.6606 0.3565 0.6606
vn 0.05 0.9812 0.1866
vn 0.7071 -0 0.7071
vn -0.9025 0.3565 0.2418
vn -0.05 0.9812 0.1866
vn 0.2588 -0 0.9659
vn -0.9025 0.3565 -0.2418
vn -0.1366 0.9812 0.1366
vn -0.2588 -0 0.9659
vn -0.6606 0.3565 -0.6606
vn -0.1866 0.9812 0.05
vn -0.7071 -0 0.7071
vn -0.2418 0.3565 -0.9025
vn -0.1866 0.9812 -0.05
vn -0.9659 -0 0.2588
vn 0.2418 0.3565 -0.9025
vn -0.1366 0.9812 -0.1366
vn -0.9659 -0 -0.2588
vn -0.05 0.9812 -0.1866
vn -0.7071 -0 -0.7071
vn 0.6606 0.3565 0.6606
vn 0.05 0.9812 -0.1866
vn -0.2588 -0 -0.9659
vn 0.6537 -0.3811 0.6537
vn 0.6606 0.3565 -0.6606
vn 0.1147 0.8965 -0.428
vn -0.1147 0.8965 -0.428
vn -0.3133 0.8965 -0.3133
vn -0.428 0.8965 -0.1147
vn -0.428 0.8965 0.1147
vn -0.3133 0.8965 0.3133
vn -0.1147 0.8965 0.428
vn 0.1147 0.8965 0.428
vn 0.3133 0.8965 0.3133
vn 0.428 0.8965 0.1147
vn 0.428 0.8965 -0.1147
vn 0.3133 0.8965 -0.3133
vn -0 -1 -0
vn -0.4219 -0.8996 -0.1131
vn 0.2393 -0.3811 0.893
vn 0.6537 -0.3811 -0.6537
vn -0.6537 -0.3811 -0.6537
vn -0.6537 -0.3811 0.6537
vn 0.893 -0.3811 -0.2393
vn -0.2393 -0.3811 -0.893
vn -0.893 -0.3811 0.2393
vn 0.893 -0.3811 0.2393
vn -0.2393 -0.3811 0.893
vn 0.2393 -0.3811 -0.893
vn -0.893 -0.3811 -0.2393
vn 0.3089 -0.8996 0.3089
vn 0.1131 -0.8996 0.4219
vn 0.3089 -0.8996 -0.3089
vn -0.3089 -0.8996 -0.3089
vn -0.3089 -0.8996 0.3089
vn 0.4219 -0.8996 -0.113
vn -0.1131 -0.8996 -0.4219
vn -0.4219 -0.8996 0.1131
vn 0.4219 -0.8996 0.113
vn -0.1131 -0.8996 0.4219
vn 0.1131 -0.8996 -0.4219
vn 0.3574 -0.3574 -0.8629
vn -0.3812 0.9109 0.1579
vn 0.1565 -0.9125 -0.378
vn 0.3574 0.3574 -0.8629
vn 0.8629 -0.3574 -0.3574
vn 0.1579 0.9109 0.3812
vn 0.378 -0.9125 -0.1566
vn 0.8629 0.3574 -0.3574
vn 0.8629 -0.3574 0.3574
vn -0.1579 0.9109 -0.3812
vn 0.378 -0.9125 0.1566
vn 0.8629 0.3574 0.3574
vn 0.3574 -0.3574 0.8629
vn 0.3812 0.9109 0.1579
vn 0.1566 -0.9125 0.378
vn 0.3574 0.3574 0.8629
vn -0.3574 0.3574 0.8629
vn -0.3574 -0.3574 0.8629
vn 0.3812 0.9109 -0.1579
vn -0.1566 -0.9125 0.378
vn -0.378 -0.9125 0.1566
vn -0.8629 0.3574 0.3574
vn -0.8629 -0.3574 0.3574
vn 0.1579 0.9109 -0.3812
vn -0.378 -0.9125 -0.1566
vn -0.8629 0.3574 -0.3574
vn -0.8629 -0.3574 -0.3574
vn -0.3812 0.9109 -0.1579
vn -0.1565 -0.9125 -0.378
vn -0.3574 0.3574 -0.8629
vn -0.3574 -0.3574 -0.8629
vn -0.1579 0.9109 0.3812
vn -0.9239 -0 -0.3827
vn 0.3827 -0 -0.9239
vn -0.3827 -0 -0.9239
vn 0.9239 -0 -0.3827
vn 0.9239 -0 0.3827
vn 0.3827 -0 0.9239
vn -0.3827 -0 0.9239
vn -0.9239 -0 0.3827
vt 0.196625 0.011771
vt 0.221759 0.094618
vt 0.154175 0.128456
vt 0.101134 0.065078
vt 0.326849 0.186825
vt 0.301146 0.225012
vt 0.280258 0.216475
vt 0.286767 0.17208
vt 0.002325 0.739108
vt 0.509901 0.739108
vt 0.509901 0.759634
vt 0.002325 0.759634
vt 0.306095 0.001661
vt 0.297053 0.085798
vt 0.25795 0.217482
vt 0.245525 0.17487
vt 0.509901 0.780161
vt 0.002325 0.780161
vt 0.032563 0.149455
vt 0.10814 0.189056
vt 0.091025 0.262541
vt 0.002008 0.258689
vt 0.20966 0.194045
vt 0.238181 0.227535
vt 0.509901 0.800688
vt 0.002325 0.800688
vt 0.022248 0.370993
vt 0.102018 0.337803
vt 0.184837 0.225998
vt 0.224236 0.244747
vt 0.509901 0.821214
vt 0.002325 0.821214
vt 0.08387 0.463195
vt 0.143336 0.403544
vt 0.219772 0.266659
vt 0.175381 0.265393
vt 0.509901 0.841741
vt 0.002325 0.841741
vt 0.17692 0.526072
vt 0.209935 0.443849
vt 0.182673 0.305723
vt 0.224523 0.288833
vt 0.509901 0.862268
vt 0.002325 0.862268
vt 0.28696 0.460033
vt 0.287389 0.546187
vt 0.23794 0.307501
vt 0.205971 0.340258
vt 0.509901 0.882794
vt 0.002325 0.882794
vt 0.366693 0.439982
vt 0.398823 0.525424
vt 0.256915 0.320464
vt 0.241132 0.36288
vt 0.509901 0.903321
vt 0.002325 0.903321
vt 0.440488 0.387867
vt 0.500353 0.466291
vt 0.283148 0.368944
vt 0.279663 0.323091
vt 0.509901 0.923848
vt 0.002325 0.923848
vt 0.500353 0.091162
vt 0.440692 0.160889
vt 0.409216 0.030658
vt 0.37326 0.107628
vt 0.325067 0.356939
vt 0.301878 0.316836
vt 0.509901 0.944374
vt 0.002325 0.944374
vt 0.3187 0.301131
vt 0.358947 0.326512
vt 0.509901 0.964901
vt 0.002325 0.964901
vt 0.358851 0.219376
vt 0.316442 0.242088
vt 0.509901 0.985428
vt 0.002325 0.985428
vt 0.533083 0.735251
vt 0.43037 0.734252
vt 0.519578 0.649742
vt 0.446037 0.644971
vt 0.998796 0.860398
vt 0.948139 0.948139
vt 0.937772 0.937772
vt 0.984634 0.856603
vt 0.860399 0.998796
vt 0.856604 0.984634
vt 0.759085 0.998796
vt 0.76288 0.984634
vt 0.671344 0.948139
vt 0.681711 0.937772
vt 0.620687 0.860399
vt 0.634849 0.856605
vt 0.620687 0.759085
vt 0.634849 0.762879
vt 0.671344 0.671344
vt 0.681711 0.681711
vt 0.759084 0.620687
vt 0.762879 0.634849
vt 0.860398 0.620687
vt 0.856603 0.634849
vt 0.948138 0.671344
vt 0.937771 0.681711
vt 0.998796 0.759083
vt 0.984634 0.762878
vt 0.577508 0.290108
vt 0.633968 0.326671
vt 0.541347 0.3709
vt 0.568177 0.390886
vt 0.330345 0.69975
vt 0.373258 0.613017
vt 0.757849 0.549264
vt 0.707712 0.6368
vt 0.642655 0.582047
vt 0.676498 0.519845
vt 0.691984 0.268331
vt 0.748584 0.348386
vt 0.671482 0.383892
vt 0.420489 0.200795
vt 0.516117 0.190067
vt 0.512491 0.273345
vt 0.443076 0.281669
vt 0.629718 0.70242
vt 0.586717 0.62531
vt 0.773446 0.44747
vt 0.685331 0.451041
vt 0.61173 0.212498
vt 0.330345 0.240554
vt 0.376733 0.317632
vt 0.755317 0.156789
vt 0.771536 0.184883
vt 0.771536 0.217322
vt 0.727223 0.14057
vt 0.694784 0.14057
vt 0.666691 0.156789
vt 0.650471 0.184882
vt 0.650471 0.217322
vt 0.666691 0.245415
vt 0.694784 0.261635
vt 0.727223 0.261635
vt 0.755317 0.245415
vt 0.507343 0.552839
vt 0.471468 0.551278
vt 0.43976 0.535157
vt 0.567947 0.519365
vt 0.586369 0.488864
vt 0.586227 0.420079
vt 0.50873 0.364089
vt 0.475454 0.369848
vt 0.54131 0.542823
vt 0.592559 0.454332
vt 0.446439 0.388424
vt 0.229862 0.538548
vt 0.244447 0.57921
vt 0.19991 0.544539
vt 0.204327 0.582433
vt 0.294101 0.247349
vt 0.294101 0.272243
vt 0.274879 0.254601
vt 0.274878 0.26499
vt 0.036431 0.457872
vt 0.056657 0.429055
vt 0.070661 0.449638
vt 0.236989 0.626396
vt 0.203558 0.623872
vt 0.169104 0.546367
vt 0.17124 0.58455
vt 0.277655 0.290933
vt 0.252963 0.2941
vt 0.268016 0.272789
vt 0.257711 0.274111
vt 0.067549 0.474337
vt 0.171674 0.6232
vt 0.14018 0.586505
vt 0.137561 0.54711
vt 0.252963 0.225491
vt 0.277656 0.228659
vt 0.257712 0.24548
vt 0.268016 0.246802
vt 0.048878 0.490804
vt 0.140956 0.622928
vt 0.110682 0.587767
vt 0.107057 0.552038
vt 0.232333 0.280168
vt 0.249102 0.268297
vt 0.023984 0.490804
vt 0.111643 0.622442
vt 0.084138 0.622039
vt 0.082963 0.589541
vt 0.079317 0.556734
vt 0.226049 0.256079
vt 0.24648 0.258244
vt 0.005313 0.474338
vt 0.002201 0.449639
vt 0.058479 0.621914
vt 0.056888 0.591453
vt 0.05375 0.560911
vt 0.237243 0.233844
vt 0.251151 0.248966
vt 0.016204 0.429056
vt 0.031401 0.593425
vt 0.034442 0.622642
vt 0.029804 0.564005
vt 0.04032 0.422881
vt 0.002074 0.595746
vt 0.011978 0.626396
vt 0.006994 0.563865
vt 0.00236 0.07555
vt 0.00236 0.065161
vt 0.042014 0.065161
vt 0.042014 0.07555
vt 0.00236 0.013217
vt 0.00236 0.002828
vt 0.042014 0.002828
vt 0.042014 0.013217
vt 0.00236 0.085938
vt 0.042014 0.085938
vt 0.00236 0.023606
vt 0.042014 0.023606
vt 0.00236 0.033994
vt 0.042014 0.033994
vt 0.00236 0.044383
vt 0.042014 0.044383
vt 0.00236 0.054772
vt 0.042014 0.054772
vt 0.077176 0.038689
vt 0.084522 0.031343
vt 0.081719 0.049653
vt 0.095487 0.035885
vt 0.066788 0.013608
vt 0.059442 0.020954
vt 0.062246 0.002644
vt 0.048478 0.016413
vt 0.066788 0.038689
vt 0.062247 0.049653
vt 0.077177 0.013608
vt 0.081718 0.002644
vt 0.084522 0.020954
vt 0.095487 0.016413
vt 0.059442 0.031343
vt 0.048478 0.035885
vt 0.524468 0.001699
vt 0.54394 0.001699
vt 0.54394 0.158509
vt 0.524468 0.158509
vt 0.563411 0.001699
vt 0.582883 0.001699
vt 0.582883 0.158509
vt 0.563411 0.158509
vt 0.602355 0.001699
vt 0.621827 0.001699
vt 0.621827 0.158509
vt 0.602355 0.158509
vt 0.641299 0.001699
vt 0.660771 0.001699
vt 0.660771 0.158509
vt 0.641299 0.158509
vt 0.504996 0.001699
vt 0.504996 0.158509
usemtl 
f 1/1/1 2/2/1 3/3/1
f 1/1/1 3/3/1 4/4/1
f 5/5/2 6/6/2 7/7/2
f 5/5/2 7/7/2 8/8/2
f 9/9/3 10/10/3 11/11/3
f 9/9/3 11/11/3 6/12/3
f 12/13/4 13/14/4 1/1/4
f 13/14/4 2/2/4 1/1/4
f 8/8/5 7/7/5 14/15/5
f 8/8/5 14/15/5 15/16/5
f 6/12/6 11/11/6 16/17/6
f 6/12/6 16/17/6 7/18/6
f 17/19/7 18/20/7 19/21/7
f 17/19/7 19/21/7 20/22/7
f 15/16/8 14/15/8 21/23/8
f 14/15/8 22/24/8 21/23/8
f 7/18/9 16/17/9 23/25/9
f 7/18/9 23/25/9 14/26/9
f 20/22/10 19/21/10 24/27/10
f 19/21/10 25/28/10 24/27/10
f 21/23/11 22/24/11 26/29/11
f 22/24/11 27/30/11 26/29/11
f 14/26/12 23/25/12 28/31/12
f 14/26/12 28/31/12 22/32/12
f 24/27/13 25/28/13 29/33/13
f 25/28/13 30/34/13 29/33/13
f 26/29/14 27/30/14 31/35/14
f 26/29/14 31/35/14 32/36/14
f 22/32/15 28/31/15 33/37/15
f 22/32/15 33/37/15 27/38/15
f 29/33/16 30/34/16 34/39/16
f 30/34/16 35/40/16 34/39/16
f 32/36/17 31/35/17 36/41/17
f 31/35/17 37/42/17 36/41/17
f 27/38/18 33/37/18 38/43/18
f 27/38/18 38/43/18 31/44/18
f 34/39/19 35/40/19 39/45/19
f 34/39/19 39/45/19 40/46/19
f 36/41/20 37/42/20 41/47/20
f 36/41/20 41/47/20 42/48/20
f 31/44/21 38/43/21 43/49/21
f 31/44/21 43/49/21 37/50/21
f 40/46/22 39/45/22 44/51/22
f 40/46/22 44/51/22 45/52/22
f 42/48/23 41/47/23 46/53/23
f 42/48/23 46/53/23 47/54/23
f 37/50/24 43/49/24 48/55/24
f 37/50/24 48/55/24 41/56/24
f 45/52/25 44/51/25 49/57/25
f 45/52/25 49/57/25 50/58/25
f 47/54/26 46/53/26 51/59/26
f 46/53/26 52/60/26 51/59/26
f 41/56/27 48/55/27 53/61/27
f 41/56/27 53/61/27 46/62/27
f 50/63/28 49/64/28 54/65/28
f 49/64/28 55/66/28 54/65/28
f 51/59/29 52/60/29 56/67/29
f 52/60/29 57/68/29 56/67/29
f 46/62/30 53/61/30 58/69/30
f 46/62/30 58/69/30 52/70/30
f 56/67/31 57/68/31 9/71/31
f 56/67/31 9/71/31 59/72/31
f 52/70/32 58/69/32 60/73/32
f 52/70/32 60/73/32 57/74/32
f 4/4/33 3/3/33 18/20/33
f 4/4/33 18/20/33 17/19/33
f 59/75/34 9/76/34 5/5/34
f 9/76/34 6/6/34 5/5/34
f 57/74/35 60/73/35 10/77/35
f 57/74/35 10/77/35 9/78/35
f 61/79/36 62/80/36 63/81/36
f 62/80/36 64/82/36 63/81/36
f 54/65/37 55/66/37 12/13/37
f 55/66/37 13/14/37 12/13/37
f 49/64/38 59/75/38 55/66/38
f 59/75/38 5/5/38 55/66/38
f 44/51/39 56/67/39 49/57/39
f 56/67/39 59/72/39 49/57/39
f 39/45/40 51/59/40 56/67/40
f 39/45/40 56/67/40 44/51/40
f 35/40/41 47/54/41 51/59/41
f 35/40/41 51/59/41 39/45/41
f 30/34/42 42/48/42 35/40/42
f 42/48/42 47/54/42 35/40/42
f 25/28/43 36/41/43 30/34/43
f 36/41/43 42/48/43 30/34/43
f 19/21/44 32/36/44 36/41/44
f 19/21/44 36/41/44 25/28/44
f 18/20/45 26/29/45 32/36/45
f 18/20/45 32/36/45 19/21/45
f 3/3/46 21/23/46 18/20/46
f 21/23/46 26/29/46 18/20/46
f 2/2/47 15/16/47 21/23/47
f 2/2/47 21/23/47 3/3/47
f 13/14/48 8/8/48 2/2/48
f 8/8/48 15/16/48 2/2/48
f 55/66/49 5/5/49 8/8/49
f 55/66/49 8/8/49 13/14/49
f 50/83/50 54/84/50 65/85/50
f 50/83/50 65/85/50 66/86/50
f 54/84/50 12/87/50 65/85/50
f 12/87/50 67/88/50 65/85/50
f 12/87/50 1/89/50 67/88/50
f 1/89/50 68/90/50 67/88/50
f 1/89/50 4/91/50 69/92/50
f 1/89/50 69/92/50 68/90/50
f 4/91/50 17/93/50 70/94/50
f 4/91/50 70/94/50 69/92/50
f 17/93/50 20/95/50 70/94/50
f 20/95/50 71/96/50 70/94/50
f 20/95/50 24/97/50 72/98/50
f 20/95/50 72/98/50 71/96/50
f 24/97/50 29/99/50 72/98/50
f 29/99/50 73/100/50 72/98/50
f 29/99/50 34/101/50 73/100/50
f 34/101/50 74/102/50 73/100/50
f 34/101/50 40/103/50 61/104/50
f 34/101/50 61/104/50 74/102/50
f 40/103/50 45/105/50 62/106/50
f 40/103/50 62/106/50 61/104/50
f 45/105/50 50/83/50 62/106/50
f 50/83/50 66/86/50 62/106/50
f 75/107/51 76/108/51 77/109/51
f 76/108/51 78/110/51 77/109/51
f 62/80/52 66/111/52 79/112/52
f 62/80/52 79/112/52 64/82/52
f 72/113/53 73/114/53 80/115/53
f 72/113/53 80/115/53 81/116/53
f 69/117/54 70/118/54 76/108/54
f 70/118/54 82/119/54 76/108/54
f 65/120/55 67/121/55 83/122/55
f 65/120/55 83/122/55 84/123/55
f 73/114/56 74/124/56 85/125/56
f 73/114/56 85/125/56 80/115/56
f 70/118/57 71/126/57 86/127/57
f 70/118/57 86/127/57 82/119/57
f 67/121/58 68/128/58 75/107/58
f 67/121/58 75/107/58 83/122/58
f 74/124/59 61/79/59 85/125/59
f 61/79/59 63/81/59 85/125/59
f 66/129/60 65/120/60 79/130/60
f 65/120/60 84/123/60 79/130/60
f 71/126/61 72/113/61 86/127/61
f 72/113/61 81/116/61 86/127/61
f 68/128/62 69/117/62 75/107/62
f 69/117/62 76/108/62 75/107/62
f 87/131/50 88/132/50 89/133/50
f 90/134/50 87/131/50 89/133/50
f 91/135/50 90/134/50 89/133/50
f 92/136/50 91/135/50 89/133/50
f 93/137/50 92/136/50 89/133/50
f 94/138/50 93/137/50 89/133/50
f 95/139/50 94/138/50 89/133/50
f 78/140/50 95/139/50 89/133/50
f 77/141/50 78/140/50 89/133/50
f 96/142/50 77/141/50 89/133/50
f 63/81/63 64/82/63 90/143/63
f 64/82/63 87/144/63 90/143/63
f 64/82/64 79/112/64 88/145/64
f 64/82/64 88/145/64 87/144/64
f 81/116/65 80/115/65 92/146/65
f 81/116/65 92/146/65 93/147/65
f 76/108/66 82/119/66 78/110/66
f 82/119/66 95/148/66 78/110/66
f 84/123/67 83/122/67 96/149/67
f 84/123/67 96/149/67 89/150/67
f 80/115/68 85/125/68 92/146/68
f 85/125/68 91/151/68 92/146/68
f 82/119/69 86/127/69 94/152/69
f 82/119/69 94/152/69 95/148/69
f 83/122/70 75/107/70 77/109/70
f 83/122/70 77/109/70 96/149/70
f 85/125/71 63/81/71 90/143/71
f 85/125/71 90/143/71 91/151/71
f 79/130/72 84/123/72 88/153/72
f 84/123/72 89/150/72 88/153/72
f 86/127/73 81/116/73 94/152/73
f 81/116/73 93/147/73 94/152/73
f 97/154/74 98/155/74 99/156/74
f 98/155/74 100/157/74 99/156/74
f 101/158/75 102/159/75 103/160/75
f 102/159/75 104/161/75 103/160/75
f 105/162/76 97/163/76 99/164/76
f 98/155/77 106/165/77 107/166/77
f 98/155/77 107/166/77 100/157/77
f 99/156/78 100/157/78 108/167/78
f 100/157/78 109/168/78 108/167/78
f 110/169/79 111/170/79 112/171/79
f 111/170/79 113/172/79 112/171/79
f 105/162/80 99/164/80 108/173/80
f 100/157/81 107/166/81 114/174/81
f 100/157/81 114/174/81 109/168/81
f 108/167/82 109/168/82 115/175/82
f 108/167/82 115/175/82 116/176/82
f 106/177/83 117/178/83 118/179/83
f 117/178/83 119/180/83 118/179/83
f 105/162/84 108/173/84 116/181/84
f 109/168/85 114/174/85 115/175/85
f 114/174/85 111/182/85 115/175/85
f 116/176/86 115/175/86 120/183/86
f 116/176/86 120/183/86 121/184/86
f 111/170/87 114/185/87 122/186/87
f 111/170/87 122/186/87 113/172/87
f 105/162/88 116/181/88 121/187/88
f 115/175/89 111/182/89 120/183/89
f 111/182/89 110/188/89 120/183/89
f 120/183/90 110/188/90 102/189/90
f 120/183/90 102/189/90 123/190/90
f 121/184/91 120/183/91 124/191/91
f 120/183/91 123/190/91 124/191/91
f 114/185/92 107/192/92 122/186/92
f 107/192/92 125/193/92 122/186/92
f 105/162/93 121/187/93 124/194/93
f 105/162/94 124/194/94 126/195/94
f 123/190/95 102/189/95 101/196/95
f 123/190/95 101/196/95 127/197/95
f 124/191/96 123/190/96 126/198/96
f 123/190/96 127/197/96 126/198/96
f 107/192/97 106/199/97 118/200/97
f 107/192/97 118/200/97 125/193/97
f 105/162/98 126/195/98 128/201/98
f 127/197/99 101/196/99 129/202/99
f 101/196/99 117/203/99 129/202/99
f 126/198/100 127/197/100 129/202/100
f 126/198/100 129/202/100 128/204/100
f 117/178/101 101/158/101 103/160/101
f 117/178/101 103/160/101 119/180/101
f 105/162/102 128/201/102 97/205/102
f 129/202/103 117/203/103 98/206/103
f 117/203/103 106/207/103 98/206/103
f 128/204/104 129/202/104 98/206/104
f 128/204/104 98/206/104 97/208/104
f 102/159/105 110/169/105 112/171/105
f 102/159/105 112/171/105 104/161/105
f 119/209/106 103/210/106 130/211/106
f 119/209/106 130/211/106 131/212/106
f 125/213/107 118/214/107 132/215/107
f 125/213/107 132/215/107 133/216/107
f 118/217/108 119/209/108 131/212/108
f 118/217/108 131/212/108 132/218/108
f 122/219/109 125/213/109 133/216/109
f 122/219/109 133/216/109 134/220/109
f 113/221/110 122/219/110 134/220/110
f 113/221/110 134/220/110 135/222/110
f 112/223/111 113/221/111 135/222/111
f 112/223/111 135/222/111 136/224/111
f 104/225/112 112/223/112 136/224/112
f 104/225/112 136/224/112 137/226/112
f 103/210/113 104/225/113 137/226/113
f 103/210/113 137/226/113 130/211/113
f 135/227/50 134/228/50 138/229/50
f 134/228/50 139/230/50 138/229/50
f 131/231/50 130/232/50 140/233/50
f 130/232/50 141/234/50 140/233/50
f 136/235/50 135/227/50 138/229/50
f 136/235/50 138/229/50 142/236/50
f 132/237/50 131/231/50 143/238/50
f 131/231/50 140/233/50 143/238/50
f 134/228/50 133/239/50 144/240/50
f 134/228/50 144/240/50 139/230/50
f 130/232/50 137/241/50 145/242/50
f 130/232/50 145/242/50 141/234/50
f 133/239/50 132/237/50 144/240/50
f 132/237/50 143/238/50 144/240/50
f 137/241/50 136/235/50 142/236/50
f 137/241/50 142/236/50 145/242/50
f 140/243/106 141/244/106 146/245/106
f 140/243/106 146/245/106 147/246/106
f 145/247/112 142/248/112 148/249/112
f 145/247/112 148/249/112 149/250/112
f 138/251/110 139/252/110 150/253/110
f 138/251/110 150/253/110 151/254/110
f 144/255/107 143/256/107 152/257/107
f 144/255/107 152/257/107 153/258/107
f 143/259/108 140/243/108 147/246/108
f 143/259/108 147/246/108 152/260/108
f 141/244/113 145/247/113 149/250/113
f 141/244/113 149/250/113 146/245/113
f 142/248/111 138/251/111 151/254/111
f 142/248/111 151/254/111 148/249/111
f 139/252/109 144/255/109 153/258/109
f 139/252/109 153/258/109 150/253/109
s off
