# Blender 5.0.1
# www.blender.org
mtllib Light Big.mtl
o Light_Big
v 15.025000 9.860001 -0.043301
v 15.000000 9.860001 -0.050000
v 14.999999 9.700008 -0.246786
v 15.000000 10.500000 -0.050000
v 15.123393 9.700008 -0.213723
v 15.025000 10.500000 -0.043301
v 15.213722 9.700008 -0.123393
v 15.043302 10.500000 -0.025000
v 15.246785 9.700008 -0.000000
v 15.050000 10.500000 0.000000
v 15.213722 9.700008 0.123393
v 15.043302 10.500000 0.025000
v 15.123393 9.700008 0.213723
v 15.025000 10.500000 0.043301
v 14.999999 9.700008 0.246786
v 15.000000 10.500000 0.050000
v 14.876606 9.700008 0.213723
v 14.975000 10.500000 0.043301
v 14.786276 9.700008 0.123393
v 14.956698 10.500000 0.025000
v 14.753213 9.700008 -0.000000
v 14.950000 10.500000 0.000000
v 14.786276 9.700008 -0.123393
v 14.956698 10.500000 -0.025000
v 14.876606 9.700008 -0.213723
v 14.975000 10.500000 -0.043301
v 15.043302 9.860001 -0.025000
v 15.050000 9.860001 0.000000
v 15.043302 9.860001 0.025000
v 15.025000 9.860001 0.043301
v 15.000000 9.860001 0.050000
v 14.975000 9.860001 0.043301
v 14.956698 9.860001 0.025000
v 14.950000 9.860001 0.000000
v 14.956698 9.860001 -0.025000
v 14.975000 9.860001 -0.043301
v 15.103642 9.800005 -0.179512
v 15.179512 9.800005 -0.103641
v 15.207282 9.800005 -0.000000
v 15.179512 9.800005 0.103641
v 15.103642 9.800005 0.179512
v 14.999999 9.800005 0.207283
v 14.896358 9.800005 0.179512
v 14.820487 9.800005 0.103641
v 14.792717 9.800005 -0.000000
v 14.820487 9.800005 -0.103641
v 14.999999 9.800005 -0.207283
v 14.896358 9.800005 -0.179512
v 15.000000 9.850000 -0.102571
v 15.051285 9.850000 -0.088829
v 15.088829 9.850000 -0.051285
v 15.102571 9.850000 -0.000000
v 15.088829 9.850000 0.051285
v 15.051285 9.850000 0.088829
v 15.000000 9.850000 0.102571
v 14.948714 9.850000 0.088829
v 14.911171 9.850000 0.051285
v 14.897429 9.850000 -0.000000
v 14.911171 9.850000 -0.051285
v 14.948714 9.850000 -0.088829
v 14.999999 9.700008 -0.228300
v 15.114150 9.700008 -0.197714
v 15.197713 9.700008 -0.114150
v 15.228299 9.700008 -0.000000
v 15.197713 9.700008 0.114150
v 15.114150 9.700008 0.197714
v 14.999999 9.700008 0.228300
v 14.885849 9.700008 0.197714
v 14.802285 9.700008 0.114150
v 14.771700 9.700008 -0.000000
v 14.802285 9.700008 -0.114150
v 14.885849 9.700008 -0.197714
v 14.999999 9.800009 -0.185620
v 15.092810 9.800009 -0.160751
v 14.907189 9.800009 -0.160751
v 15.160750 9.800009 -0.092810
v 15.185619 9.800009 -0.000000
v 15.160750 9.800009 0.092810
v 15.092810 9.800009 0.160751
v 14.999999 9.800009 0.185620
v 14.907189 9.800009 0.160751
v 14.839248 9.800009 0.092810
v 14.814380 9.800009 -0.000000
v 14.839248 9.800009 -0.092810
v 15.000000 9.850008 -0.079018
v 15.039509 9.850008 -0.068431
v 14.960491 9.850008 -0.068431
v 15.068431 9.850008 -0.039509
v 15.079018 9.850008 -0.000000
v 15.068431 9.850008 0.039509
v 15.039509 9.850008 0.068431
v 15.000000 9.850008 0.079018
v 14.960491 9.850008 0.068431
v 14.931568 9.850008 0.039509
v 14.920982 9.850008 -0.000000
v 14.931568 9.850008 -0.039509
v 14.999999 9.611023 -0.017115
v 14.999999 9.601023 -0.041012
v 14.999999 9.560011 -0.058000
v 14.999999 9.518998 -0.041012
v 14.999999 9.502010 -0.000000
v 14.987897 9.661022 0.012102
v 15.028999 9.601023 -0.029000
v 15.041012 9.560011 -0.041012
v 15.028999 9.518998 -0.029000
v 14.982883 9.661022 -0.000000
v 14.987897 9.661022 -0.012102
v 15.041012 9.601023 -0.000000
v 15.057999 9.560011 -0.000000
v 15.041012 9.518998 -0.000000
v 14.999999 9.661022 -0.017115
v 14.987897 9.611023 -0.012102
v 15.028999 9.601023 0.029000
v 15.041012 9.560011 0.041012
v 15.028999 9.518998 0.029000
v 14.982883 9.611023 -0.000000
v 14.987897 9.611023 0.012102
v 14.999999 9.601023 0.041012
v 14.999999 9.560011 0.058000
v 14.999999 9.518998 0.041012
v 14.999999 9.611023 0.017115
v 15.012100 9.611023 0.012102
v 14.970999 9.601023 0.029000
v 14.958986 9.560011 0.041012
v 14.970999 9.518998 0.029000
v 15.017114 9.611023 -0.000000
v 15.012100 9.611023 -0.012102
v 14.958986 9.601023 -0.000000
v 14.941999 9.560011 -0.000000
v 14.958986 9.518998 -0.000000
v 14.970999 9.601023 -0.029000
v 14.958986 9.560011 -0.041012
v 14.970999 9.518998 -0.029000
v 14.999999 9.661022 0.017115
v 15.012100 9.661022 0.012102
v 15.017114 9.661022 -0.000000
v 15.012100 9.661022 -0.012102
v 14.977316 9.661022 0.022683
v 14.967920 9.661022 -0.000000
v 14.977316 9.661022 -0.022683
v 14.999999 9.661022 -0.032079
v 14.999999 9.661022 0.032079
v 15.022682 9.661022 0.022683
v 15.032078 9.661022 -0.000000
v 15.022682 9.661022 -0.022683
v 14.977316 9.858744 0.022683
v 14.967920 9.858744 -0.000000
v 14.977316 9.858744 -0.022683
v 14.999999 9.858744 -0.032079
v 14.999999 9.858744 0.032079
v 15.022682 9.858744 0.022683
v 15.032078 9.858744 -0.000000
v 15.022682 9.858744 -0.022683
vn 0.9025 0.3565 0.2418
vn 0.1366 0.9812 -0.1366
vn 0.2588 -0.0000 -0.9659
vn 0.9025 0.3565 -0.2418
vn 0.1866 0.9812 -0.0500
vn 0.7071 -0.0000 -0.7071
vn 0.2418 0.3565 0.9025
vn 0.1866 0.9812 0.0500
vn 0.9659 -0.0000 -0.2588
vn -0.2418 0.3565 0.9025
vn 0.1366 0.9812 0.1366
vn 0.9659 -0.0000 0.2588
vn -0.6606 0.3565 0.6606
vn 0.0500 0.9812 0.1866
vn 0.7071 -0.0000 0.7071
vn -0.9025 0.3565 0.2418
vn -0.0500 0.9812 0.1866
vn 0.2588 -0.0000 0.9659
vn -0.9025 0.3565 -0.2418
vn -0.1366 0.9812 0.1366
vn -0.2588 -0.0000 0.9659
vn -0.6606 0.3565 -0.6606
vn -0.1866 0.9812 0.0500
vn -0.7071 -0.0000 0.7071
vn -0.2418 0.3565 -0.9025
vn -0.1866 0.9812 -0.0500
vn -0.9659 -0.0000 0.2588
vn 0.2418 0.3565 -0.9025
vn -0.1366 0.9812 -0.1366
vn -0.9659 -0.0000 -0.2588
vn -0.0500 0.9812 -0.1866
vn -0.7071 -0.0000 -0.7071
vn 0.6606 0.3565 0.6606
vn 0.0500 0.9812 -0.1866
vn -0.2588 -0.0000 -0.9659
vn 0.6537 -0.3811 0.6537
vn 0.6606 0.3565 -0.6606
vn 0.1147 0.8965 -0.4280
vn -0.1147 0.8965 -0.4280
vn -0.3133 0.8965 -0.3133
vn -0.4280 0.8965 -0.1147
vn -0.4280 0.8965 0.1147
vn -0.3133 0.8965 0.3133
vn -0.1147 0.8965 0.4280
vn 0.1147 0.8965 0.4280
vn 0.3133 0.8965 0.3133
vn 0.4280 0.8965 0.1147
vn 0.4280 0.8965 -0.1147
vn 0.3133 0.8965 -0.3133
vn -0.0000 -1.0000 -0.0000
vn -0.4219 -0.8996 -0.1131
vn 0.2393 -0.3811 0.8930
vn 0.6537 -0.3811 -0.6537
vn -0.6537 -0.3811 -0.6537
vn -0.6537 -0.3811 0.6537
vn 0.8930 -0.3811 -0.2393
vn -0.2393 -0.3811 -0.8930
vn -0.8930 -0.3811 0.2393
vn 0.8930 -0.3811 0.2393
vn -0.2393 -0.3811 0.8930
vn 0.2393 -0.3811 -0.8930
vn -0.8930 -0.3811 -0.2393
vn 0.3089 -0.8996 0.3089
vn 0.1131 -0.8996 0.4219
vn 0.3089 -0.8996 -0.3089
vn -0.3089 -0.8996 -0.3089
vn -0.3089 -0.8996 0.3089
vn 0.4219 -0.8996 -0.1130
vn -0.1131 -0.8996 -0.4219
vn -0.4219 -0.8996 0.1131
vn 0.4219 -0.8996 0.1130
vn -0.1131 -0.8996 0.4219
vn 0.1131 -0.8996 -0.4219
vn 0.3574 -0.3574 -0.8629
vn -0.3812 0.9109 0.1579
vn 0.1565 -0.9125 -0.3780
vn 0.3574 0.3574 -0.8629
vn 0.8629 -0.3574 -0.3574
vn 0.1579 0.9109 0.3812
vn 0.3780 -0.9125 -0.1566
vn 0.8629 0.3574 -0.3574
vn 0.8629 -0.3574 0.3574
vn -0.1579 0.9109 -0.3812
vn 0.3780 -0.9125 0.1566
vn 0.8629 0.3574 0.3574
vn 0.3574 -0.3574 0.8629
vn 0.3812 0.9109 0.1579
vn 0.1566 -0.9125 0.3780
vn 0.3574 0.3574 0.8629
vn -0.3574 0.3574 0.8629
vn -0.3574 -0.3574 0.8629
vn 0.3812 0.9109 -0.1579
vn -0.1566 -0.9125 0.3780
vn -0.3780 -0.9125 0.1566
vn -0.8629 0.3574 0.3574
vn -0.8629 -0.3574 0.3574
vn 0.1579 0.9109 -0.3812
vn -0.3780 -0.9125 -0.1566
vn -0.8629 0.3574 -0.3574
vn -0.8629 -0.3574 -0.3574
vn -0.3812 0.9109 -0.1579
vn -0.1565 -0.9125 -0.3780
vn -0.3574 0.3574 -0.8629
vn -0.3574 -0.3574 -0.8629
vn -0.1579 0.9109 0.3812
vn -0.9239 -0.0000 -0.3827
vn 0.3827 -0.0000 -0.9239
vn -0.3827 -0.0000 -0.9239
vn 0.9239 -0.0000 -0.3827
vn 0.9239 -0.0000 0.3827
vn 0.3827 -0.0000 0.9239
vn -0.3827 -0.0000 0.9239
vn -0.9239 -0.0000 0.3827
vt 0.196625 0.011771
vt 0.221759 0.094618
vt 0.154175 0.128456
vt 0.101134 0.065078
vt 0.326849 0.186825
vt 0.301146 0.225012
vt 0.280258 0.216475
vt 0.286767 0.172080
vt 0.002325 0.739108
vt 0.509901 0.739108
vt 0.509901 0.759634
vt 0.002325 0.759634
vt 0.306095 0.001661
vt 0.297053 0.085798
vt 0.257950 0.217482
vt 0.245525 0.174870
vt 0.509901 0.780161
vt 0.002325 0.780161
vt 0.032563 0.149455
vt 0.108140 0.189056
vt 0.091025 0.262541
vt 0.002008 0.258689
vt 0.238181 0.227535
vt 0.209660 0.194045
vt 0.509901 0.800688
vt 0.002325 0.800688
vt 0.102018 0.337803
vt 0.022248 0.370993
vt 0.224236 0.244747
vt 0.184837 0.225998
vt 0.509901 0.821214
vt 0.002325 0.821214
vt 0.143336 0.403544
vt 0.083870 0.463195
vt 0.219772 0.266659
vt 0.175381 0.265393
vt 0.509901 0.841741
vt 0.002325 0.841741
vt 0.209935 0.443849
vt 0.176920 0.526072
vt 0.224523 0.288833
vt 0.182673 0.305723
vt 0.509901 0.862268
vt 0.002325 0.862268
vt 0.286960 0.460033
vt 0.287389 0.546187
vt 0.237940 0.307501
vt 0.205971 0.340258
vt 0.509901 0.882794
vt 0.002325 0.882794
vt 0.366693 0.439982
vt 0.398823 0.525424
vt 0.256915 0.320464
vt 0.241132 0.362880
vt 0.509901 0.903321
vt 0.002325 0.903321
vt 0.440488 0.387867
vt 0.500353 0.466291
vt 0.279663 0.323091
vt 0.283148 0.368944
vt 0.509901 0.923848
vt 0.002325 0.923848
vt 0.500353 0.091162
vt 0.440692 0.160889
vt 0.373260 0.107628
vt 0.409216 0.030658
vt 0.301878 0.316836
vt 0.325067 0.356939
vt 0.509901 0.944374
vt 0.002325 0.944374
vt 0.318700 0.301131
vt 0.358947 0.326512
vt 0.509901 0.964901
vt 0.002325 0.964901
vt 0.358851 0.219376
vt 0.316442 0.242088
vt 0.509901 0.985428
vt 0.002325 0.985428
vt 0.533083 0.735251
vt 0.430370 0.734252
vt 0.446037 0.644971
vt 0.519578 0.649742
vt 0.998796 0.860398
vt 0.948139 0.948139
vt 0.937772 0.937772
vt 0.984634 0.856603
vt 0.860399 0.998796
vt 0.856604 0.984634
vt 0.759085 0.998796
vt 0.762880 0.984634
vt 0.671344 0.948139
vt 0.681711 0.937772
vt 0.620687 0.860399
vt 0.634849 0.856605
vt 0.620687 0.759085
vt 0.634849 0.762879
vt 0.671344 0.671344
vt 0.681711 0.681711
vt 0.759084 0.620687
vt 0.762879 0.634849
vt 0.860398 0.620687
vt 0.856603 0.634849
vt 0.948138 0.671344
vt 0.937771 0.681711
vt 0.998796 0.759083
vt 0.984634 0.762878
vt 0.577508 0.290108
vt 0.633968 0.326671
vt 0.568177 0.390886
vt 0.541347 0.370900
vt 0.330345 0.699750
vt 0.373258 0.613017
vt 0.757849 0.549264
vt 0.707712 0.636800
vt 0.642655 0.582047
vt 0.676498 0.519845
vt 0.691984 0.268331
vt 0.748584 0.348386
vt 0.671482 0.383892
vt 0.420489 0.200795
vt 0.516117 0.190067
vt 0.512491 0.273345
vt 0.443076 0.281669
vt 0.629718 0.702420
vt 0.586717 0.625310
vt 0.773446 0.447470
vt 0.685331 0.451041
vt 0.611730 0.212498
vt 0.330345 0.240554
vt 0.376733 0.317632
vt 0.771536 0.184883
vt 0.771536 0.217322
vt 0.755317 0.245415
vt 0.727223 0.261635
vt 0.694784 0.261635
vt 0.666691 0.245415
vt 0.650471 0.217322
vt 0.650471 0.184882
vt 0.666691 0.156789
vt 0.694784 0.140570
vt 0.727223 0.140570
vt 0.755317 0.156789
vt 0.471468 0.551278
vt 0.507343 0.552839
vt 0.439760 0.535157
vt 0.567947 0.519365
vt 0.586369 0.488864
vt 0.586227 0.420079
vt 0.508730 0.364089
vt 0.475454 0.369848
vt 0.541310 0.542823
vt 0.592559 0.454332
vt 0.446439 0.388424
vt 0.229862 0.538548
vt 0.244447 0.579210
vt 0.204327 0.582433
vt 0.199910 0.544539
vt 0.294101 0.247349
vt 0.294101 0.272243
vt 0.274878 0.264990
vt 0.274879 0.254601
vt 0.036431 0.457872
vt 0.056657 0.429055
vt 0.070661 0.449638
vt 0.236989 0.626396
vt 0.203558 0.623872
vt 0.171240 0.584550
vt 0.169104 0.546367
vt 0.277655 0.290933
vt 0.252963 0.294100
vt 0.257711 0.274111
vt 0.268016 0.272789
vt 0.067549 0.474337
vt 0.171674 0.623200
vt 0.140180 0.586505
vt 0.137561 0.547110
vt 0.252963 0.225491
vt 0.277656 0.228659
vt 0.268016 0.246802
vt 0.257712 0.245480
vt 0.048878 0.490804
vt 0.140956 0.622928
vt 0.110682 0.587767
vt 0.107057 0.552038
vt 0.232333 0.280168
vt 0.249102 0.268297
vt 0.023984 0.490804
vt 0.111643 0.622442
vt 0.084138 0.622039
vt 0.082963 0.589541
vt 0.079317 0.556734
vt 0.226049 0.256079
vt 0.246480 0.258244
vt 0.005313 0.474338
vt 0.002201 0.449639
vt 0.058479 0.621914
vt 0.056888 0.591453
vt 0.053750 0.560911
vt 0.237243 0.233844
vt 0.251151 0.248966
vt 0.016204 0.429056
vt 0.034442 0.622642
vt 0.031401 0.593425
vt 0.029804 0.564005
vt 0.040320 0.422881
vt 0.011978 0.626396
vt 0.002074 0.595746
vt 0.006994 0.563865
vt 0.002360 0.075550
vt 0.002360 0.065161
vt 0.042014 0.065161
vt 0.042014 0.075550
vt 0.002360 0.013217
vt 0.002360 0.002828
vt 0.042014 0.002828
vt 0.042014 0.013217
vt 0.002360 0.085938
vt 0.042014 0.085938
vt 0.002360 0.023606
vt 0.042014 0.023606
vt 0.002360 0.033994
vt 0.042014 0.033994
vt 0.002360 0.044383
vt 0.042014 0.044383
vt 0.002360 0.054772
vt 0.042014 0.054772
vt 0.077176 0.038689
vt 0.084522 0.031343
vt 0.095487 0.035885
vt 0.081719 0.049653
vt 0.066788 0.013608
vt 0.059442 0.020954
vt 0.048478 0.016413
vt 0.062246 0.002644
vt 0.066788 0.038689
vt 0.062247 0.049653
vt 0.077177 0.013608
vt 0.081718 0.002644
vt 0.084522 0.020954
vt 0.095487 0.016413
vt 0.059442 0.031343
vt 0.048478 0.035885
vt 0.524468 0.001699
vt 0.543940 0.001699
vt 0.543940 0.158509
vt 0.524468 0.158509
vt 0.563411 0.001699
vt 0.582883 0.001699
vt 0.582883 0.158509
vt 0.563411 0.158509
vt 0.602355 0.001699
vt 0.621827 0.001699
vt 0.621827 0.158509
vt 0.602355 0.158509
vt 0.641299 0.001699
vt 0.660771 0.001699
vt 0.660771 0.158509
vt 0.641299 0.158509
vt 0.504996 0.001699
vt 0.504996 0.158509
s 0
f 9/1/1 39/2/1 40/3/1 11/4/1
f 50/5/2 1/6/2 27/7/2 51/8/2
f 2/9/3 4/10/3 6/11/3 1/12/3
f 7/13/4 38/14/4 39/2/4 9/1/4
f 51/8/5 27/7/5 28/15/5 52/16/5
f 1/12/6 6/11/6 8/17/6 27/18/6
f 13/19/7 41/20/7 42/21/7 15/22/7
f 52/16/8 28/15/8 29/23/8 53/24/8
f 27/18/9 8/17/9 10/25/9 28/26/9
f 15/22/10 42/21/10 43/27/10 17/28/10
f 53/24/11 29/23/11 30/29/11 54/30/11
f 28/26/12 10/25/12 12/31/12 29/32/12
f 17/28/13 43/27/13 44/33/13 19/34/13
f 54/30/14 30/29/14 31/35/14 55/36/14
f 29/32/15 12/31/15 14/37/15 30/38/15
f 19/34/16 44/33/16 45/39/16 21/40/16
f 55/36/17 31/35/17 32/41/17 56/42/17
f 30/38/18 14/37/18 16/43/18 31/44/18
f 21/40/19 45/39/19 46/45/19 23/46/19
f 56/42/20 32/41/20 33/47/20 57/48/20
f 31/44/21 16/43/21 18/49/21 32/50/21
f 23/46/22 46/45/22 48/51/22 25/52/22
f 57/48/23 33/47/23 34/53/23 58/54/23
f 32/50/24 18/49/24 20/55/24 33/56/24
f 25/52/25 48/51/25 47/57/25 3/58/25
f 58/54/26 34/53/26 35/59/26 59/60/26
f 33/56/27 20/55/27 22/61/27 34/62/27
f 3/63/28 47/64/28 37/65/28 5/66/28
f 59/60/29 35/59/29 36/67/29 60/68/29
f 34/62/30 22/61/30 24/69/30 35/70/30
f 60/68/31 36/67/31 2/71/31 49/72/31
f 35/70/32 24/69/32 26/73/32 36/74/32
f 11/4/33 40/3/33 41/20/33 13/19/33
f 49/75/34 2/76/34 1/6/34 50/5/34
f 36/74/35 26/73/35 4/77/35 2/78/35
f 71/79/36 72/80/36 75/81/36 84/82/36
f 5/66/37 37/65/37 38/14/37 7/13/37
f 47/64/38 49/75/38 50/5/38 37/65/38
f 48/51/39 60/68/39 49/72/39 47/57/39
f 46/45/40 59/60/40 60/68/40 48/51/40
f 45/39/41 58/54/41 59/60/41 46/45/41
f 44/33/42 57/48/42 58/54/42 45/39/42
f 43/27/43 56/42/43 57/48/43 44/33/43
f 42/21/44 55/36/44 56/42/44 43/27/44
f 41/20/45 54/30/45 55/36/45 42/21/45
f 40/3/46 53/24/46 54/30/46 41/20/46
f 39/2/47 52/16/47 53/24/47 40/3/47
f 38/14/48 51/8/48 52/16/48 39/2/48
f 37/65/49 50/5/49 51/8/49 38/14/49
f 3/83/50 5/84/50 62/85/50 61/86/50
f 5/84/50 7/87/50 63/88/50 62/85/50
f 7/87/50 9/89/50 64/90/50 63/88/50
f 9/89/50 11/91/50 65/92/50 64/90/50
f 11/91/50 13/93/50 66/94/50 65/92/50
f 13/93/50 15/95/50 67/96/50 66/94/50
f 15/95/50 17/97/50 68/98/50 67/96/50
f 17/97/50 19/99/50 69/100/50 68/98/50
f 19/99/50 21/101/50 70/102/50 69/100/50
f 21/101/50 23/103/50 71/104/50 70/102/50
f 23/103/50 25/105/50 72/106/50 71/104/50
f 25/105/50 3/83/50 61/86/50 72/106/50
f 77/107/51 78/108/51 90/109/51 89/110/51
f 72/80/52 61/111/52 73/112/52 75/81/52
f 68/113/53 69/114/53 82/115/53 81/116/53
f 65/117/54 66/118/54 79/119/54 78/108/54
f 62/120/55 63/121/55 76/122/55 74/123/55
f 69/114/56 70/124/56 83/125/56 82/115/56
f 66/118/57 67/126/57 80/127/57 79/119/57
f 63/121/58 64/128/58 77/107/58 76/122/58
f 70/124/59 71/79/59 84/82/59 83/125/59
f 61/129/60 62/120/60 74/123/60 73/130/60
f 67/126/61 68/113/61 81/116/61 80/127/61
f 64/128/62 65/117/62 78/108/62 77/107/62
f 85/131/50 86/132/50 88/133/50 89/134/50 90/135/50 91/136/50 92/137/50 93/138/50 94/139/50 95/140/50 96/141/50 87/142/50
f 84/82/63 75/81/63 87/143/63 96/144/63
f 75/81/64 73/112/64 85/145/64 87/143/64
f 81/116/65 82/115/65 94/146/65 93/147/65
f 78/108/66 79/119/66 91/148/66 90/109/66
f 74/123/67 76/122/67 88/149/67 86/150/67
f 82/115/68 83/125/68 95/151/68 94/146/68
f 79/119/69 80/127/69 92/152/69 91/148/69
f 76/122/70 77/107/70 89/110/70 88/149/70
f 83/125/71 84/82/71 96/144/71 95/151/71
f 73/130/72 74/123/72 86/150/72 85/153/72
f 80/127/73 81/116/73 93/147/73 92/152/73
f 100/154/74 99/155/74 104/156/74 105/157/74
f 128/158/75 123/159/75 117/160/75 116/161/75
f 101/162/76 100/163/76 105/164/76
f 99/155/77 98/165/77 103/166/77 104/156/77
f 105/157/78 104/156/78 109/167/78 110/168/78
f 118/169/79 113/170/79 122/171/79 121/172/79
f 101/162/80 105/164/80 110/173/80
f 104/156/81 103/166/81 108/174/81 109/167/81
f 110/168/82 109/167/82 114/175/82 115/176/82
f 98/177/83 131/178/83 112/179/83 97/180/83
f 101/162/84 110/173/84 115/181/84
f 109/167/85 108/174/85 113/182/85 114/175/85
f 115/176/86 114/175/86 119/183/86 120/184/86
f 113/170/87 108/185/87 126/186/87 122/171/87
f 101/162/88 115/181/88 120/187/88
f 114/175/89 113/182/89 118/188/89 119/183/89
f 119/183/90 118/188/90 123/189/90 124/190/90
f 120/184/91 119/183/91 124/190/91 125/191/91
f 108/185/92 103/192/92 127/193/92 126/186/92
f 101/162/93 120/187/93 125/194/93
f 101/162/94 125/194/94 130/195/94
f 124/190/95 123/189/95 128/196/95 129/197/95
f 125/191/96 124/190/96 129/197/96 130/198/96
f 103/192/97 98/199/97 97/200/97 127/193/97
f 101/162/98 130/195/98 133/201/98
f 129/197/99 128/196/99 131/202/99 132/203/99
f 130/198/100 129/197/100 132/203/100 133/204/100
f 131/178/101 128/158/101 116/161/101 112/179/101
f 101/162/102 133/201/102 100/205/102
f 132/203/103 131/202/103 98/206/103 99/207/103
f 133/204/104 132/203/104 99/207/104 100/208/104
f 123/159/105 118/169/105 121/172/105 117/160/105
f 112/209/106 116/210/106 106/211/106 107/212/106
f 127/213/107 97/214/107 111/215/107 137/216/107
f 97/217/108 112/209/108 107/212/108 111/218/108
f 126/219/109 127/213/109 137/216/109 136/220/109
f 122/221/110 126/219/110 136/220/110 135/222/110
f 121/223/111 122/221/111 135/222/111 134/224/111
f 117/225/112 121/223/112 134/224/112 102/226/112
f 116/210/113 117/225/113 102/226/113 106/211/113
f 135/227/50 136/228/50 144/229/50 143/230/50
f 107/231/50 106/232/50 139/233/50 140/234/50
f 134/235/50 135/227/50 143/230/50 142/236/50
f 111/237/50 107/231/50 140/234/50 141/238/50
f 136/228/50 137/239/50 145/240/50 144/229/50
f 106/232/50 102/241/50 138/242/50 139/233/50
f 137/239/50 111/237/50 141/238/50 145/240/50
f 102/241/50 134/235/50 142/236/50 138/242/50
f 140/243/106 139/244/106 147/245/106 148/246/106
f 138/247/112 142/248/112 150/249/112 146/250/112
f 143/251/110 144/252/110 152/253/110 151/254/110
f 145/255/107 141/256/107 149/257/107 153/258/107
f 141/259/108 140/243/108 148/246/108 149/260/108
f 139/244/113 138/247/113 146/250/113 147/245/113
f 142/248/111 143/251/111 151/254/111 150/249/111
f 144/252/109 145/255/109 153/258/109 152/253/109
