# Blender 5.0.1
# www.blender.org
mtllib Light Nightstand.mtl
o Light_Small
v 16.387897 7.497500 -0.413831
v 16.387897 7.547500 -0.413831
v 16.387897 7.497500 -0.443831
v 16.387897 7.547500 -0.443831
v 16.417898 7.497500 -0.413831
v 16.417898 7.547500 -0.413831
v 16.417898 7.497500 -0.443831
v 16.417898 7.547500 -0.443831
v 16.387897 7.577500 -0.413831
v 16.387897 7.577500 -0.443831
v 16.417898 7.577500 -0.413831
v 16.417898 7.577500 -0.443831
v 16.387897 7.797500 -0.413831
v 16.387897 7.797500 -0.443831
v 16.417898 7.797500 -0.413831
v 16.417898 7.797500 -0.443831
v 16.382898 7.585366 -0.448831
v 16.382898 7.785030 -0.448831
v 16.392899 7.585366 -0.438831
v 16.392899 7.785030 -0.438831
v 16.462898 7.648709 -0.368831
v 16.462898 7.641255 -0.386827
v 16.462898 7.623259 -0.394281
v 16.462898 7.605263 -0.386827
v 16.462898 7.587711 -0.380050
v 16.462898 7.587712 -0.375856
v 16.412899 7.557500 -0.363831
v 16.467897 7.567500 -0.318831
v 16.455873 7.587712 -0.368831
v 16.457932 7.587712 -0.373799
v 16.444902 7.641255 -0.368831
v 16.437449 7.623259 -0.368831
v 16.444902 7.605263 -0.368831
v 16.457932 7.600875 -0.373799
v 16.450172 7.641255 -0.381556
v 16.444902 7.623259 -0.386827
v 16.450172 7.605263 -0.381556
v 16.455873 7.600875 -0.368831
v 16.462898 7.600875 -0.375856
v 16.451679 7.587711 -0.368831
v 16.454966 7.587711 -0.376764
v 16.412899 7.567500 -0.373831
v 16.462898 7.561384 -0.380050
v 16.412899 7.557500 -0.373831
v 16.451679 7.561384 -0.368831
v 16.454966 7.561384 -0.376764
v 16.412899 7.567500 -0.363831
v 16.537899 7.497500 -0.413831
v 16.537899 7.547500 -0.413831
v 16.537899 7.497500 -0.443831
v 16.537899 7.547500 -0.443831
v 16.507898 7.497500 -0.413831
v 16.507898 7.547500 -0.413831
v 16.507898 7.497500 -0.443831
v 16.507898 7.547500 -0.443831
v 16.537899 7.577500 -0.413831
v 16.537899 7.577500 -0.443831
v 16.507898 7.577500 -0.413831
v 16.507898 7.577500 -0.443831
v 16.537899 7.797500 -0.413831
v 16.537899 7.797500 -0.443831
v 16.507898 7.797500 -0.413831
v 16.507898 7.797500 -0.443831
v 16.542898 7.585366 -0.448831
v 16.542898 7.785030 -0.448831
v 16.532898 7.585366 -0.438831
v 16.532898 7.785030 -0.438831
v 16.512897 7.557500 -0.363831
v 16.457899 7.567500 -0.318831
v 16.467897 7.557500 -0.318831
v 16.469923 7.587712 -0.368831
v 16.467865 7.587712 -0.373799
v 16.480894 7.641255 -0.368831
v 16.488348 7.623259 -0.368831
v 16.480894 7.605263 -0.368831
v 16.467865 7.600875 -0.373799
v 16.475624 7.641255 -0.381556
v 16.480894 7.623259 -0.386827
v 16.475624 7.605263 -0.381556
v 16.469923 7.600875 -0.368831
v 16.457899 7.557500 -0.318831
v 16.474117 7.587711 -0.368831
v 16.470831 7.587711 -0.376764
v 16.512897 7.567500 -0.373831
v 16.512897 7.557500 -0.373831
v 16.474117 7.561384 -0.368831
v 16.470831 7.561384 -0.376764
v 16.512897 7.567500 -0.363831
v 16.387897 7.497500 -0.323831
v 16.387897 7.547500 -0.323831
v 16.387897 7.497500 -0.293831
v 16.387897 7.547500 -0.293831
v 16.417898 7.497500 -0.323831
v 16.417898 7.547500 -0.323831
v 16.417898 7.497500 -0.293831
v 16.417898 7.547500 -0.293831
v 16.387897 7.577500 -0.323831
v 16.387897 7.577500 -0.293831
v 16.417898 7.577500 -0.323831
v 16.417898 7.577500 -0.293831
v 16.387897 7.797500 -0.323831
v 16.387897 7.797500 -0.293831
v 16.417898 7.797500 -0.323831
v 16.417898 7.797500 -0.293831
v 16.382898 7.585366 -0.288831
v 16.382898 7.785030 -0.288831
v 16.392899 7.585366 -0.298831
v 16.392899 7.785030 -0.298831
v 16.462898 7.641255 -0.350836
v 16.462898 7.623259 -0.343381
v 16.462898 7.605263 -0.350836
v 16.462898 7.587711 -0.357613
v 16.462898 7.587712 -0.361806
v 16.467897 7.567500 -0.418831
v 16.457899 7.567500 -0.418831
v 16.457932 7.587712 -0.363864
v 16.457932 7.600875 -0.363864
v 16.450172 7.641255 -0.356106
v 16.444902 7.623259 -0.350836
v 16.450172 7.605263 -0.356106
v 16.467897 7.557500 -0.418831
v 16.462898 7.600875 -0.361806
v 16.454966 7.587711 -0.360898
v 16.462898 7.561384 -0.357613
v 16.454966 7.561384 -0.360898
v 16.537899 7.497500 -0.323831
v 16.537899 7.547500 -0.323831
v 16.537899 7.497500 -0.293831
v 16.537899 7.547500 -0.293831
v 16.507898 7.497500 -0.323831
v 16.507898 7.547500 -0.323831
v 16.507898 7.497500 -0.293831
v 16.507898 7.547500 -0.293831
v 16.537899 7.577500 -0.323831
v 16.537899 7.577500 -0.293831
v 16.507898 7.577500 -0.323831
v 16.507898 7.577500 -0.293831
v 16.537899 7.797500 -0.323831
v 16.537899 7.797500 -0.293831
v 16.507898 7.797500 -0.323831
v 16.507898 7.797500 -0.293831
v 16.542898 7.585366 -0.288831
v 16.542898 7.785030 -0.288831
v 16.532898 7.585366 -0.298831
v 16.532898 7.785030 -0.298831
v 16.467865 7.587712 -0.363864
v 16.467865 7.600875 -0.363864
v 16.475624 7.641255 -0.356106
v 16.480894 7.623259 -0.350836
v 16.475624 7.605263 -0.356106
v 16.457899 7.557500 -0.418831
v 16.470831 7.587711 -0.360898
v 16.470831 7.561384 -0.360898
vn -1.0000 -0.0000 -0.0000
vn -0.0000 -0.0000 -1.0000
vn 1.0000 -0.0000 -0.0000
vn -0.0000 -0.0000 1.0000
vn -0.0000 -1.0000 -0.0000
vn -0.0000 1.0000 -0.0000
vn -0.7071 -0.0000 0.7071
vn -0.3671 -0.9177 -0.1520
vn -0.1520 -0.9177 -0.3671
vn -0.8629 -0.3574 -0.3574
vn -0.3780 0.9125 -0.1566
vn -0.8629 0.3574 -0.3574
vn -0.3574 0.3574 -0.8629
vn -0.3574 -0.3574 -0.8629
vn -0.1566 0.9125 -0.3780
vn -0.9239 -0.0000 -0.3827
vn -0.3827 -0.0000 -0.9239
vn 0.3671 -0.9177 -0.1520
vn 0.1520 -0.9177 -0.3671
vn 0.8629 -0.3574 -0.3574
vn 0.3780 0.9125 -0.1566
vn 0.8629 0.3574 -0.3574
vn 0.3574 0.3574 -0.8629
vn 0.3574 -0.3574 -0.8629
vn 0.1566 0.9125 -0.3780
vn 0.9239 -0.0000 -0.3827
vn 0.3827 -0.0000 -0.9239
vn 0.7071 -0.0000 -0.7071
vn -0.3671 -0.9177 0.1520
vn -0.1520 -0.9177 0.3671
vn -0.8629 -0.3574 0.3574
vn -0.3780 0.9125 0.1566
vn -0.8629 0.3574 0.3574
vn -0.3574 0.3574 0.8629
vn -0.3574 -0.3574 0.8629
vn -0.1566 0.9125 0.3780
vn -0.9239 -0.0000 0.3827
vn -0.3827 -0.0000 0.9239
vn 0.3671 -0.9177 0.1520
vn 0.1520 -0.9177 0.3671
vn 0.8629 -0.3574 0.3574
vn 0.3780 0.9125 0.1566
vn 0.8629 0.3574 0.3574
vn 0.3574 0.3574 0.8629
vn 0.3574 -0.3574 0.8629
vn 0.1566 0.9125 0.3780
vn 0.9239 -0.0000 0.3827
vn 0.3827 -0.0000 0.9239
vt 0.960934 0.618626
vt 0.898607 0.618626
vt 0.898607 0.581230
vt 0.960934 0.581230
vt 0.898607 0.543833
vt 0.960934 0.543833
vt 0.898607 0.506437
vt 0.960934 0.506437
vt 0.960934 0.656022
vt 0.898607 0.656022
vt 0.229464 0.075381
vt 0.236784 0.038708
vt 0.346803 0.060669
vt 0.339483 0.097342
vt 0.293345 0.937175
vt 0.293345 0.899778
vt 0.567585 0.899778
vt 0.567585 0.937175
vt 0.156118 0.060741
vt 0.192791 0.068061
vt 0.185471 0.104734
vt 0.148798 0.097413
vt 0.141478 0.134086
vt 0.134158 0.170759
vt 0.024139 0.148798
vt 0.031459 0.112125
vt 0.222144 0.112054
vt 0.369590 0.194035
vt 0.332194 0.194035
vt 0.332194 0.156638
vt 0.369590 0.156638
vt 0.293345 0.862382
vt 0.293345 0.824986
vt 0.567585 0.824986
vt 0.567585 0.862382
vt 0.293345 0.787589
vt 0.567585 0.787589
vt 0.038780 0.075453
vt 0.163439 0.024068
vt 0.046100 0.038780
vt 0.053420 0.002107
vt 0.207503 0.185400
vt 0.214824 0.148727
vt 0.324842 0.170688
vt 0.317522 0.207360
vt 0.332162 0.134015
vt 0.019799 0.155019
vt 0.019799 0.403909
vt 0.002171 0.403909
vt 0.002171 0.155019
vt 0.968010 0.452215
vt 0.966916 0.439717
vt 0.985204 0.437810
vt 0.989400 0.448196
vt 0.966804 0.427948
vt 0.986891 0.427034
vt 0.580207 0.098997
vt 0.580207 0.086532
vt 0.704861 0.086532
vt 0.704861 0.098997
vt 0.704861 0.061601
vt 0.580206 0.061601
vt 0.580206 0.049136
vt 0.704861 0.049136
vt 0.580206 0.074066
vt 0.704861 0.074066
vt 0.951591 0.452460
vt 0.952278 0.439747
vt 0.936722 0.448531
vt 0.910505 0.431105
vt 0.939793 0.438217
vt 0.940212 0.429101
vt 0.951864 0.428440
vt 0.019799 0.091782
vt 0.019799 0.098484
vt 0.003390 0.098484
vt 0.003390 0.091782
vt 0.019799 0.105187
vt 0.003390 0.105187
vt 0.015948 0.019470
vt 0.020688 0.024210
vt 0.018687 0.029039
vt 0.011119 0.021471
vt 0.027390 0.024210
vt 0.029391 0.029039
vt 0.058078 0.181293
vt 0.058078 0.191996
vt 0.025260 0.191996
vt 0.025260 0.181293
vt 0.058078 0.202700
vt 0.025260 0.202700
vt 0.039607 0.595015
vt 0.077003 0.595015
vt 0.077003 0.657342
vt 0.039607 0.657342
vt 0.114400 0.595015
vt 0.114400 0.657342
vt 0.151796 0.595015
vt 0.151796 0.657342
vt 0.002211 0.595015
vt 0.002211 0.657342
vt 0.706211 0.170545
vt 0.596192 0.148584
vt 0.603513 0.111911
vt 0.713531 0.133872
vt 0.718374 0.002211
vt 0.992613 0.002211
vt 0.992613 0.039607
vt 0.718374 0.039607
vt 0.002107 0.068132
vt 0.009427 0.031459
vt 0.742884 0.177865
vt 0.735563 0.214538
vt 0.698891 0.207218
vt 0.390709 0.024642
vt 0.390709 0.062038
vt 0.353313 0.062038
vt 0.353313 0.024642
vt 0.718374 0.077003
vt 0.992613 0.077003
vt 0.992613 0.114400
vt 0.718374 0.114400
vt 0.992613 0.151796
vt 0.718374 0.151796
vt 0.684250 0.280563
vt 0.574232 0.258602
vt 0.581552 0.221930
vt 0.691570 0.243890
vt 0.588872 0.185257
vt 0.623607 0.717780
vt 0.623607 0.543264
vt 0.872496 0.543264
vt 0.872496 0.717780
vt 0.879831 0.513920
vt 0.705314 0.513920
vt 0.692849 0.501455
vt 0.892296 0.501455
vt 0.872496 0.892296
vt 0.623607 0.892296
vt 0.524930 0.254740
vt 0.720518 0.293782
vt 0.671799 0.537857
vt 0.476210 0.498815
vt 0.144082 0.665468
vt 0.285112 0.806498
vt 0.267483 0.806498
vt 0.144082 0.683097
vt 0.020681 0.806498
vt 0.003052 0.806498
vt 0.892296 0.700901
vt 0.879830 0.688436
vt 0.280622 0.459774
vt 0.329342 0.215699
vt 0.966475 0.401697
vt 0.992280 0.402732
vt 0.989202 0.415406
vt 0.966604 0.415606
vt 0.951151 0.416853
vt 0.948850 0.403617
vt 0.934027 0.409786
vt 0.938612 0.419961
vt 0.019799 0.118592
vt 0.003390 0.118592
vt 0.003390 0.111889
vt 0.019799 0.111889
vt 0.032129 0.012768
vt 0.036959 0.010767
vt 0.036959 0.021471
vt 0.032129 0.019470
vt 0.058078 0.224107
vt 0.025260 0.224107
vt 0.025260 0.213403
vt 0.058078 0.213403
vt 0.463315 0.006311
vt 0.500712 0.006311
vt 0.500712 0.068638
vt 0.463315 0.068638
vt 0.538108 0.006311
vt 0.538108 0.068638
vt 0.575504 0.006311
vt 0.575504 0.068638
vt 0.425919 0.006311
vt 0.425919 0.068638
vt 0.877776 0.219427
vt 0.877776 0.493667
vt 0.840380 0.493667
vt 0.840380 0.219427
vt 0.412828 0.111983
vt 0.405508 0.148655
vt 0.368835 0.141335
vt 0.376155 0.104662
vt 0.221754 0.024642
vt 0.221754 0.062038
vt 0.184358 0.062038
vt 0.184358 0.024642
vt 0.802984 0.219427
vt 0.802984 0.493667
vt 0.765587 0.493667
vt 0.765587 0.219427
vt 0.728191 0.493667
vt 0.728191 0.219427
vt 0.081260 0.752677
vt 0.205914 0.752677
vt 0.205914 0.765142
vt 0.081260 0.765142
vt 0.205914 0.777608
vt 0.081260 0.777608
vt 0.441907 0.780099
vt 0.267392 0.780099
vt 0.267392 0.531209
vt 0.441907 0.531209
vt 0.903590 0.170730
vt 0.729074 0.170730
vt 0.716609 0.158264
vt 0.916055 0.158264
vt 0.616423 0.531209
vt 0.616423 0.780099
vt 0.041161 0.364731
vt 0.080203 0.169142
vt 0.324277 0.217862
vt 0.285236 0.413450
vt 0.889656 0.910775
vt 0.690209 0.910775
vt 0.702674 0.898310
vt 0.877191 0.898310
vt 0.170859 0.019799
vt 0.170859 0.002171
vt 0.419749 0.002171
vt 0.419749 0.019799
vt 0.877191 0.723794
vt 0.889656 0.711329
vt 0.916055 0.357710
vt 0.903590 0.345245
vt 0.246195 0.609038
vt 0.002120 0.560318
vt 0.081260 0.802538
vt 0.081260 0.790073
vt 0.205914 0.790073
vt 0.205914 0.802538
vt 0.990593 0.459876
vt 0.970625 0.468190
vt 0.997261 0.470597
vt 0.980444 0.492664
vt 0.947659 0.469349
vt 0.929139 0.460048
vt 0.938277 0.500267
vt 0.910960 0.473098
vt 0.003390 0.085079
vt 0.019799 0.085079
vt 0.003390 0.078377
vt 0.019799 0.078377
vt 0.011119 0.010767
vt 0.015948 0.012768
vt 0.018687 0.003199
vt 0.020688 0.008028
vt 0.025260 0.170590
vt 0.058078 0.170590
vt 0.025260 0.159886
vt 0.058078 0.159886
vt 0.958294 0.820581
vt 0.895967 0.820581
vt 0.895967 0.783184
vt 0.958294 0.783184
vt 0.895967 0.745788
vt 0.958294 0.745788
vt 0.895967 0.708392
vt 0.958294 0.708392
vt 0.958294 0.857977
vt 0.895967 0.857977
vt 0.002953 0.963574
vt 0.002953 0.926178
vt 0.277193 0.926178
vt 0.277193 0.963574
vt 0.522847 0.133943
vt 0.559520 0.141264
vt 0.552199 0.177936
vt 0.515526 0.170616
vt 0.508206 0.207289
vt 0.500886 0.243962
vt 0.390867 0.222001
vt 0.398188 0.185328
vt 0.147399 0.138159
vt 0.184795 0.138159
vt 0.184795 0.175555
vt 0.147399 0.175555
vt 0.002953 0.888781
vt 0.002953 0.851385
vt 0.277193 0.851385
vt 0.277193 0.888781
vt 0.002953 0.813989
vt 0.277193 0.813989
vt 0.530167 0.097271
vt 0.420149 0.075310
vt 0.966986 0.383841
vt 0.991131 0.389192
vt 0.973863 0.355004
vt 0.997893 0.377405
vt 0.942172 0.386344
vt 0.924373 0.399043
vt 0.903234 0.388619
vt 0.926927 0.355004
vt 0.019799 0.125294
vt 0.003390 0.125294
vt 0.019799 0.131996
vt 0.003390 0.131996
vt 0.027390 0.008028
vt 0.029390 0.003199
vt 0.058078 0.234810
vt 0.025260 0.234810
vt 0.058078 0.245513
vt 0.025260 0.245513
s 0
f 1/1/1 2/2/1 4/3/1 3/4/1
f 3/4/2 4/3/2 8/5/2 7/6/2
f 7/6/3 8/5/3 6/7/3 5/8/3
f 5/9/4 6/10/4 2/2/4 1/1/4
f 2/11/5 6/12/5 94/13/5 90/14/5
f 11/15/3 12/16/3 16/17/3 15/18/3
f 8/19/2 4/20/2 10/21/2 12/22/2
f 11/23/4 6/24/4 53/25/4 58/26/4
f 4/20/1 2/11/1 9/27/1 10/21/1
f 16/28/6 14/29/6 13/30/6 15/31/6
f 10/32/1 9/33/1 13/34/1 14/35/1
f 9/33/4 11/36/4 15/37/4 13/34/4
f 12/16/2 10/32/2 14/35/2 16/17/2
f 12/22/6 11/23/6 58/26/6 59/38/6
f 6/39/5 8/19/5 55/40/5 53/41/5
f 8/19/2 12/22/2 59/38/2 55/40/2
f 6/42/3 11/43/3 99/44/3 94/45/3
f 9/27/1 2/11/1 90/14/1 97/46/1
f 11/43/6 9/27/6 97/46/6 99/44/6
f 19/47/7 20/48/7 18/49/7 17/50/7
f 33/51/8 37/52/8 34/53/8 38/54/8
f 37/52/9 24/55/9 39/56/9 34/53/9
f 68/57/4 88/58/4 47/59/4 27/60/4
f 44/61/5 85/62/5 68/63/5 27/64/5
f 84/65/6 42/66/6 47/59/6 88/58/6
f 33/51/10 32/67/10 36/68/10 37/52/10
f 31/69/11 21/70/11 35/71/11
f 32/67/12 31/69/12 35/71/12 36/68/12
f 36/68/13 35/71/13 22/72/13 23/73/13
f 37/52/14 36/68/14 23/73/14 24/55/14
f 35/71/15 21/70/15 22/72/15
f 38/74/16 34/75/16 30/76/16 29/77/16
f 34/75/17 39/78/17 26/79/17 30/76/17
f 29/80/6 30/81/6 41/82/6 40/83/6
f 30/81/6 26/84/6 25/85/6 41/82/6
f 44/61/2 42/66/2 84/65/2 85/62/2
f 40/86/16 41/87/16 46/88/16 45/89/16
f 41/87/17 25/90/17 43/91/17 46/88/17
f 48/92/3 50/93/3 51/94/3 49/95/3
f 50/93/2 54/96/2 55/97/2 51/94/2
f 54/96/1 52/98/1 53/99/1 55/97/1
f 52/100/4 48/92/4 49/95/4 53/101/4
f 49/102/5 127/103/5 131/104/5 53/105/5
f 58/106/1 62/107/1 63/108/1 59/109/1
f 55/40/2 59/38/2 57/110/2 51/111/2
f 51/112/3 57/113/3 56/114/3 49/102/3
f 63/115/6 62/116/6 60/117/6 61/118/6
f 57/119/3 61/120/3 60/121/3 56/122/3
f 56/122/4 60/121/4 62/123/4 58/124/4
f 59/109/2 63/108/2 61/120/2 57/119/2
f 53/125/1 131/126/1 136/127/1 58/128/1
f 56/114/3 134/129/3 127/103/3 49/102/3
f 58/128/6 136/127/6 134/129/6 56/114/6
f 67/130/4 20/131/4 19/132/4 66/133/4
f 67/134/6 145/135/6 143/136/6 65/137/6
f 66/133/1 144/138/1 145/139/1 67/130/1
f 65/140/3 143/141/3 142/142/3 64/143/3
f 64/144/5 142/145/5 144/146/5 66/147/5
f 66/147/5 19/148/5 17/149/5 64/144/5
f 65/137/6 18/150/6 20/151/6 67/134/6
f 64/143/2 17/152/2 18/153/2 65/140/2
f 75/154/18 80/155/18 76/156/18 79/157/18
f 79/157/19 76/156/19 39/56/19 24/55/19
f 75/154/20 79/157/20 78/158/20 74/159/20
f 73/160/21 77/161/21 21/70/21
f 74/159/22 78/158/22 77/161/22 73/160/22
f 78/158/23 23/73/23 22/72/23 77/161/23
f 79/157/24 24/55/24 23/73/24 78/158/24
f 77/161/25 22/72/25 21/70/25
f 80/162/26 71/163/26 72/164/26 76/165/26
f 76/165/27 72/164/27 26/79/27 39/78/27
f 71/166/6 82/167/6 83/168/6 72/169/6
f 72/169/6 83/168/6 25/85/6 26/84/6
f 82/170/26 86/171/26 87/172/26 83/173/26
f 83/173/27 87/172/27 43/91/27 25/90/27
f 89/174/1 91/175/1 92/176/1 90/177/1
f 91/175/4 95/178/4 96/179/4 92/176/4
f 95/178/3 93/180/3 94/181/3 96/179/3
f 93/182/2 89/174/2 90/177/2 94/183/2
f 99/184/3 103/185/3 104/186/3 100/187/3
f 96/188/4 100/189/4 98/190/4 92/191/4
f 92/191/1 98/190/1 97/46/1 90/14/1
f 104/192/6 103/193/6 101/194/6 102/195/6
f 98/196/1 102/197/1 101/198/1 97/199/1
f 97/199/2 101/198/2 103/200/2 99/201/2
f 100/187/4 104/186/4 102/197/4 98/196/4
f 151/202/1 81/203/1 69/204/1 115/205/1
f 69/204/6 28/206/6 114/207/6 115/205/6
f 108/208/2 145/209/2 144/210/2 107/211/2
f 108/212/6 20/213/6 18/214/6 106/215/6
f 107/211/3 19/216/3 20/217/3 108/208/3
f 106/218/1 18/219/1 17/220/1 105/221/1
f 105/222/5 17/223/5 19/224/5 107/225/5
f 142/226/28 144/227/28 145/228/28 143/229/28
f 107/225/5 144/230/5 142/231/5 105/222/5
f 106/215/6 143/232/6 145/233/6 108/212/6
f 105/221/4 142/234/4 143/235/4 106/218/4
f 151/236/5 121/237/5 70/238/5 81/239/5
f 33/51/29 38/54/29 117/240/29 120/241/29
f 120/241/30 117/240/30 122/242/30 111/243/30
f 33/51/31 120/241/31 119/244/31 32/67/31
f 31/69/32 118/245/32 21/70/32
f 32/67/33 119/244/33 118/245/33 31/69/33
f 119/244/34 110/246/34 109/247/34 118/245/34
f 120/241/35 111/243/35 110/246/35 119/244/35
f 118/245/36 109/247/36 21/70/36
f 38/74/37 29/77/37 116/248/37 117/249/37
f 117/249/38 116/248/38 113/250/38 122/251/38
f 29/80/6 40/83/6 123/252/6 116/253/6
f 116/253/6 123/252/6 112/254/6 113/255/6
f 70/238/3 121/237/3 114/207/3 28/206/3
f 40/86/37 45/89/37 125/256/37 123/257/37
f 123/257/38 125/256/38 124/258/38 112/259/38
f 126/260/3 127/261/3 129/262/3 128/263/3
f 128/263/4 129/262/4 133/264/4 132/265/4
f 132/265/1 133/264/1 131/266/1 130/267/1
f 130/268/2 131/269/2 127/261/2 126/260/2
f 136/270/1 137/271/1 141/272/1 140/273/1
f 133/274/4 129/275/4 135/276/4 137/277/4
f 136/278/2 131/279/2 94/280/2 99/281/2
f 129/275/3 127/103/3 134/129/3 135/276/3
f 141/282/6 139/283/6 138/284/6 140/285/6
f 135/286/3 134/287/3 138/288/3 139/289/3
f 134/287/2 136/290/2 140/291/2 138/288/2
f 137/271/4 135/286/4 139/289/4 141/272/4
f 137/277/6 136/278/6 99/281/6 100/189/6
f 131/292/5 133/274/5 96/188/5 94/293/5
f 133/274/4 137/277/4 100/189/4 96/188/4
f 75/154/39 150/294/39 147/295/39 80/155/39
f 150/294/40 111/296/40 122/297/40 147/295/40
f 75/154/41 74/159/41 149/298/41 150/294/41
f 73/160/42 21/70/42 148/299/42
f 74/159/43 73/160/43 148/299/43 149/298/43
f 149/298/44 148/299/44 109/300/44 110/301/44
f 150/294/45 149/298/45 110/301/45 111/296/45
f 148/299/46 21/70/46 109/300/46
f 80/162/47 147/302/47 146/303/47 71/163/47
f 147/302/48 122/304/48 113/305/48 146/303/48
f 71/166/6 146/306/6 152/307/6 82/167/6
f 146/306/6 113/255/6 112/254/6 152/307/6
f 82/170/47 152/308/47 153/309/47 86/171/47
f 152/308/48 112/310/48 124/311/48 153/309/48
