# Blender 5.0.1
# www.blender.org
mtllib Light Big Cozy.mtl
o Lampe_Big_Cozy
v 13.800001 7.051657 1.341013
v 13.920610 7.033975 1.373330
v 14.008903 7.051657 1.461622
v 14.041220 7.082458 1.582231
v 14.008903 7.082458 1.702840
v 13.920610 7.082458 1.791132
v 13.800001 7.051657 1.823449
v 13.679392 7.051657 1.791132
v 13.591100 7.051657 1.702840
v 13.558784 7.070056 1.582231
v 13.591100 7.070056 1.461622
v 13.679392 7.051657 1.373330
v 13.806113 8.101657 1.364777
v 13.916508 8.101657 1.380486
v 14.009212 8.101657 1.467106
v 14.040419 8.101657 1.583569
v 14.001764 8.101657 1.698668
v 13.909992 8.101657 1.772758
v 13.800045 8.101657 1.815130
v 13.689320 8.101657 1.773844
v 13.598327 8.101657 1.698668
v 13.567121 8.101657 1.582205
v 13.598327 8.101657 1.465743
v 13.683583 8.101657 1.380486
v 13.800045 8.401656 1.349280
v 13.924786 8.401657 1.368746
v 14.010041 8.401657 1.454002
v 14.032970 8.401656 1.582205
v 14.008784 8.401656 1.706461
v 13.916508 8.401656 1.783924
v 13.800045 8.401656 1.815130
v 13.691860 8.401657 1.772183
v 13.598327 8.401656 1.698668
v 13.567121 8.401656 1.582205
v 13.598327 8.401656 1.465743
v 13.690603 8.401656 1.388280
v 13.806079 8.101657 1.414596
v 13.891543 8.101657 1.423758
v 13.965884 8.101657 1.492072
v 13.990395 8.101657 1.583547
v 13.958507 8.101657 1.673671
v 13.885090 8.101657 1.729575
v 13.800069 8.101657 1.765145
v 13.714276 8.101657 1.730651
v 13.641630 8.101657 1.673671
v 13.617120 8.101657 1.582196
v 13.641630 8.101657 1.490722
v 13.708594 8.101657 1.423758
v 13.800069 8.401656 1.399247
v 13.899742 8.401657 1.412129
v 13.966705 8.401657 1.479093
v 13.983018 8.401656 1.582196
v 13.965461 8.401656 1.681390
v 13.891543 8.401656 1.740634
v 13.800069 8.401656 1.765145
v 13.716793 8.401657 1.729005
v 13.641630 8.401656 1.673671
v 13.617120 8.401656 1.582196
v 13.641630 8.401656 1.490722
v 13.715548 8.401656 1.431477
v 13.825001 7.201656 1.538930
v 13.843303 7.201656 1.557231
v 13.850001 7.201656 1.582231
v 13.843303 7.201656 1.607231
v 13.825001 7.201656 1.625533
v 13.800001 7.201656 1.632231
v 13.775002 7.201656 1.625533
v 13.756700 7.201656 1.607231
v 13.750001 7.201656 1.582231
v 13.756700 7.201656 1.557231
v 13.775002 7.201656 1.538930
v 13.800001 7.201656 1.532231
v 13.800001 7.001657 1.341013
v 13.920610 7.001657 1.373330
v 14.008903 7.001657 1.461622
v 14.041220 7.001657 1.582231
v 14.008903 7.001657 1.702840
v 13.920610 7.001657 1.791132
v 13.800001 7.001657 1.823449
v 13.679392 7.001657 1.791132
v 13.591100 7.001657 1.702840
v 13.558784 7.001657 1.582231
v 13.591100 7.001657 1.461622
v 13.679392 7.001657 1.373330
v 13.800001 8.490688 1.532231
v 13.800001 8.501657 1.549120
v 13.816557 8.501657 1.553556
v 13.825001 8.485343 1.538930
v 13.828676 8.501657 1.565676
v 13.843303 8.471500 1.557231
v 13.833112 8.501657 1.582231
v 13.850001 8.490688 1.582231
v 13.828676 8.501657 1.598787
v 13.843303 8.485343 1.607231
v 13.816557 8.501657 1.610906
v 13.825001 8.485343 1.625533
v 13.800001 8.501657 1.615342
v 13.800001 8.471500 1.632231
v 13.783445 8.501657 1.610906
v 13.775002 8.471500 1.625533
v 13.771326 8.501657 1.598787
v 13.756700 8.490688 1.607231
v 13.766891 8.501657 1.582231
v 13.750001 8.471500 1.582231
v 13.771326 8.501657 1.565676
v 13.756700 8.485343 1.557231
v 13.783445 8.501657 1.553556
v 13.775002 8.471500 1.538930
v 13.813702 7.522578 1.546584
v 13.778472 7.843500 1.531579
v 13.816963 8.164421 1.512659
v 13.841964 8.164421 1.519358
v 13.803473 7.843500 1.538278
v 13.838701 7.522578 1.553283
v 13.788701 7.522578 1.553283
v 13.753472 7.843500 1.538278
v 13.791964 8.164421 1.519358
v 13.860265 8.164421 1.537659
v 13.821774 7.843500 1.556579
v 13.857002 7.522578 1.571584
v 13.866963 8.164421 1.562659
v 13.828472 7.843500 1.581579
v 13.863702 7.522578 1.596584
v 13.860265 8.164421 1.587659
v 13.821774 7.843500 1.606579
v 13.857002 7.522578 1.621584
v 13.841964 8.164421 1.605961
v 13.803473 7.843500 1.624880
v 13.838701 7.522578 1.639885
v 13.816963 8.164421 1.612659
v 13.778472 7.843500 1.631579
v 13.813702 7.522578 1.646584
v 13.791964 8.164421 1.605961
v 13.753472 7.843500 1.624880
v 13.788701 7.522578 1.639885
v 13.773663 8.164421 1.587659
v 13.735170 7.843500 1.606579
v 13.770400 7.522578 1.621584
v 13.766963 8.164421 1.562659
v 13.728472 7.843500 1.581579
v 13.763701 7.522578 1.596584
v 13.773663 8.164421 1.537659
v 13.735170 7.843500 1.556579
v 13.770400 7.522578 1.571584
v 13.861172 7.135314 1.442331
v 13.914468 7.135314 1.495628
v 13.933976 7.143730 1.568432
v 13.914468 7.143730 1.641237
v 13.861172 7.135314 1.694534
v 13.788367 7.135314 1.714041
v 13.715563 7.135314 1.694534
v 13.662266 7.100233 1.641237
v 13.642758 7.135314 1.568432
v 13.662266 7.135314 1.495628
v 13.715563 7.135314 1.442331
v 13.788367 7.100233 1.422823
v 13.794258 8.289917 1.824775
v 13.916508 8.293944 1.783924
v 13.555286 8.253236 1.570494
v 13.610706 8.266413 1.699255
v 13.995977 8.268268 1.475387
v 13.916508 8.254842 1.380486
v 13.788211 8.244764 1.337570
v 13.677796 8.240737 1.390131
v 13.989930 8.290844 1.686957
v 13.677796 8.279840 1.793568
v 13.598327 8.243837 1.465743
v 14.032970 8.281446 1.582205
v 13.800002 8.242985 1.564889
v 13.800002 8.260326 1.564889
v 13.815020 8.242985 1.590901
v 13.815020 8.260326 1.590901
v 13.784984 8.242985 1.590901
v 13.784984 8.260326 1.590901
v 13.624510 8.242985 1.463675
v 13.624510 8.260326 1.463675
v 13.609491 8.242985 1.489687
v 13.609491 8.260326 1.489687
v 13.975494 8.242985 1.463675
v 13.975494 8.260326 1.463675
v 13.990512 8.242985 1.489687
v 13.990512 8.260326 1.489687
v 13.815020 8.242985 1.793330
v 13.815020 8.260326 1.793330
v 13.784984 8.242985 1.793330
v 13.784984 8.260326 1.793330
vn 0.9659 -0.0000 0.2588
vn 0.2883 0.0345 0.9569
vn -0.9425 -0.0149 0.3338
vn 0.7361 -0.1371 -0.6628
vn -0.3847 0.0584 -0.9212
vn 0.7184 -0.1231 0.6846
vn -0.7235 0.0635 0.6874
vn 0.2399 -0.0160 -0.9707
vn -0.6650 0.0224 -0.7465
vn 0.9534 -0.1018 0.2840
vn -0.3160 0.1513 0.9366
vn -0.9463 0.0488 -0.3197
vn 0.9673 -0.0741 -0.2425
vn -0.3222 0.0209 -0.9464
vn 0.9659 -0.0000 -0.2588
vn -0.6910 0.0400 0.7218
vn 0.2217 0.0121 0.9750
vn -0.6153 0.0384 -0.7873
vn 0.6050 -0.0047 -0.7962
vn -0.1181 0.0450 0.9920
vn 0.6672 -0.0173 0.7447
vn -0.9675 0.0020 -0.2527
vn 0.3855 -0.0041 -0.9227
vn -0.9787 -0.0058 0.2053
vn -0.0000 1.0000 -0.0000
vn -0.0000 -1.0000 -0.0000
vn -0.1042 0.7651 -0.6355
vn 0.4081 0.8167 -0.4081
vn 0.5445 0.8106 -0.2156
vn 0.5781 0.8011 0.1549
vn 0.4080 0.7652 0.4980
vn 0.1702 0.7534 0.6352
vn -0.1628 0.7776 0.6074
vn -0.6244 0.7350 0.2643
vn -0.5592 0.7214 0.4086
vn -0.5084 0.8502 -0.1362
vn -0.3644 0.8570 -0.3644
vn 0.0971 0.7551 -0.6484
vn -0.2588 -0.0000 -0.9659
vn 0.2588 -0.0000 -0.9659
vn -0.7071 -0.0000 -0.7071
vn 0.7071 -0.0000 -0.7071
vn -0.9659 -0.0000 -0.2588
vn -0.9659 -0.0000 0.2588
vn -0.7071 -0.0000 0.7071
vn -0.2588 -0.0000 0.9659
vn 0.2588 -0.0000 0.9659
vn 0.7071 -0.0000 0.7071
vn 0.2569 0.7637 -0.5923
vn 0.6976 0.5651 -0.4405
vn 0.6601 0.5989 -0.4534
vn 0.5923 0.7637 0.2569
vn 0.5000 0.7071 0.5000
vn 0.0327 0.5651 0.8244
vn -0.2276 0.4758 0.8496
vn -0.3449 0.5989 0.7227
vn -0.7983 0.5989 -0.0626
vn -0.8244 0.5651 -0.0327
vn -0.4405 0.5651 -0.6976
vn -0.4534 0.5989 -0.6601
vn 0.2653 0.0721 -0.9615
vn -0.2745 0.0447 -0.9605
vn 0.7200 0.0818 -0.6891
vn 0.9567 0.0687 -0.2827
vn 0.9644 0.0347 0.2621
vn 0.7071 -0.0057 0.7071
vn 0.2702 -0.0453 0.9617
vn -0.2581 -0.0756 0.9632
vn -0.7257 -0.0811 0.6832
vn -0.9567 -0.0687 0.2827
vn -0.9628 -0.0353 -0.2678
vn -0.7060 0.0060 -0.7082
vn -0.7058 0.0617 -0.7058
vn -0.7028 -0.1100 -0.7028
vn -0.7065 0.0431 -0.7065
vn -0.9646 0.0527 -0.2585
vn -0.9593 -0.1173 -0.2570
vn -0.9611 0.1001 -0.2575
vn -0.9655 0.0296 0.2587
vn -0.9617 -0.0935 0.2577
vn -0.9577 0.1300 0.2566
vn -0.7071 -0.0014 0.7071
vn -0.7064 -0.0445 0.7064
vn -0.7015 0.1255 0.7015
vn -0.2587 -0.0321 0.9654
vn -0.2588 0.0167 0.9658
vn -0.2578 0.0876 0.9622
vn 0.2584 -0.0542 0.9645
vn 0.2581 0.0734 0.9633
vn 0.2587 0.0259 0.9656
vn 0.7058 -0.0617 0.7058
vn 0.7028 0.1100 0.7028
vn 0.7065 -0.0431 0.7065
vn 0.9646 -0.0527 0.2585
vn 0.9593 0.1173 0.2570
vn 0.9611 -0.1001 0.2575
vn 0.9655 -0.0296 -0.2587
vn 0.9617 0.0935 -0.2577
vn 0.9577 -0.1300 -0.2566
vn 0.7071 0.0014 -0.7071
vn 0.7064 0.0445 -0.7064
vn 0.7015 -0.1255 -0.7015
vn -0.2584 0.0542 -0.9645
vn -0.2581 -0.0734 -0.9633
vn -0.2587 -0.0259 -0.9656
vn 0.2587 0.0321 -0.9654
vn 0.2588 -0.0167 -0.9658
vn 0.2578 -0.0876 -0.9622
vn -0.0387 0.7545 -0.6552
vn -0.4539 0.7045 -0.5455
vn -0.6220 0.7651 -0.1667
vn -0.4394 0.8286 0.3469
vn -0.5144 0.7968 0.3170
vn -0.1635 0.7752 0.6102
vn 0.0140 0.8357 0.5490
vn 0.2979 0.8878 0.3507
vn 0.4795 0.8681 0.1285
vn 0.5358 0.7879 -0.3033
vn 0.4645 0.6932 -0.5511
vn 0.1145 0.7310 -0.6727
vn 0.9535 0.0628 -0.2949
vn -0.9475 -0.0508 -0.3158
vn -0.2991 -0.0903 0.9499
vn 0.9365 0.0612 0.3454
vn -0.6985 0.0102 -0.7155
vn 0.2408 -0.0743 -0.9677
vn -0.7292 -0.0386 0.6832
vn 0.7194 0.0110 0.6945
vn -0.2790 -0.0830 -0.9567
vn 0.7229 0.0478 -0.6893
vn -0.9430 0.0133 0.3324
vn 0.3377 -0.0520 0.9398
vn -1.0000 -0.0000 -0.0000
vn -0.4996 -0.0000 0.8663
vn 0.4996 -0.0000 -0.8663
vn 1.0000 -0.0000 -0.0000
vn -0.4996 -0.0000 -0.8663
vn 0.4996 -0.0000 0.8663
vt 0.046791 0.213630
vt 0.046791 0.284538
vt 0.000905 0.284538
vt 0.000905 0.213630
vt 0.201304 0.337908
vt 0.256238 0.339684
vt 0.251817 0.397768
vt 0.198720 0.400662
vt 0.184939 0.512776
vt 0.249480 0.515242
vt 0.249350 0.574811
vt 0.178202 0.580332
vt 0.180616 0.083497
vt 0.261844 0.090123
vt 0.259963 0.152439
vt 0.188009 0.155551
vt 0.169372 0.692261
vt 0.256825 0.696585
vt 0.265825 0.763182
vt 0.166434 0.765766
vt 0.199357 0.276554
vt 0.254576 0.282336
vt 0.192651 0.457297
vt 0.254340 0.456266
vt 0.171060 0.000905
vt 0.276554 0.014031
vt 0.172419 0.635264
vt 0.249936 0.634538
vt 0.194884 0.217242
vt 0.258307 0.218562
vt 0.469771 0.348293
vt 0.468430 0.402716
vt 0.280509 0.400054
vt 0.280900 0.341684
vt 0.466032 0.514889
vt 0.465961 0.570454
vt 0.277380 0.573821
vt 0.278419 0.514359
vt 0.489188 0.115459
vt 0.482001 0.176498
vt 0.287453 0.154164
vt 0.293758 0.092041
vt 0.469598 0.679070
vt 0.473029 0.735515
vt 0.292902 0.747896
vt 0.284154 0.692905
vt 0.472281 0.293923
vt 0.283235 0.283084
vt 0.467254 0.460254
vt 0.280076 0.456664
vt 0.497827 0.063923
vt 0.306593 0.025129
vt 0.466951 0.625662
vt 0.277641 0.633284
vt 0.477162 0.235069
vt 0.284390 0.219615
vt 0.104972 0.279552
vt 0.104882 0.338905
vt 0.077334 0.340134
vt 0.076791 0.282542
vt 0.097627 0.689942
vt 0.073826 0.751717
vt 0.048600 0.737190
vt 0.072352 0.685141
vt 0.103976 0.217716
vt 0.072314 0.219935
vt 0.104031 0.633389
vt 0.077172 0.630953
vt 0.100868 0.155943
vt 0.071818 0.157841
vt 0.106087 0.575731
vt 0.078166 0.574426
vt 0.094606 0.092000
vt 0.066742 0.095160
vt 0.107103 0.516424
vt 0.077265 0.514938
vt 0.077894 0.028706
vt 0.048600 0.042400
vt 0.105479 0.456621
vt 0.077684 0.455545
vt 0.110673 0.397676
vt 0.081958 0.397597
vt 0.958255 0.109695
vt 0.884237 0.152306
vt 0.873422 0.141999
vt 0.916529 0.089237
vt 0.859497 0.137011
vt 0.877866 0.074345
vt 0.844722 0.138195
vt 0.835058 0.079680
vt 0.831819 0.145540
vt 0.796611 0.100901
vt 0.823082 0.157543
vt 0.768086 0.135122
vt 0.819905 0.171991
vt 0.759233 0.178188
vt 0.822809 0.186554
vt 0.768025 0.220546
vt 0.831371 0.198636
vt 0.784781 0.264092
vt 0.844029 0.206203
vt 0.829072 0.276192
vt 0.858718 0.207641
vt 0.870518 0.279953
vt 0.872613 0.202766
vt 0.909400 0.266504
vt 0.883379 0.192370
vt 0.951011 0.245444
vt 0.029299 0.780897
vt 0.029299 0.851806
vt 0.000905 0.851806
vt 0.000905 0.780897
vt 0.029299 0.000905
vt 0.019258 0.071813
vt 0.000905 0.071813
vt 0.000905 0.000905
vt 0.029299 0.142721
vt 0.000905 0.142721
vt 0.039748 0.709989
vt 0.000905 0.709989
vt 0.039748 0.639081
vt 0.000905 0.639081
vt 0.029299 0.568172
vt 0.000905 0.568172
vt 0.029299 0.497264
vt 0.000905 0.497264
vt 0.029299 0.426355
vt 0.000905 0.426355
vt 0.046791 0.355447
vt 0.000905 0.355447
vt 0.727991 0.756627
vt 0.711848 0.756627
vt 0.713262 0.744579
vt 0.722841 0.743986
vt 0.745590 0.752211
vt 0.730726 0.738749
vt 0.746506 0.732218
vt 0.734728 0.730196
vt 0.746618 0.715417
vt 0.733861 0.720832
vt 0.736730 0.702355
vt 0.728604 0.713179
vt 0.722952 0.689955
vt 0.720407 0.709388
vt 0.707011 0.690696
vt 0.711329 0.709639
vt 0.695163 0.706655
vt 0.703683 0.714531
vt 0.680113 0.719326
vt 0.699503 0.722725
vt 0.687287 0.735746
vt 0.700106 0.731894
vt 0.690194 0.753192
vt 0.704810 0.739863
vt 0.709384 0.755901
vt 0.678129 0.550937
vt 0.678304 0.736166
vt 0.663764 0.732657
vt 0.663579 0.551411
vt 0.514358 0.550641
vt 0.517496 0.726861
vt 0.502247 0.736977
vt 0.499637 0.551100
vt 0.648853 0.724844
vt 0.649163 0.551764
vt 0.634481 0.736478
vt 0.634730 0.551936
vt 0.619458 0.734466
vt 0.620238 0.551862
vt 0.604839 0.735612
vt 0.605522 0.551575
vt 0.589719 0.728762
vt 0.590606 0.551166
vt 0.575233 0.729293
vt 0.575384 0.550706
vt 0.560684 0.740007
vt 0.560012 0.550348
vt 0.546626 0.728752
vt 0.544598 0.550217
vt 0.531558 0.735661
vt 0.529375 0.550301
vt 0.529362 0.000905
vt 0.530324 0.184287
vt 0.515446 0.184045
vt 0.514857 0.000941
vt 0.531277 0.366383
vt 0.517021 0.366933
vt 0.543839 0.001287
vt 0.545276 0.184325
vt 0.545365 0.365652
vt 0.558327 0.001967
vt 0.560126 0.184110
vt 0.559448 0.364942
vt 0.572871 0.002746
vt 0.574773 0.183687
vt 0.573677 0.364455
vt 0.587502 0.003401
vt 0.589193 0.183160
vt 0.588127 0.364289
vt 0.602225 0.003743
vt 0.603424 0.182654
vt 0.602875 0.364506
vt 0.617029 0.003686
vt 0.617527 0.182250
vt 0.617921 0.365050
vt 0.631796 0.003227
vt 0.631650 0.182071
vt 0.633133 0.365726
vt 0.646484 0.002485
vt 0.645839 0.182122
vt 0.648373 0.366346
vt 0.661078 0.001658
vt 0.660170 0.182376
vt 0.663489 0.366728
vt 0.500697 0.183656
vt 0.500360 0.001409
vt 0.502523 0.367169
vt 0.675694 0.000967
vt 0.674700 0.182751
vt 0.678304 0.366724
vt 0.945267 0.319292
vt 0.999095 0.272076
vt 0.874583 0.337652
vt 0.802883 0.330830
vt 0.737136 0.299901
vt 0.695709 0.242232
vt 0.680113 0.172865
vt 0.702790 0.103235
vt 0.746074 0.046604
vt 0.808893 0.013641
vt 0.880647 0.000905
vt 0.949639 0.021180
vt 0.999095 0.073376
vt 0.733923 0.573189
vt 0.733923 0.688146
vt 0.724075 0.688146
vt 0.724075 0.573189
vt 0.733923 0.454508
vt 0.724075 0.454508
vt 0.724075 0.339461
vt 0.733923 0.339461
vt 0.750504 0.339461
vt 0.750504 0.356518
vt 0.735732 0.347990
vt 0.697170 0.454516
vt 0.697170 0.339469
vt 0.707018 0.339469
vt 0.707018 0.454516
vt 0.750504 0.366856
vt 0.735732 0.375385
vt 0.735732 0.358328
vt 0.680113 0.454508
vt 0.680113 0.339461
vt 0.707018 0.456325
vt 0.724075 0.456333
vt 0.724075 0.571380
vt 0.707018 0.571372
vt 0.680113 0.456333
vt 0.697170 0.456325
vt 0.697170 0.571372
vt 0.680113 0.571380
vt 0.707018 0.573189
vt 0.707018 0.688146
vt 0.680113 0.573189
vt 0.697170 0.573189
vt 0.697170 0.688146
vt 0.680113 0.688146
vt 0.733923 0.456333
vt 0.733923 0.571380
s 0
f 4/1/1 5/2/1 77/3/1 76/4/1
f 158/5/2 30/6/2 31/7/2 157/8/2
f 160/9/3 33/10/3 34/11/3 159/12/3
f 162/13/4 26/14/4 27/15/4 161/16/4
f 164/17/5 36/18/5 25/19/5 163/20/5
f 165/21/6 29/22/6 30/6/6 158/5/6
f 166/23/7 32/24/7 33/10/7 160/9/7
f 163/25/8 25/26/8 26/14/8 162/13/8
f 167/27/9 35/28/9 36/18/9 164/17/9
f 168/29/10 28/30/10 29/22/10 165/21/10
f 157/8/11 31/7/11 32/24/11 166/23/11
f 159/12/12 34/11/12 35/28/12 167/27/12
f 161/16/13 27/15/13 28/30/13 168/29/13
f 42/31/14 43/32/14 55/33/14 54/34/14
f 45/35/15 46/36/15 58/37/15 57/38/15
f 38/39/16 39/40/16 51/41/16 50/42/16
f 48/43/17 37/44/17 49/45/17 60/46/17
f 41/47/18 42/31/18 54/34/18 53/48/18
f 44/49/19 45/35/19 57/38/19 56/50/19
f 37/51/20 38/39/20 50/42/20 49/52/20
f 47/53/21 48/43/21 60/46/21 59/54/21
f 40/55/22 41/47/22 53/48/22 52/56/22
f 43/32/23 44/49/23 56/50/23 55/33/23
f 46/36/1 47/53/1 59/54/1 58/37/1
f 39/40/24 40/55/24 52/56/24 51/41/24
f 35/28/25 34/11/25 58/37/25 59/54/25
f 17/57/26 18/58/26 42/59/26 41/60/26
f 27/15/25 26/14/25 50/42/25 51/41/25
f 24/61/26 13/62/26 37/63/26 48/64/26
f 34/11/25 33/10/25 57/38/25 58/37/25
f 16/65/26 17/57/26 41/60/26 40/66/26
f 26/14/25 25/26/25 49/52/25 50/42/25
f 23/67/26 24/61/26 48/64/26 47/68/26
f 33/10/25 32/24/25 56/50/25 57/38/25
f 15/69/26 16/65/26 40/66/26 39/70/26
f 22/71/26 23/67/26 47/68/26 46/72/26
f 32/24/25 31/7/25 55/33/25 56/50/25
f 14/73/26 15/69/26 39/70/26 38/74/26
f 21/75/26 22/71/26 46/72/26 45/76/26
f 31/7/25 30/6/25 54/34/25 55/33/25
f 13/77/26 14/73/26 38/74/26 37/78/26
f 20/79/26 21/75/26 45/76/26 44/80/26
f 30/6/25 29/22/25 53/48/25 54/34/25
f 25/19/25 36/18/25 60/46/25 49/45/25
f 19/81/26 20/79/26 44/80/26 43/82/26
f 29/22/25 28/30/25 52/56/25 53/48/25
f 36/18/25 35/28/25 59/54/25 60/46/25
f 18/58/26 19/81/26 43/82/26 42/59/26
f 28/30/25 27/15/25 51/41/25 52/56/25
f 156/83/27 72/84/27 61/85/27 145/86/27
f 145/86/28 61/85/28 62/87/28 146/88/28
f 146/88/29 62/87/29 63/89/29 147/90/29
f 147/90/30 63/89/30 64/91/30 148/92/30
f 148/92/31 64/91/31 65/93/31 149/94/31
f 149/94/32 65/93/32 66/95/32 150/96/32
f 150/96/33 66/95/33 67/97/33 151/98/33
f 151/98/34 67/97/34 68/99/34 152/100/34
f 152/100/35 68/99/35 69/101/35 153/102/35
f 153/102/36 69/101/36 70/103/36 154/104/36
f 154/104/37 70/103/37 71/105/37 155/106/37
f 155/106/38 71/105/38 72/107/38 156/108/38
f 12/109/39 1/110/39 73/111/39 84/112/39
f 1/113/40 2/114/40 74/115/40 73/116/40
f 3/117/15 4/1/15 76/4/15 75/118/15
f 11/119/41 12/109/41 84/112/41 83/120/41
f 2/114/42 3/117/42 75/118/42 74/115/42
f 10/121/43 11/119/43 83/120/43 82/122/43
f 9/123/44 10/121/44 82/122/44 81/124/44
f 8/125/45 9/123/45 81/124/45 80/126/45
f 7/127/46 8/125/46 80/126/46 79/128/46
f 6/129/47 7/127/47 79/128/47 78/130/47
f 5/2/48 6/129/48 78/130/48 77/3/48
f 88/131/49 85/132/49 86/133/49 87/134/49
f 90/135/50 88/131/50 87/134/50 89/136/50
f 92/137/51 90/135/51 89/136/51 91/138/51
f 94/139/52 92/137/52 91/138/52 93/140/52
f 96/141/53 94/139/53 93/140/53 95/142/53
f 98/143/54 96/141/54 95/142/54 97/144/54
f 100/145/55 98/143/55 97/144/55 99/146/55
f 102/147/56 100/145/56 99/146/56 101/148/56
f 104/149/57 102/147/57 101/148/57 103/150/57
f 106/151/58 104/149/58 103/150/58 105/152/58
f 108/153/59 106/151/59 105/152/59 107/154/59
f 85/155/60 108/153/60 107/154/60 86/133/60
f 111/156/61 85/157/61 88/158/61 112/159/61
f 87/134/25 86/133/25 107/154/25 105/152/25 103/150/25 101/148/25 99/146/25 97/144/25 95/142/25 93/140/25 91/138/25 89/136/25
f 117/160/62 108/161/62 85/162/62 111/163/62
f 112/159/63 88/158/63 90/164/63 118/165/63
f 118/165/64 90/164/64 92/166/64 121/167/64
f 121/167/65 92/166/65 94/168/65 124/169/65
f 124/169/66 94/168/66 96/170/66 127/171/66
f 127/171/67 96/170/67 98/172/67 130/173/67
f 130/173/68 98/172/68 100/174/68 133/175/68
f 133/175/69 100/174/69 102/176/69 136/177/69
f 136/177/70 102/176/70 104/178/70 139/179/70
f 139/179/71 104/178/71 106/180/71 142/181/71
f 142/181/72 106/180/72 108/161/72 117/160/72
f 70/182/73 144/183/73 115/184/73 71/185/73
f 144/183/74 143/186/74 116/187/74 115/184/74
f 143/186/75 142/181/75 117/160/75 116/187/75
f 69/188/76 141/189/76 144/183/76 70/182/76
f 141/189/77 140/190/77 143/186/77 144/183/77
f 140/190/78 139/179/78 142/181/78 143/186/78
f 68/191/79 138/192/79 141/189/79 69/188/79
f 138/192/80 137/193/80 140/190/80 141/189/80
f 137/193/81 136/177/81 139/179/81 140/190/81
f 67/194/82 135/195/82 138/192/82 68/191/82
f 135/195/83 134/196/83 137/193/83 138/192/83
f 134/196/84 133/175/84 136/177/84 137/193/84
f 66/197/85 132/198/85 135/195/85 67/194/85
f 132/198/86 131/199/86 134/196/86 135/195/86
f 131/199/87 130/173/87 133/175/87 134/196/87
f 65/200/88 129/201/88 132/198/88 66/197/88
f 129/201/89 128/202/89 131/199/89 132/198/89
f 128/202/90 127/171/90 130/173/90 131/199/90
f 64/203/91 126/204/91 129/201/91 65/200/91
f 126/204/92 125/205/92 128/202/92 129/201/92
f 125/205/93 124/169/93 127/171/93 128/202/93
f 63/206/94 123/207/94 126/204/94 64/203/94
f 123/207/95 122/208/95 125/205/95 126/204/95
f 122/208/96 121/167/96 124/169/96 125/205/96
f 62/209/97 120/210/97 123/207/97 63/206/97
f 120/210/98 119/211/98 122/208/98 123/207/98
f 119/211/99 118/165/99 121/167/99 122/208/99
f 61/212/100 114/213/100 120/210/100 62/209/100
f 114/213/101 113/214/101 119/211/101 120/210/101
f 113/214/102 112/159/102 118/165/102 119/211/102
f 71/185/103 115/184/103 109/215/103 72/216/103
f 115/184/104 116/187/104 110/217/104 109/215/104
f 116/187/105 117/160/105 111/163/105 110/217/105
f 72/218/106 109/219/106 114/213/106 61/212/106
f 109/219/107 110/220/107 113/214/107 114/213/107
f 110/220/108 111/156/108 112/159/108 113/214/108
f 12/221/109 155/106/109 156/108/109 1/222/109
f 11/223/110 154/104/110 155/106/110 12/221/110
f 10/224/111 153/102/111 154/104/111 11/223/111
f 9/225/112 152/100/112 153/102/112 10/224/112
f 8/226/113 151/98/113 152/100/113 9/225/113
f 7/227/114 150/96/114 151/98/114 8/226/114
f 6/228/115 149/94/115 150/96/115 7/227/115
f 5/229/116 148/92/116 149/94/116 6/228/116
f 4/230/117 147/90/117 148/92/117 5/229/117
f 3/231/118 146/88/118 147/90/118 4/230/118
f 2/232/119 145/86/119 146/88/119 3/231/119
f 1/233/120 156/83/120 145/86/120 2/232/120
f 15/69/121 161/16/121 168/29/121 16/65/121
f 22/71/122 159/12/122 167/27/122 23/67/122
f 19/81/123 157/8/123 166/23/123 20/79/123
f 16/65/124 168/29/124 165/21/124 17/57/124
f 23/67/125 167/27/125 164/17/125 24/61/125
f 13/77/126 163/25/126 162/13/126 14/73/126
f 20/79/127 166/23/127 160/9/127 21/75/127
f 17/57/128 165/21/128 158/5/128 18/58/128
f 24/61/129 164/17/129 163/20/129 13/62/129
f 14/73/130 162/13/130 161/16/130 15/69/130
f 21/75/131 160/9/131 159/12/131 22/71/131
f 18/58/132 158/5/132 157/8/132 19/81/132
f 173/234/133 185/235/133 186/236/133 174/237/133
f 173/238/134 174/239/134 178/240/134 177/241/134
f 172/242/25 170/243/25 174/244/25
f 169/245/135 175/246/135 176/247/135 170/248/135
f 169/249/26 171/250/26 173/251/26
f 170/248/25 176/247/25 178/240/25 174/239/25
f 169/245/26 173/252/26 177/253/26 175/246/26
f 170/254/25 172/255/25 182/256/25 180/257/25
f 171/258/26 169/259/26 179/260/26 181/261/26
f 172/262/25 174/237/25 186/236/25 184/263/25
f 173/264/26 171/265/26 183/266/26 185/267/26
f 184/263/136 183/266/136 171/265/136 172/262/136
f 169/259/137 170/254/137 180/257/137 179/260/137
f 172/255/138 171/268/138 181/269/138 182/256/138
