# Apple ModelIO OBJ File: Light_Big_Cozy
mtllib Light_Big_Cozy.mtl
g Lampe_Big_Cozy
v 14.0412 7.08246 1.58223
v 14.0089 7.08246 1.70284
v 14.0089 7.00166 1.70284
v 14.0412 7.00166 1.58223
v 13.9165 8.29394 1.78392
v 13.9165 8.40166 1.78392
v 13.7943 8.28992 1.82477
v 13.8 8.40166 1.81513
v 13.6107 8.26641 1.69925
v 13.5983 8.40166 1.69867
v 13.5553 8.25324 1.57049
v 13.5671 8.40166 1.58221
v 13.9165 8.25484 1.38049
v 13.9248 8.40166 1.36875
v 14.01 8.40166 1.454
v 13.996 8.26827 1.47539
v 13.6778 8.24074 1.39013
v 13.6906 8.40166 1.38828
v 13.8 8.40166 1.34928
v 13.7882 8.24476 1.33757
v 13.9899 8.29084 1.68696
v 14.0088 8.40166 1.70646
v 13.6778 8.27984 1.79357
v 13.6919 8.40166 1.77218
v 13.5983 8.24384 1.46574
v 13.5983 8.40166 1.46574
v 14.033 8.28145 1.58221
v 14.033 8.40166 1.58221
v 13.8851 8.10166 1.72958
v 13.8001 8.10166 1.76514
v 13.8915 8.40166 1.74063
v 13.8001 8.40166 1.76514
v 13.6416 8.10166 1.67367
v 13.6171 8.10166 1.5822
v 13.6171 8.40166 1.5822
v 13.6416 8.40166 1.67367
v 13.8915 8.10166 1.42376
v 13.9659 8.10166 1.49207
v 13.9667 8.40166 1.47909
v 13.8997 8.40166 1.41213
v 13.7086 8.10166 1.42376
v 13.8061 8.10166 1.4146
v 13.7155 8.40166 1.43148
v 13.8001 8.40166 1.39925
v 13.9585 8.10166 1.67367
v 13.9655 8.40166 1.68139
v 13.7143 8.10166 1.73065
v 13.7168 8.40166 1.729
v 13.6416 8.10166 1.49072
v 13.6416 8.40166 1.49072
v 13.9904 8.10166 1.58355
v 13.983 8.40166 1.5822
v 14.0018 8.10166 1.69867
v 13.91 8.10166 1.77276
v 13.6836 8.10166 1.38049
v 13.8061 8.10166 1.36478
v 14.0404 8.10166 1.58357
v 13.5983 8.10166 1.46574
v 14.0092 8.10166 1.46711
v 13.5671 8.10166 1.58221
v 13.9165 8.10166 1.38049
v 13.5983 8.10166 1.69867
v 13.6893 8.10166 1.77384
v 13.8 8.10166 1.81513
v 13.7884 7.10023 1.42282
v 13.8 7.20166 1.53223
v 13.825 7.20166 1.53893
v 13.8612 7.13531 1.44233
v 13.8433 7.20166 1.55723
v 13.9145 7.13531 1.49563
v 13.85 7.20166 1.58223
v 13.934 7.14373 1.56843
v 13.8433 7.20166 1.60723
v 13.9145 7.14373 1.64124
v 13.8612 7.13531 1.69453
v 13.825 7.20166 1.62553
v 13.7884 7.13531 1.71404
v 13.8 7.20166 1.63223
v 13.775 7.20166 1.62553
v 13.7156 7.13531 1.69453
v 13.6623 7.10023 1.64124
v 13.7567 7.20166 1.60723
v 13.75 7.20166 1.58223
v 13.6428 7.13531 1.56843
v 13.7567 7.20166 1.55723
v 13.6623 7.13531 1.49563
v 13.7156 7.13531 1.44233
v 13.775 7.20166 1.53893
v 13.6794 7.05166 1.37333
v 13.8 7.05166 1.34101
v 13.8 7.00166 1.34101
v 13.6794 7.00166 1.37333
v 13.9206 7.03398 1.37333
v 13.9206 7.00166 1.37333
v 14.0089 7.05166 1.46162
v 14.0089 7.00166 1.46162
v 13.5911 7.07006 1.46162
v 13.5911 7.00166 1.46162
v 13.5588 7.07006 1.58223
v 13.5588 7.00166 1.58223
v 13.5911 7.05166 1.70284
v 13.5911 7.00166 1.70284
v 13.6794 7.05166 1.79113
v 13.6794 7.00166 1.79113
v 13.8 7.05166 1.82345
v 13.8 7.00166 1.82345
v 13.9206 7.08246 1.79113
v 13.9206 7.00166 1.79113
v 13.825 8.48534 1.53893
v 13.8 8.49069 1.53223
v 13.8 8.50166 1.54912
v 13.8166 8.50166 1.55356
v 13.8433 8.4715 1.55723
v 13.8287 8.50166 1.56568
v 13.85 8.49069 1.58223
v 13.8331 8.50166 1.58223
v 13.8433 8.48534 1.60723
v 13.8287 8.50166 1.59879
v 13.825 8.48534 1.62553
v 13.8166 8.50166 1.61091
v 13.8 8.4715 1.63223
v 13.8 8.50166 1.61534
v 13.775 8.4715 1.62553
v 13.7834 8.50166 1.61091
v 13.7567 8.49069 1.60723
v 13.7713 8.50166 1.59879
v 13.75 8.4715 1.58223
v 13.7669 8.50166 1.58223
v 13.7567 8.48534 1.55723
v 13.7713 8.50166 1.56568
v 13.775 8.4715 1.53893
v 13.7834 8.50166 1.55356
v 13.817 8.16442 1.51266
v 13.842 8.16442 1.51936
v 13.792 8.16442 1.51936
v 13.8603 8.16442 1.53766
v 13.867 8.16442 1.56266
v 13.8603 8.16442 1.58766
v 13.842 8.16442 1.60596
v 13.817 8.16442 1.61266
v 13.792 8.16442 1.60596
v 13.7737 8.16442 1.58766
v 13.767 8.16442 1.56266
v 13.7737 8.16442 1.53766
v 13.7704 7.52258 1.57158
v 13.7887 7.52258 1.55328
v 13.7352 7.8435 1.55658
v 13.7535 7.8435 1.53828
v 13.7637 7.52258 1.59658
v 13.7285 7.8435 1.58158
v 13.7704 7.52258 1.62158
v 13.7352 7.8435 1.60658
v 13.7887 7.52258 1.63988
v 13.7535 7.8435 1.62488
v 13.8137 7.52258 1.64658
v 13.7785 7.8435 1.63158
v 13.8387 7.52258 1.63988
v 13.8035 7.8435 1.62488
v 13.857 7.52258 1.62158
v 13.8218 7.8435 1.60658
v 13.8637 7.52258 1.59658
v 13.8285 7.8435 1.58158
v 13.857 7.52258 1.57158
v 13.8218 7.8435 1.55658
v 13.8387 7.52258 1.55328
v 13.8035 7.8435 1.53828
v 13.8137 7.52258 1.54658
v 13.7785 7.8435 1.53158
v 13.785 8.24298 1.5909
v 13.785 8.24298 1.79333
v 13.785 8.26033 1.79333
v 13.785 8.26033 1.5909
v 13.6095 8.26033 1.48969
v 13.6095 8.24298 1.48969
v 13.815 8.26033 1.5909
v 13.8 8.26033 1.56489
v 13.8 8.24298 1.56489
v 13.6245 8.24298 1.46368
v 13.6245 8.26033 1.46368
v 13.815 8.24298 1.5909
v 13.9755 8.26033 1.46368
v 13.9905 8.26033 1.48969
v 13.9755 8.24298 1.46368
v 13.9905 8.24298 1.48969
v 13.815 8.26033 1.79333
v 13.815 8.24298 1.79333
vn 0.9659 -0 0.2588
vn 0.2883 0.0345 0.9569
vn -0.9425 -0.0149 0.3338
vn 0.7361 -0.1371 -0.6628
vn -0.3847 0.0584 -0.9212
vn 0.7184 -0.1231 0.6846
vn -0.7235 0.0635 0.6874
vn 0.2399 -0.016 -0.9707
vn -0.665 0.0224 -0.7465
vn 0.9534 -0.1018 0.284
vn -0.316 0.1513 0.9366
vn -0.9463 0.0488 -0.3197
vn 0.9673 -0.0741 -0.2425
vn -0.3222 0.0209 -0.9464
vn 0.9659 -0 -0.2588
vn -0.691 0.04 0.7218
vn 0.2217 0.0121 0.975
vn -0.6153 0.0384 -0.7873
vn 0.605 -0.0047 -0.7962
vn -0.1181 0.045 0.992
vn 0.6672 -0.0173 0.7447
vn -0.9675 0.002 -0.2527
vn 0.3855 -0.0041 -0.9227
vn -0.9787 -0.0058 0.2053
vn -0 1 -0
vn -0 -1 -0
vn -0.1042 0.7651 -0.6355
vn 0.4081 0.8167 -0.4081
vn 0.5445 0.8106 -0.2156
vn 0.5781 0.8011 0.1549
vn 0.408 0.7652 0.498
vn 0.1702 0.7534 0.6352
vn -0.1628 0.7776 0.6074
vn -0.6244 0.735 0.2643
vn -0.5592 0.7214 0.4086
vn -0.5084 0.8502 -0.1362
vn -0.3644 0.857 -0.3644
vn 0.0971 0.7551 -0.6484
vn -0.2588 -0 -0.9659
vn 0.2588 -0 -0.9659
vn -0.7071 -0 -0.7071
vn 0.7071 -0 -0.7071
vn -0.9659 -0 -0.2588
vn -0.9659 -0 0.2588
vn -0.7071 -0 0.7071
vn -0.2588 -0 0.9659
vn 0.2588 -0 0.9659
vn 0.7071 -0 0.7071
vn 0.2569 0.7637 -0.5923
vn 0.6976 0.5651 -0.4405
vn 0.6601 0.5989 -0.4534
vn 0.5923 0.7637 0.2569
vn 0.5 0.7071 0.5
vn 0.0327 0.5651 0.8244
vn -0.2276 0.4758 0.8496
vn -0.3449 0.5989 0.7227
vn -0.7983 0.5989 -0.0626
vn -0.8244 0.5651 -0.0327
vn -0.4405 0.5651 -0.6976
vn -0.4534 0.5989 -0.6601
vn 0.2653 0.0721 -0.9615
vn -0.2745 0.0447 -0.9605
vn 0.72 0.0818 -0.6891
vn 0.9567 0.0687 -0.2827
vn 0.9644 0.0347 0.2621
vn 0.7071 -0.0057 0.7071
vn 0.2702 -0.0453 0.9617
vn -0.2581 -0.0756 0.9632
vn -0.7257 -0.0811 0.6832
vn -0.9567 -0.0687 0.2827
vn -0.9628 -0.0353 -0.2678
vn -0.706 0.006 -0.7082
vn -0.7058 0.0617 -0.7058
vn -0.7028 -0.11 -0.7028
vn -0.7065 0.0431 -0.7065
vn -0.9646 0.0527 -0.2585
vn -0.9593 -0.1173 -0.257
vn -0.9611 0.1001 -0.2575
vn -0.9655 0.0296 0.2587
vn -0.9617 -0.0935 0.2577
vn -0.9577 0.13 0.2566
vn -0.7071 -0.0014 0.7071
vn -0.7064 -0.0445 0.7064
vn -0.7015 0.1255 0.7015
vn -0.2587 -0.0321 0.9654
vn -0.2588 0.0167 0.9658
vn -0.2578 0.0876 0.9622
vn 0.2584 -0.0542 0.9645
vn 0.2581 0.0734 0.9633
vn 0.2587 0.0259 0.9656
vn 0.7058 -0.0617 0.7058
vn 0.7028 0.11 0.7028
vn 0.7065 -0.0431 0.7065
vn 0.9646 -0.0527 0.2585
vn 0.9593 0.1173 0.257
vn 0.9611 -0.1001 0.2575
vn 0.9655 -0.0296 -0.2587
vn 0.9617 0.0935 -0.2577
vn 0.9577 -0.13 -0.2566
vn 0.7071 0.0014 -0.7071
vn 0.7064 0.0445 -0.7064
vn 0.7015 -0.1255 -0.7015
vn -0.2584 0.0542 -0.9645
vn -0.2581 -0.0734 -0.9633
vn -0.2587 -0.0259 -0.9656
vn 0.2587 0.0321 -0.9654
vn 0.2588 -0.0167 -0.9658
vn 0.2578 -0.0876 -0.9622
vn -0.0387 0.7545 -0.6552
vn -0.4539 0.7045 -0.5455
vn -0.622 0.7651 -0.1667
vn -0.4394 0.8286 0.3469
vn -0.5144 0.7968 0.317
vn -0.1635 0.7752 0.6102
vn 0.014 0.8357 0.549
vn 0.2979 0.8878 0.3507
vn 0.4795 0.8681 0.1285
vn 0.5358 0.7879 -0.3033
vn 0.4645 0.6932 -0.5511
vn 0.1145 0.731 -0.6727
vn 0.9535 0.0628 -0.2949
vn -0.9475 -0.0508 -0.3158
vn -0.2991 -0.0903 0.9499
vn 0.9365 0.0612 0.3454
vn -0.6985 0.0102 -0.7155
vn 0.2408 -0.0743 -0.9677
vn -0.7292 -0.0386 0.6832
vn 0.7194 0.011 0.6945
vn -0.279 -0.083 -0.9567
vn 0.7229 0.0478 -0.6893
vn -0.943 0.0133 0.3324
vn 0.3377 -0.052 0.9398
vn -1 -0 -0
vn -0.4996 -0 0.8663
vn 0.4996 -0 -0.8663
vn 1 -0 -0
vn -0.4996 -0 -0.8663
vn 0.4996 -0 0.8663
vt 0.046791 0.21363
vt 0.046791 0.284538
vt 0.000905 0.284538
vt 0.000905 0.21363
vt 0.201304 0.337908
vt 0.256238 0.339684
vt 0.19872 0.400662
vt 0.251817 0.397768
vt 0.184939 0.512776
vt 0.24948 0.515242
vt 0.178202 0.580332
vt 0.24935 0.574811
vt 0.180616 0.083497
vt 0.261844 0.090123
vt 0.259963 0.152439
vt 0.188009 0.155551
vt 0.169372 0.692261
vt 0.256825 0.696585
vt 0.265825 0.763182
vt 0.166434 0.765766
vt 0.199357 0.276554
vt 0.254576 0.282336
vt 0.192651 0.457297
vt 0.25434 0.456266
vt 0.17106 0.000905
vt 0.276554 0.014031
vt 0.172419 0.635264
vt 0.249936 0.634538
vt 0.194884 0.217242
vt 0.258307 0.218562
vt 0.469771 0.348293
vt 0.46843 0.402716
vt 0.2809 0.341684
vt 0.280509 0.400054
vt 0.466032 0.514889
vt 0.465961 0.570454
vt 0.27738 0.573821
vt 0.278419 0.514359
vt 0.489188 0.115459
vt 0.482001 0.176498
vt 0.287453 0.154164
vt 0.293758 0.092041
vt 0.469598 0.67907
vt 0.473029 0.735515
vt 0.284154 0.692905
vt 0.292902 0.747896
vt 0.472281 0.293923
vt 0.283235 0.283084
vt 0.467254 0.460254
vt 0.280076 0.456664
vt 0.497827 0.063923
vt 0.306593 0.025129
vt 0.466951 0.625662
vt 0.277641 0.633284
vt 0.477162 0.235069
vt 0.28439 0.219615
vt 0.104972 0.279552
vt 0.104882 0.338905
vt 0.076791 0.282542
vt 0.077334 0.340134
vt 0.097627 0.689942
vt 0.073826 0.751717
vt 0.072352 0.685141
vt 0.0486 0.73719
vt 0.103976 0.217716
vt 0.072314 0.219935
vt 0.104031 0.633389
vt 0.077172 0.630953
vt 0.100868 0.155943
vt 0.071818 0.157841
vt 0.106087 0.575731
vt 0.078166 0.574426
vt 0.094606 0.092
vt 0.066742 0.09516
vt 0.107103 0.516424
vt 0.077265 0.514938
vt 0.077894 0.028706
vt 0.0486 0.0424
vt 0.105479 0.456621
vt 0.077684 0.455545
vt 0.110673 0.397676
vt 0.081958 0.397597
vt 0.958255 0.109695
vt 0.884237 0.152306
vt 0.873422 0.141999
vt 0.916529 0.089237
vt 0.859497 0.137011
vt 0.877866 0.074345
vt 0.844722 0.138195
vt 0.835058 0.07968
vt 0.831819 0.14554
vt 0.796611 0.100901
vt 0.768086 0.135122
vt 0.823082 0.157543
vt 0.759233 0.178188
vt 0.819905 0.171991
vt 0.822809 0.186554
vt 0.768025 0.220546
vt 0.784781 0.264092
vt 0.831371 0.198636
vt 0.844029 0.206203
vt 0.829072 0.276192
vt 0.858718 0.207641
vt 0.870518 0.279953
vt 0.9094 0.266504
vt 0.872613 0.202766
vt 0.951011 0.245444
vt 0.883379 0.19237
vt 0.029299 0.780897
vt 0.029299 0.851806
vt 0.000905 0.851806
vt 0.000905 0.780897
vt 0.029299 0.000905
vt 0.019258 0.071813
vt 0.000905 0.071813
vt 0.000905 0.000905
vt 0.029299 0.142721
vt 0.000905 0.142721
vt 0.039748 0.709989
vt 0.000905 0.709989
vt 0.039748 0.639081
vt 0.000905 0.639081
vt 0.029299 0.568172
vt 0.000905 0.568172
vt 0.029299 0.497264
vt 0.000905 0.497264
vt 0.029299 0.426355
vt 0.000905 0.426355
vt 0.046791 0.355447
vt 0.000905 0.355447
vt 0.727991 0.756627
vt 0.711848 0.756627
vt 0.713262 0.744579
vt 0.722841 0.743986
vt 0.74559 0.752211
vt 0.730726 0.738749
vt 0.746506 0.732218
vt 0.734728 0.730196
vt 0.746618 0.715417
vt 0.733861 0.720832
vt 0.73673 0.702355
vt 0.728604 0.713179
vt 0.722952 0.689955
vt 0.720407 0.709388
vt 0.707011 0.690696
vt 0.711329 0.709639
vt 0.695163 0.706655
vt 0.703683 0.714531
vt 0.680113 0.719326
vt 0.699503 0.722725
vt 0.687287 0.735746
vt 0.700106 0.731894
vt 0.690194 0.753192
vt 0.70481 0.739863
vt 0.709384 0.755901
vt 0.678129 0.550937
vt 0.678304 0.736166
vt 0.663764 0.732657
vt 0.663579 0.551411
vt 0.514358 0.550641
vt 0.517496 0.726861
vt 0.502247 0.736977
vt 0.499637 0.5511
vt 0.649163 0.551764
vt 0.648853 0.724844
vt 0.63473 0.551936
vt 0.634481 0.736478
vt 0.620238 0.551862
vt 0.619458 0.734466
vt 0.604839 0.735612
vt 0.605522 0.551575
vt 0.590606 0.551166
vt 0.589719 0.728762
vt 0.575384 0.550706
vt 0.575233 0.729293
vt 0.560684 0.740007
vt 0.560012 0.550348
vt 0.546626 0.728752
vt 0.544598 0.550217
vt 0.531558 0.735661
vt 0.529375 0.550301
vt 0.529362 0.000905
vt 0.530324 0.184287
vt 0.515446 0.184045
vt 0.514857 0.000941
vt 0.531277 0.366383
vt 0.517021 0.366933
vt 0.543839 0.001287
vt 0.545276 0.184325
vt 0.545365 0.365652
vt 0.558327 0.001967
vt 0.560126 0.18411
vt 0.559448 0.364942
vt 0.572871 0.002746
vt 0.574773 0.183687
vt 0.573677 0.364455
vt 0.587502 0.003401
vt 0.589193 0.18316
vt 0.588127 0.364289
vt 0.602225 0.003743
vt 0.603424 0.182654
vt 0.602875 0.364506
vt 0.617029 0.003686
vt 0.617527 0.18225
vt 0.617921 0.36505
vt 0.631796 0.003227
vt 0.63165 0.182071
vt 0.633133 0.365726
vt 0.646484 0.002485
vt 0.645839 0.182122
vt 0.648373 0.366346
vt 0.661078 0.001658
vt 0.66017 0.182376
vt 0.663489 0.366728
vt 0.500697 0.183656
vt 0.50036 0.001409
vt 0.502523 0.367169
vt 0.675694 0.000967
vt 0.6747 0.182751
vt 0.678304 0.366724
vt 0.945267 0.319292
vt 0.999095 0.272076
vt 0.874583 0.337652
vt 0.802883 0.33083
vt 0.737136 0.299901
vt 0.695709 0.242232
vt 0.680113 0.172865
vt 0.70279 0.103235
vt 0.746074 0.046604
vt 0.808893 0.013641
vt 0.880647 0.000905
vt 0.949639 0.02118
vt 0.999095 0.073376
vt 0.733923 0.573189
vt 0.733923 0.688146
vt 0.724075 0.688146
vt 0.724075 0.573189
vt 0.733923 0.454508
vt 0.724075 0.454508
vt 0.724075 0.339461
vt 0.733923 0.339461
vt 0.750504 0.339461
vt 0.750504 0.356518
vt 0.735732 0.34799
vt 0.69717 0.454516
vt 0.69717 0.339469
vt 0.707018 0.339469
vt 0.707018 0.454516
vt 0.750504 0.366856
vt 0.735732 0.375385
vt 0.735732 0.358328
vt 0.680113 0.454508
vt 0.680113 0.339461
vt 0.707018 0.456325
vt 0.724075 0.456333
vt 0.707018 0.571372
vt 0.724075 0.57138
vt 0.680113 0.456333
vt 0.69717 0.456325
vt 0.69717 0.571372
vt 0.680113 0.57138
vt 0.707018 0.573189
vt 0.707018 0.688146
vt 0.680113 0.573189
vt 0.69717 0.573189
vt 0.69717 0.688146
vt 0.680113 0.688146
vt 0.733923 0.456333
vt 0.733923 0.57138
usemtl 
f 1/1/1 2/2/1 3/3/1
f 1/1/1 3/3/1 4/4/1
f 5/5/2 6/6/2 7/7/2
f 6/6/2 8/8/2 7/7/2
f 9/9/3 10/10/3 11/11/3
f 10/10/3 12/12/3 11/11/3
f 13/13/4 14/14/4 15/15/4
f 13/13/4 15/15/4 16/16/4
f 17/17/5 18/18/5 19/19/5
f 17/17/5 19/19/5 20/20/5
f 21/21/6 22/22/6 6/6/6
f 21/21/6 6/6/6 5/5/6
f 23/23/7 24/24/7 10/10/7
f 23/23/7 10/10/7 9/9/7
f 20/25/8 19/26/8 14/14/8
f 20/25/8 14/14/8 13/13/8
f 25/27/9 26/28/9 18/18/9
f 25/27/9 18/18/9 17/17/9
f 27/29/10 28/30/10 21/21/10
f 28/30/10 22/22/10 21/21/10
f 7/7/11 8/8/11 23/23/11
f 8/8/11 24/24/11 23/23/11
f 11/11/12 12/12/12 26/28/12
f 11/11/12 26/28/12 25/27/12
f 16/16/13 15/15/13 27/29/13
f 15/15/13 28/30/13 27/29/13
f 29/31/14 30/32/14 31/33/14
f 30/32/14 32/34/14 31/33/14
f 33/35/15 34/36/15 35/37/15
f 33/35/15 35/37/15 36/38/15
f 37/39/16 38/40/16 39/41/16
f 37/39/16 39/41/16 40/42/16
f 41/43/17 42/44/17 43/45/17
f 42/44/17 44/46/17 43/45/17
f 45/47/18 29/31/18 31/33/18
f 45/47/18 31/33/18 46/48/18
f 47/49/19 33/35/19 48/50/19
f 33/35/19 36/38/19 48/50/19
f 42/51/20 37/39/20 44/52/20
f 37/39/20 40/42/20 44/52/20
f 49/53/21 41/43/21 43/45/21
f 49/53/21 43/45/21 50/54/21
f 51/55/22 45/47/22 46/48/22
f 51/55/22 46/48/22 52/56/22
f 30/32/23 47/49/23 32/34/23
f 47/49/23 48/50/23 32/34/23
f 34/36/1 49/53/1 50/54/1
f 34/36/1 50/54/1 35/37/1
f 38/40/24 51/55/24 52/56/24
f 38/40/24 52/56/24 39/41/24
f 26/28/25 12/12/25 50/54/25
f 12/12/25 35/37/25 50/54/25
f 53/57/26 54/58/26 45/59/26
f 54/58/26 29/60/26 45/59/26
f 15/15/25 14/14/25 40/42/25
f 15/15/25 40/42/25 39/41/25
f 55/61/26 56/62/26 41/63/26
f 56/62/26 42/64/26 41/63/26
f 12/12/25 10/10/25 36/38/25
f 12/12/25 36/38/25 35/37/25
f 57/65/26 53/57/26 51/66/26
f 53/57/26 45/59/26 51/66/26
f 14/14/25 19/26/25 40/42/25
f 19/26/25 44/52/25 40/42/25
f 58/67/26 55/61/26 49/68/26
f 55/61/26 41/63/26 49/68/26
f 10/10/25 24/24/25 36/38/25
f 24/24/25 48/50/25 36/38/25
f 59/69/26 57/65/26 38/70/26
f 57/65/26 51/66/26 38/70/26
f 60/71/26 58/67/26 49/68/26
f 60/71/26 49/68/26 34/72/26
f 24/24/25 8/8/25 32/34/25
f 24/24/25 32/34/25 48/50/25
f 61/73/26 59/69/26 38/70/26
f 61/73/26 38/70/26 37/74/26
f 62/75/26 60/71/26 33/76/26
f 60/71/26 34/72/26 33/76/26
f 8/8/25 6/6/25 32/34/25
f 6/6/25 31/33/25 32/34/25
f 56/77/26 61/73/26 37/74/26
f 56/77/26 37/74/26 42/78/26
f 63/79/26 62/75/26 33/76/26
f 63/79/26 33/76/26 47/80/26
f 6/6/25 22/22/25 46/48/25
f 6/6/25 46/48/25 31/33/25
f 19/19/25 18/18/25 44/46/25
f 18/18/25 43/45/25 44/46/25
f 64/81/26 63/79/26 30/82/26
f 63/79/26 47/80/26 30/82/26
f 22/22/25 28/30/25 46/48/25
f 28/30/25 52/56/25 46/48/25
f 18/18/25 26/28/25 50/54/25
f 18/18/25 50/54/25 43/45/25
f 54/58/26 64/81/26 30/82/26
f 54/58/26 30/82/26 29/60/26
f 28/30/25 15/15/25 39/41/25
f 28/30/25 39/41/25 52/56/25
f 65/83/27 66/84/27 67/85/27
f 65/83/27 67/85/27 68/86/27
f 68/86/28 67/85/28 69/87/28
f 68/86/28 69/87/28 70/88/28
f 70/88/29 69/87/29 71/89/29
f 70/88/29 71/89/29 72/90/29
f 72/90/30 71/89/30 73/91/30
f 72/90/30 73/91/30 74/92/30
f 74/92/31 73/91/31 75/93/31
f 73/91/31 76/94/31 75/93/31
f 75/93/32 76/94/32 77/95/32
f 76/94/32 78/96/32 77/95/32
f 77/95/33 78/96/33 79/97/33
f 77/95/33 79/97/33 80/98/33
f 80/98/34 79/97/34 81/99/34
f 79/97/34 82/100/34 81/99/34
f 81/99/35 82/100/35 83/101/35
f 81/99/35 83/101/35 84/102/35
f 84/102/36 83/101/36 85/103/36
f 84/102/36 85/103/36 86/104/36
f 86/104/37 85/103/37 87/105/37
f 85/103/37 88/106/37 87/105/37
f 87/105/38 88/106/38 65/107/38
f 88/106/38 66/108/38 65/107/38
f 89/109/39 90/110/39 91/111/39
f 89/109/39 91/111/39 92/112/39
f 90/113/40 93/114/40 94/115/40
f 90/113/40 94/115/40 91/116/40
f 95/117/15 1/1/15 4/4/15
f 95/117/15 4/4/15 96/118/15
f 97/119/41 89/109/41 92/112/41
f 97/119/41 92/112/41 98/120/41
f 93/114/42 95/117/42 96/118/42
f 93/114/42 96/118/42 94/115/42
f 99/121/43 97/119/43 98/120/43
f 99/121/43 98/120/43 100/122/43
f 101/123/44 99/121/44 100/122/44
f 101/123/44 100/122/44 102/124/44
f 103/125/45 101/123/45 102/124/45
f 103/125/45 102/124/45 104/126/45
f 105/127/46 103/125/46 104/126/46
f 105/127/46 104/126/46 106/128/46
f 107/129/47 105/127/47 106/128/47
f 107/129/47 106/128/47 108/130/47
f 2/2/48 107/129/48 108/130/48
f 2/2/48 108/130/48 3/3/48
f 109/131/49 110/132/49 111/133/49
f 109/131/49 111/133/49 112/134/49
f 113/135/50 109/131/50 112/134/50
f 113/135/50 112/134/50 114/136/50
f 115/137/51 113/135/51 116/138/51
f 113/135/51 114/136/51 116/138/51
f 117/139/52 115/137/52 116/138/52
f 117/139/52 116/138/52 118/140/52
f 119/141/53 117/139/53 118/140/53
f 119/141/53 118/140/53 120/142/53
f 121/143/54 119/141/54 120/142/54
f 121/143/54 120/142/54 122/144/54
f 123/145/55 121/143/55 122/144/55
f 123/145/55 122/144/55 124/146/55
f 125/147/56 123/145/56 126/148/56
f 123/145/56 124/146/56 126/148/56
f 127/149/57 125/147/57 126/148/57
f 127/149/57 126/148/57 128/150/57
f 129/151/58 127/149/58 130/152/58
f 127/149/58 128/150/58 130/152/58
f 131/153/59 129/151/59 130/152/59
f 131/153/59 130/152/59 132/154/59
f 110/155/60 131/153/60 111/133/60
f 131/153/60 132/154/60 111/133/60
f 133/156/61 110/157/61 109/158/61
f 133/156/61 109/158/61 134/159/61
f 114/136/25 112/134/25 111/133/25
f 116/138/25 114/136/25 111/133/25
f 118/140/25 116/138/25 111/133/25
f 120/142/25 118/140/25 111/133/25
f 122/144/25 120/142/25 111/133/25
f 124/146/25 122/144/25 111/133/25
f 126/148/25 124/146/25 111/133/25
f 128/150/25 126/148/25 111/133/25
f 130/152/25 128/150/25 111/133/25
f 132/154/25 130/152/25 111/133/25
f 135/160/62 131/161/62 110/162/62
f 135/160/62 110/162/62 133/163/62
f 134/159/63 109/158/63 136/164/63
f 109/158/63 113/165/63 136/164/63
f 136/164/64 113/165/64 137/166/64
f 113/165/64 115/167/64 137/166/64
f 137/166/65 115/167/65 138/168/65
f 115/167/65 117/169/65 138/168/65
f 138/168/66 117/169/66 119/170/66
f 138/168/66 119/170/66 139/171/66
f 139/171/67 119/170/67 140/172/67
f 119/170/67 121/173/67 140/172/67
f 140/172/68 121/173/68 141/174/68
f 121/173/68 123/175/68 141/174/68
f 141/174/69 123/175/69 125/176/69
f 141/174/69 125/176/69 142/177/69
f 142/177/70 125/176/70 127/178/70
f 142/177/70 127/178/70 143/179/70
f 143/179/71 127/178/71 129/180/71
f 143/179/71 129/180/71 144/181/71
f 144/181/72 129/180/72 131/161/72
f 144/181/72 131/161/72 135/160/72
f 85/182/73 145/183/73 146/184/73
f 85/182/73 146/184/73 88/185/73
f 145/183/74 147/186/74 146/184/74
f 147/186/74 148/187/74 146/184/74
f 147/186/75 144/181/75 135/160/75
f 147/186/75 135/160/75 148/187/75
f 83/188/76 149/189/76 145/183/76
f 83/188/76 145/183/76 85/182/76
f 149/189/77 150/190/77 147/186/77
f 149/189/77 147/186/77 145/183/77
f 150/190/78 143/179/78 144/181/78
f 150/190/78 144/181/78 147/186/78
f 82/191/79 151/192/79 83/188/79
f 151/192/79 149/189/79 83/188/79
f 151/192/80 152/193/80 150/190/80
f 151/192/80 150/190/80 149/189/80
f 152/193/81 142/177/81 150/190/81
f 142/177/81 143/179/81 150/190/81
f 79/194/82 153/195/82 151/192/82
f 79/194/82 151/192/82 82/191/82
f 153/195/83 154/196/83 152/193/83
f 153/195/83 152/193/83 151/192/83
f 154/196/84 141/174/84 142/177/84
f 154/196/84 142/177/84 152/193/84
f 78/197/85 155/198/85 79/194/85
f 155/198/85 153/195/85 79/194/85
f 155/198/86 156/199/86 154/196/86
f 155/198/86 154/196/86 153/195/86
f 156/199/87 140/172/87 141/174/87
f 156/199/87 141/174/87 154/196/87
f 76/200/88 157/201/88 155/198/88
f 76/200/88 155/198/88 78/197/88
f 157/201/89 158/202/89 156/199/89
f 157/201/89 156/199/89 155/198/89
f 158/202/90 139/171/90 156/199/90
f 139/171/90 140/172/90 156/199/90
f 73/203/91 159/204/91 157/201/91
f 73/203/91 157/201/91 76/200/91
f 159/204/92 160/205/92 158/202/92
f 159/204/92 158/202/92 157/201/92
f 160/205/93 138/168/93 139/171/93
f 160/205/93 139/171/93 158/202/93
f 71/206/94 161/207/94 73/203/94
f 161/207/94 159/204/94 73/203/94
f 161/207/95 162/208/95 160/205/95
f 161/207/95 160/205/95 159/204/95
f 162/208/96 137/166/96 138/168/96
f 162/208/96 138/168/96 160/205/96
f 69/209/97 163/210/97 161/207/97
f 69/209/97 161/207/97 71/206/97
f 163/210/98 164/211/98 161/207/98
f 164/211/98 162/208/98 161/207/98
f 164/211/99 136/164/99 137/166/99
f 164/211/99 137/166/99 162/208/99
f 67/212/100 165/213/100 69/209/100
f 165/213/100 163/210/100 69/209/100
f 165/213/101 166/214/101 163/210/101
f 166/214/101 164/211/101 163/210/101
f 166/214/102 134/159/102 136/164/102
f 166/214/102 136/164/102 164/211/102
f 88/185/103 146/184/103 167/215/103
f 88/185/103 167/215/103 66/216/103
f 146/184/104 148/187/104 168/217/104
f 146/184/104 168/217/104 167/215/104
f 148/187/105 135/160/105 168/217/105
f 135/160/105 133/163/105 168/217/105
f 66/218/106 167/219/106 165/213/106
f 66/218/106 165/213/106 67/212/106
f 167/219/107 168/220/107 165/213/107
f 168/220/107 166/214/107 165/213/107
f 168/220/108 133/156/108 134/159/108
f 168/220/108 134/159/108 166/214/108
f 89/221/109 87/105/109 65/107/109
f 89/221/109 65/107/109 90/222/109
f 97/223/110 86/104/110 89/221/110
f 86/104/110 87/105/110 89/221/110
f 99/224/111 84/102/111 97/223/111
f 84/102/111 86/104/111 97/223/111
f 101/225/112 81/99/112 99/224/112
f 81/99/112 84/102/112 99/224/112
f 103/226/113 80/98/113 81/99/113
f 103/226/113 81/99/113 101/225/113
f 105/227/114 77/95/114 80/98/114
f 105/227/114 80/98/114 103/226/114
f 107/228/115 75/93/115 105/227/115
f 75/93/115 77/95/115 105/227/115
f 2/229/116 74/92/116 75/93/116
f 2/229/116 75/93/116 107/228/116
f 1/230/117 72/90/117 2/229/117
f 72/90/117 74/92/117 2/229/117
f 95/231/118 70/88/118 72/90/118
f 95/231/118 72/90/118 1/230/118
f 93/232/119 68/86/119 70/88/119
f 93/232/119 70/88/119 95/231/119
f 90/233/120 65/83/120 93/232/120
f 65/83/120 68/86/120 93/232/120
f 59/69/121 16/16/121 57/65/121
f 16/16/121 27/29/121 57/65/121
f 60/71/122 11/11/122 25/27/122
f 60/71/122 25/27/122 58/67/122
f 64/81/123 7/7/123 63/79/123
f 7/7/123 23/23/123 63/79/123
f 57/65/124 27/29/124 53/57/124
f 27/29/124 21/21/124 53/57/124
f 58/67/125 25/27/125 17/17/125
f 58/67/125 17/17/125 55/61/125
f 56/77/126 20/25/126 13/13/126
f 56/77/126 13/13/126 61/73/126
f 63/79/127 23/23/127 9/9/127
f 63/79/127 9/9/127 62/75/127
f 53/57/128 21/21/128 5/5/128
f 53/57/128 5/5/128 54/58/128
f 55/61/129 17/17/129 56/62/129
f 17/17/129 20/20/129 56/62/129
f 61/73/130 13/13/130 59/69/130
f 13/13/130 16/16/130 59/69/130
f 62/75/131 9/9/131 60/71/131
f 9/9/131 11/11/131 60/71/131
f 54/58/132 5/5/132 64/81/132
f 5/5/132 7/7/132 64/81/132
f 169/234/133 170/235/133 171/236/133
f 169/234/133 171/236/133 172/237/133
f 169/238/134 172/239/134 173/240/134
f 169/238/134 173/240/134 174/241/134
f 175/242/25 176/243/25 172/244/25
f 177/245/135 178/246/135 179/247/135
f 177/245/135 179/247/135 176/248/135
f 177/249/26 180/250/26 169/251/26
f 176/248/25 179/247/25 172/239/25
f 179/247/25 173/240/25 172/239/25
f 177/245/26 169/252/26 178/246/26
f 169/252/26 174/253/26 178/246/26
f 176/254/25 175/255/25 181/256/25
f 175/255/25 182/257/25 181/256/25
f 180/258/26 177/259/26 183/260/26
f 180/258/26 183/260/26 184/261/26
f 175/262/25 172/237/25 171/236/25
f 175/262/25 171/236/25 185/263/25
f 169/264/26 180/265/26 186/266/26
f 169/264/26 186/266/26 170/267/26
f 185/263/136 186/266/136 180/265/136
f 185/263/136 180/265/136 175/262/136
f 177/259/137 176/254/137 181/256/137
f 177/259/137 181/256/137 183/260/137
f 175/255/138 180/268/138 184/269/138
f 175/255/138 184/269/138 182/257/138
s off
