# Apple ModelIO OBJ File: Pipe_curve
mtllib Pipe_curve.mtl
g Pipe_Curve
v 13.736 8.1691 0.646191
v 13.637 8.1691 0.646191
v 13.637 8.12387 0.627458
v 13.736 8.12387 0.627458
v 13.5048 7.9831 0.537005
v 13.5048 8.0751 0.537005
v 13.55 8.0751 0.518272
v 13.55 7.9831 0.518272
v 13.637 8.10514 0.582231
v 13.736 8.10514 0.582231
v 13.486 7.9831 0.582231
v 13.486 8.0751 0.582231
v 13.736 8.23306 0.582231
v 13.637 8.23306 0.582231
v 13.637 8.21432 0.627458
v 13.736 8.21432 0.627458
v 13.5048 7.9831 0.627458
v 13.5048 8.0751 0.627458
v 13.736 8.21432 0.537005
v 13.637 8.21432 0.537005
v 13.55 7.9831 0.646191
v 13.55 8.0751 0.646191
v 13.736 8.12387 0.537005
v 13.637 8.12387 0.537005
v 13.637 8.1691 0.518272
v 13.736 8.1691 0.518272
v 13.5952 7.9831 0.627458
v 13.5952 8.0751 0.627458
v 13.614 7.9831 0.582231
v 13.614 8.0751 0.582231
v 13.5952 7.9831 0.537005
v 13.5952 8.0751 0.537005
v 13.5444 8.16897 0.537005
v 13.5775 8.13811 0.518272
v 13.5307 8.18175 0.582231
v 13.5444 8.16897 0.627458
v 13.5775 8.13811 0.646191
v 13.6105 8.10725 0.627458
v 13.6242 8.09446 0.582231
v 13.6105 8.10725 0.537005
v 13.7106 8.1953 0.678947
v 13.7121 8.2002 0.688381
v 13.7041 8.20517 0.674845
v 13.7056 8.21006 0.684279
v 13.7115 8.21944 0.678487
v 13.71 8.21455 0.669053
v 13.7239 8.21896 0.676797
v 13.7224 8.21407 0.667363
v 13.7303 8.2091 0.680899
v 13.7289 8.2042 0.671466
v 13.7245 8.19971 0.686691
v 13.723 8.19482 0.677257
v 13.7202 8.21064 0.669476
v 13.7244 8.20438 0.672082
v 13.7226 8.19846 0.660689
v 13.7187 8.20558 0.659713
v 13.7086 8.20499 0.674228
v 13.7128 8.19872 0.676834
v 13.7124 8.21095 0.67055
v 13.7206 8.19842 0.675761
v 13.7106 8.20504 0.659156
v 13.7115 8.20209 0.639024
v 13.7193 8.2014 0.637201
v 13.7063 8.19738 0.659575
v 13.7183 8.19081 0.661107
v 13.7102 8.19027 0.66055
v 13.708 8.19691 0.644202
v 13.7029 8.18373 0.628021
v 13.7 8.18047 0.6369
v 13.7123 8.19103 0.647557
v 13.72 8.19034 0.645734
v 13.7235 8.19552 0.640556
v 13.7149 8.17715 0.629554
v 13.7119 8.17389 0.638432
v 13.7103 8.18207 0.624348
v 13.7045 8.17555 0.642106
v 13.6899 8.16591 0.66286
v 13.6882 8.16576 0.673449
v 13.6941 8.15481 0.674277
v 13.6959 8.15495 0.663689
v 13.6878 8.14412 0.673091
v 13.6895 8.14426 0.662502
v 13.6754 8.14439 0.671075
v 13.6772 8.14453 0.660486
v 13.6695 8.15534 0.670246
v 13.6712 8.15549 0.659657
v 13.6758 8.16603 0.671433
v 13.6776 8.16617 0.660844
v 13.6795 8.14843 0.660919
v 13.6757 8.15539 0.660393
v 13.6813 8.14858 0.649961
v 13.6778 8.15556 0.647604
v 13.6914 8.15505 0.662953
v 13.6876 8.16201 0.662427
v 13.6873 8.14826 0.662199
v 13.6797 8.16218 0.661146
v 13.6894 8.14843 0.649411
v 13.6886 8.14221 0.630032
v 13.6809 8.14239 0.62791
v 13.6941 8.15527 0.646505
v 13.6824 8.1624 0.644698
v 13.6906 8.16225 0.644149
v 13.6924 8.14898 0.632468
v 13.6982 8.15338 0.612254
v 13.7013 8.16009 0.618844
v 13.6885 8.15592 0.632783
v 13.6808 8.15611 0.630661
v 13.677 8.14934 0.628225
v 13.6866 8.16051 0.610447
v 13.6897 8.16722 0.617037
v 13.6909 8.15359 0.608055
v 13.6971 8.16701 0.621236
v 13.5212 8.04417 0.524257
v 13.5177 8.04402 0.514103
v 13.5121 8.03307 0.516183
v 13.5155 8.03321 0.526338
v 13.5182 8.02238 0.514225
v 13.5217 8.02252 0.524379
v 13.5301 8.02265 0.510185
v 13.5335 8.02279 0.52034
v 13.5357 8.0336 0.508104
v 13.5392 8.03374 0.518259
v 13.5295 8.04429 0.510063
v 13.533 8.04443 0.520218
v 13.5313 8.02669 0.521054
v 13.5349 8.03365 0.519733
v 13.539 8.03382 0.531997
v 13.5349 8.02684 0.531564
v 13.5198 8.03331 0.524864
v 13.5234 8.04027 0.523543
v 13.5238 8.02652 0.52362
v 13.5309 8.04044 0.520977
v 13.5279 8.02669 0.535884
v 13.5378 8.02047 0.552594
v 13.5456 8.02065 0.550835
v 13.5252 8.03353 0.540638
v 13.5363 8.04066 0.53675
v 13.5294 8.04051 0.541071
v 13.5333 8.02724 0.552224
v 13.5377 8.03164 0.572807
v 13.5319 8.03835 0.568454
v 13.5366 8.03418 0.550096
v 13.5444 8.03436 0.548337
v 13.5489 8.0276 0.548706
v 13.5488 8.03877 0.568919
v 13.543 8.04548 0.564566
v 13.5462 8.03185 0.57304
v 13.5345 8.04527 0.564333
vn -0 -0.3827 0.9239
vn -0.3827 -0 -0.9239
vn -0 -0.9239 0.3827
vn -0.9239 -0 -0.3827
vn -0 0.9239 0.3827
vn -0.9239 -0 0.3827
vn -0 0.9239 -0.3827
vn -0.3827 -0 0.9239
vn -0 -0.3827 -0.9239
vn 0.3827 -0 0.9239
vn -0 -0.9239 -0.3827
vn 0.9239 -0 0.3827
vn -0 0.3827 -0.9239
vn 0.9239 -0 -0.3827
vn -0 0.3827 0.9239
vn 0.3827 -0 -0.9239
vn -0.3741 0.1601 -0.9135
vn -0.8601 0.3618 -0.3595
vn -0.8601 0.3618 0.3595
vn -0.3741 0.1601 0.9135
vn 0.3713 -0.167 0.9134
vn 0.836 -0.4156 0.3584
vn 0.836 -0.4156 -0.3584
vn 0.3713 -0.167 -0.9134
vn -0.1849 0.3683 -0.9111
vn -0.4087 0.8408 -0.3549
vn -0.4087 0.8408 0.3549
vn -0.1849 0.3683 0.9111
vn 0.2002 -0.3614 0.9107
vn 0.5355 -0.769 0.349
vn 0.5355 -0.769 -0.349
vn 0.2002 -0.3614 -0.9107
vn -0.8436 -0.4111 0.3456
vn -0.8713 0.478 -0.1114
vn -0.0277 0.889 -0.457
vn 0.8436 0.4111 -0.3456
vn 0.1378 0.4562 0.8791
vn 0.8713 -0.478 0.1114
vn 0.0277 -0.889 0.457
vn -0.1378 -0.4562 -0.8791
vn -0.0034 0.9863 -0.1649
vn -0.825 -0.5532 -0.1156
vn -0.0108 -0.9999 -0.0114
vn 0.8553 0.5152 -0.0551
vn -0.1932 0.5877 -0.7857
vn -0.6727 0.0396 0.7388
vn 0.2381 -0.4601 0.8553
vn 0.7422 0.0745 -0.6661
vn 0.864 0.4813 0.1479
vn 0.845 -0.5183 0.1314
vn -0.019 -0.9997 -0.0165
vn -0.864 -0.4813 -0.1479
vn -0.845 0.5183 -0.1314
vn 0.0189 0.9997 0.0165
vn 0.1616 0.0132 -0.9868
vn 0.1616 0.0133 -0.9868
vn -0.0483 -0.9565 0.2878
vn -0.0189 -0.9997 -0.0165
vn 0.8529 0.4056 -0.3289
vn 0.0632 0.89 -0.4516
vn -0.8811 -0.4456 0.1583
vn 0.1621 -0.8829 -0.4406
vn 0.6697 0.2597 0.6957
vn -0.2137 0.8016 0.5583
vn -0.7451 -0.3265 -0.5817
vn -0.8316 0.4813 0.2771
vn -0.8071 -0.5183 0.2827
vn 0.0245 -0.9997 0.0056
vn 0.8316 -0.4813 -0.2771
vn -0.323 -0.0132 -0.9463
vn 0.8071 0.5183 -0.2827
vn -0.0245 0.9997 -0.0056
vn 0.323 0.0132 0.9463
vn 0.323 0.0133 0.9463
vn -0.0932 -0.9565 -0.2766
vn -0.5969 0.4056 0.6922
vn 0.1573 0.89 0.4281
vn 0.7023 -0.4456 -0.5552
vn 0.0648 -0.8829 0.465
vn -0.9187 0.2597 -0.2976
vn -0.0749 0.8016 -0.5931
vn 0.9313 -0.3265 0.1615
vt 0.027269 0.743275
vt 0.26668 0.681379
vt 0.31961 0.790288
vt 0.064838 0.870182
vt 0.813557 0.38357
vt 0.597515 0.408813
vt 0.563365 0.309723
vt 0.788496 0.251062
vt 0.355695 0.913675
vt 0.102885 0.991524
vt 0.816061 0.516579
vt 0.607744 0.503792
vt 0.000897 0.479581
vt 0.220736 0.493183
vt 0.231466 0.585447
vt 0.003 0.61164
vt 0.795665 0.644234
vt 0.592502 0.598011
vt 0.021207 0.352999
vt 0.235987 0.401531
vt 0.759815 0.764194
vt 0.553032 0.694968
vt 0.095701 0.120065
vt 0.335749 0.201242
vt 0.27616 0.307307
vt 0.056248 0.234444
vt 0.718599 0.880135
vt 0.495817 0.802521
vt 0.135426 0.000897
vt 0.376428 0.081235
vt 0.676978 0.999103
vt 0.453392 0.920881
vt 0.749785 0.123319
vt 0.512617 0.198778
vt 0.474505 0.076725
vt 0.710022 0.000897
vt 0.416231 0.41972
vt 0.41712 0.33326
vt 0.414663 0.498402
vt 0.412064 0.577026
vt 0.408264 0.663281
vt 0.403168 0.780167
vt 0.398276 0.912605
vt 0.418556 0.216018
vt 0.418706 0.083523
vt 0.817855 0.174915
vt 0.842496 0.174915
vt 0.817855 0.203619
vt 0.842496 0.203619
vt 0.842496 0.232323
vt 0.817855 0.232323
vt 0.842496 0.261027
vt 0.817855 0.261027
vt 0.842497 0.289731
vt 0.817855 0.289731
vt 0.84429 0.339961
vt 0.84429 0.311257
vt 0.869148 0.296905
vt 0.869149 0.354313
vt 0.894007 0.339961
vt 0.894007 0.311257
vt 0.842496 0.318435
vt 0.817855 0.318435
vt 0.842496 0.347139
vt 0.817855 0.347139
vt 0.879519 0.7779
vt 0.860201 0.778333
vt 0.858429 0.745954
vt 0.879519 0.749484
vt 0.884938 0.19809
vt 0.869148 0.188974
vt 0.894007 0.192854
vt 0.869149 0.178502
vt 0.884938 0.216322
vt 0.894007 0.221558
vt 0.869149 0.225438
vt 0.869149 0.23591
vt 0.853359 0.216322
vt 0.84429 0.221558
vt 0.853359 0.19809
vt 0.84429 0.192854
vt 0.900609 0.745954
vt 0.893205 0.702381
vt 0.879519 0.701734
vt 0.917934 0.779435
vt 0.898837 0.778333
vt 0.920493 0.739655
vt 0.841103 0.779435
vt 0.838544 0.739655
vt 0.937638 0.780427
vt 0.939471 0.735454
vt 0.8214 0.780427
vt 0.819567 0.735454
vt 0.909421 0.704554
vt 0.900132 0.655396
vt 0.921619 0.659897
vt 0.928649 0.705256
vt 0.830389 0.705256
vt 0.849617 0.704554
vt 0.865832 0.702381
vt 0.858906 0.655396
vt 0.837419 0.659897
vt 0.879519 0.652702
vt 0.941183 0.664173
vt 0.817855 0.664173
vt 0.817855 0.463749
vt 0.842496 0.463749
vt 0.842496 0.492453
vt 0.817855 0.492453
vt 0.842496 0.521157
vt 0.817855 0.521157
vt 0.817855 0.348933
vt 0.842496 0.348933
vt 0.842496 0.377637
vt 0.817855 0.377637
vt 0.842497 0.406341
vt 0.817855 0.406341
vt 0.842496 0.435045
vt 0.817855 0.435045
vt 0.838727 0.783526
vt 0.855977 0.783793
vt 0.83769 0.809452
vt 0.857395 0.812896
vt 0.869148 0.047833
vt 0.884938 0.038717
vt 0.869148 0.058305
vt 0.894007 0.043953
vt 0.853359 0.038717
vt 0.84429 0.043953
vt 0.853359 0.020485
vt 0.84429 0.015249
vt 0.869148 0.011369
vt 0.869148 0.000897
vt 0.884938 0.020485
vt 0.894007 0.015249
vt 0.818498 0.811069
vt 0.817855 0.857794
vt 0.834442 0.858657
vt 0.906226 0.782266
vt 0.92269 0.782641
vt 0.905593 0.815859
vt 0.922077 0.809516
vt 0.872632 0.783054
vt 0.87551 0.817485
vt 0.821323 0.782221
vt 0.88947 0.782221
vt 0.890762 0.81831
vt 0.917926 0.853281
vt 0.938302 0.854161
vt 0.930416 0.906843
vt 0.910022 0.903883
vt 0.892962 0.853775
vt 0.868563 0.855429
vt 0.850005 0.85797
vt 0.856959 0.906792
vt 0.876969 0.903983
vt 0.837237 0.909541
vt 0.818403 0.909143
vt 0.89343 0.903953
vt 0.817855 0.087009
vt 0.842496 0.087009
vt 0.842496 0.115713
vt 0.817855 0.115713
vt 0.842496 0.144417
vt 0.817855 0.144417
vt 0.842496 0.173121
vt 0.817855 0.173121
vt 0.817855 0.000897
vt 0.842496 0.000897
vt 0.842496 0.029601
vt 0.817855 0.029601
vt 0.84429 0.074451
vt 0.869149 0.060099
vt 0.894007 0.074451
vt 0.84429 0.103155
vt 0.869149 0.117507
vt 0.894007 0.103155
vt 0.817855 0.058305
vt 0.842496 0.058305
vt 0.83055 0.523427
vt 0.847476 0.523607
vt 0.848144 0.551572
vt 0.830298 0.547102
vt 0.853359 0.15712
vt 0.869149 0.166236
vt 0.869148 0.176708
vt 0.84429 0.162356
vt 0.853359 0.138888
vt 0.84429 0.133652
vt 0.869149 0.129772
vt 0.869149 0.1193
vt 0.884938 0.138888
vt 0.894007 0.133652
vt 0.884938 0.15712
vt 0.894007 0.162356
vt 0.912176 0.551572
vt 0.930022 0.547102
vt 0.924631 0.596249
vt 0.942465 0.596148
vt 0.896651 0.523295
vt 0.912844 0.523607
vt 0.895094 0.557055
vt 0.863669 0.523295
vt 0.865226 0.557055
vt 0.92977 0.523427
vt 0.88016 0.522951
vt 0.88016 0.558694
vt 0.904994 0.594561
vt 0.915605 0.647051
vt 0.896138 0.643814
vt 0.88016 0.59397
vt 0.855327 0.594561
vt 0.835689 0.596249
vt 0.817855 0.596148
vt 0.844716 0.647051
vt 0.864183 0.643814
vt 0.935152 0.650908
vt 0.88016 0.643755
vt 0.825169 0.650908
usemtl 
f 1/1/1 2/2/1 3/3/1
f 1/1/1 3/3/1 4/4/1
f 5/5/2 6/6/2 7/7/2
f 5/5/2 7/7/2 8/8/2
f 4/4/3 3/3/3 9/9/3
f 4/4/3 9/9/3 10/10/3
f 11/11/4 12/12/4 6/6/4
f 11/11/4 6/6/4 5/5/4
f 13/13/5 14/14/5 15/15/5
f 13/13/5 15/15/5 16/16/5
f 17/17/6 18/18/6 12/12/6
f 17/17/6 12/12/6 11/11/6
f 19/19/7 20/20/7 14/14/7
f 19/19/7 14/14/7 13/13/7
f 21/21/8 22/22/8 18/18/8
f 21/21/8 18/18/8 17/17/8
f 23/23/9 24/24/9 25/25/9
f 23/23/9 25/25/9 26/26/9
f 27/27/10 28/28/10 22/22/10
f 27/27/10 22/22/10 21/21/10
f 10/29/11 9/30/11 24/24/11
f 10/29/11 24/24/11 23/23/11
f 29/31/12 30/32/12 28/28/12
f 29/31/12 28/28/12 27/27/12
f 26/26/13 25/25/13 20/20/13
f 26/26/13 20/20/13 19/19/13
f 31/33/14 32/34/14 30/35/14
f 31/33/14 30/35/14 29/36/14
f 16/16/15 15/15/15 2/2/15
f 16/16/15 2/2/15 1/1/15
f 8/8/16 7/7/16 32/34/16
f 8/8/16 32/34/16 31/33/16
f 7/7/17 6/6/17 33/37/17
f 7/7/17 33/37/17 34/38/17
f 6/6/18 12/12/18 35/39/18
f 6/6/18 35/39/18 33/37/18
f 12/12/19 18/18/19 35/39/19
f 18/18/19 36/40/19 35/39/19
f 18/18/20 22/22/20 36/40/20
f 22/22/20 37/41/20 36/40/20
f 22/22/21 28/28/21 37/41/21
f 28/28/21 38/42/21 37/41/21
f 28/28/22 30/32/22 38/42/22
f 30/32/22 39/43/22 38/42/22
f 30/35/23 32/34/23 40/44/23
f 30/35/23 40/44/23 39/45/23
f 32/34/24 7/7/24 34/38/24
f 32/34/24 34/38/24 40/44/24
f 34/38/25 33/37/25 25/25/25
f 33/37/25 20/20/25 25/25/25
f 33/37/26 35/39/26 20/20/26
f 35/39/26 14/14/26 20/20/26
f 35/39/27 36/40/27 15/15/27
f 35/39/27 15/15/27 14/14/27
f 36/40/28 37/41/28 2/2/28
f 36/40/28 2/2/28 15/15/28
f 37/41/29 38/42/29 3/3/29
f 37/41/29 3/3/29 2/2/29
f 38/42/30 39/43/30 9/9/30
f 38/42/30 9/9/30 3/3/30
f 39/45/31 40/44/31 9/30/31
f 40/44/31 24/24/31 9/30/31
f 40/44/32 34/38/32 24/24/32
f 34/38/32 25/25/32 24/24/32
f 41/46/33 42/47/33 43/48/33
f 42/47/33 44/49/33 43/48/33
f 43/48/34 44/49/34 45/50/34
f 43/48/34 45/50/34 46/51/34
f 46/51/35 45/50/35 47/52/35
f 46/51/35 47/52/35 48/53/35
f 48/53/36 47/52/36 49/54/36
f 48/53/36 49/54/36 50/55/36
f 45/56/37 44/57/37 42/58/37
f 47/59/37 45/56/37 42/58/37
f 49/60/37 47/59/37 42/58/37
f 51/61/37 49/60/37 42/58/37
f 50/55/38 49/54/38 51/62/38
f 50/55/38 51/62/38 52/63/38
f 52/63/39 51/62/39 42/64/39
f 52/63/39 42/64/39 41/65/39
f 53/66/36 54/67/36 55/68/36
f 53/66/36 55/68/36 56/69/36
f 57/70/40 58/71/40 43/72/40
f 58/71/40 41/73/40 43/72/40
f 59/74/40 57/70/40 46/75/40
f 57/70/40 43/72/40 46/75/40
f 53/76/40 59/74/40 48/77/40
f 59/74/40 46/75/40 48/77/40
f 54/78/40 53/76/40 48/77/40
f 54/78/40 48/77/40 50/79/40
f 60/80/40 54/78/40 50/79/40
f 60/80/40 50/79/40 52/81/40
f 58/71/40 60/80/40 52/81/40
f 58/71/40 52/81/40 41/73/40
f 61/82/41 56/69/41 62/83/41
f 56/69/41 63/84/41 62/83/41
f 57/85/34 59/86/34 64/87/34
f 59/86/34 61/82/34 64/87/34
f 54/67/38 60/88/38 55/68/38
f 60/88/38 65/89/38 55/68/38
f 59/86/35 53/66/35 56/69/35
f 59/86/35 56/69/35 61/82/35
f 58/90/33 57/85/33 64/87/33
f 58/90/33 64/87/33 66/91/33
f 60/88/39 58/92/39 66/93/39
f 60/88/39 66/93/39 65/89/39
f 67/94/34 62/83/34 68/95/34
f 67/94/34 68/95/34 69/96/34
f 66/91/42 64/87/42 70/97/42
f 64/87/42 67/94/42 70/97/42
f 65/89/43 66/93/43 70/98/43
f 65/89/43 70/98/43 71/99/43
f 56/69/44 55/68/44 72/100/44
f 56/69/44 72/100/44 63/84/44
f 64/87/34 61/82/34 67/94/34
f 61/82/34 62/83/34 67/94/34
f 55/68/38 65/89/38 71/99/38
f 55/68/38 71/99/38 72/100/38
f 72/100/38 71/99/38 73/101/38
f 71/99/38 74/102/38 73/101/38
f 62/83/45 63/84/45 75/103/45
f 62/83/45 75/103/45 68/95/45
f 70/97/46 67/94/46 69/96/46
f 70/97/46 69/96/46 76/104/46
f 71/99/47 70/98/47 74/102/47
f 70/98/47 76/105/47 74/102/47
f 63/84/48 72/100/48 75/103/48
f 72/100/48 73/101/48 75/103/48
f 77/106/49 78/107/49 79/108/49
f 77/106/49 79/108/49 80/109/49
f 80/109/50 79/108/50 81/110/50
f 80/109/50 81/110/50 82/111/50
f 82/112/51 81/113/51 83/114/51
f 82/112/51 83/114/51 84/115/51
f 84/115/52 83/114/52 85/116/52
f 84/115/52 85/116/52 86/117/52
f 86/117/53 85/116/53 87/118/53
f 86/117/53 87/118/53 88/119/53
f 88/119/54 87/118/54 77/106/54
f 87/118/54 78/107/54 77/106/54
f 89/120/52 90/121/52 91/122/52
f 90/121/52 92/123/52 91/122/52
f 93/124/55 94/125/55 80/126/55
f 94/125/55 77/127/55 80/126/55
f 95/128/56 93/124/56 80/126/56
f 95/128/56 80/126/56 82/129/56
f 89/130/56 95/128/56 84/131/56
f 95/128/56 82/129/56 84/131/56
f 90/132/55 89/130/55 86/133/55
f 89/130/55 84/131/55 86/133/55
f 96/134/55 90/132/55 86/133/55
f 96/134/55 86/133/55 88/135/55
f 94/125/55 96/134/55 77/127/55
f 96/134/55 88/135/55 77/127/55
f 97/136/57 91/122/57 98/137/57
f 91/122/57 99/138/57 98/137/57
f 93/139/50 95/140/50 100/141/50
f 95/140/50 97/142/50 100/141/50
f 90/121/53 96/143/53 101/144/53
f 90/121/53 101/144/53 92/123/53
f 95/145/58 89/120/58 91/122/58
f 95/145/58 91/122/58 97/136/58
f 94/146/49 93/139/49 100/141/49
f 94/146/49 100/141/49 102/147/49
f 96/143/54 94/146/54 101/144/54
f 94/146/54 102/147/54 101/144/54
f 103/148/50 98/149/50 104/150/50
f 103/148/50 104/150/50 105/151/50
f 102/147/59 100/141/59 106/152/59
f 100/141/59 103/148/59 106/152/59
f 101/144/60 102/147/60 106/152/60
f 101/144/60 106/152/60 107/153/60
f 91/122/61 92/123/61 108/154/61
f 91/122/61 108/154/61 99/138/61
f 100/141/50 97/142/50 103/148/50
f 97/142/50 98/149/50 103/148/50
f 92/123/53 101/144/53 107/153/53
f 92/123/53 107/153/53 108/154/53
f 108/154/53 107/153/53 109/155/53
f 107/153/53 110/156/53 109/155/53
f 98/137/62 99/138/62 111/157/62
f 98/137/62 111/157/62 104/158/62
f 106/152/63 103/148/63 105/151/63
f 106/152/63 105/151/63 112/159/63
f 107/153/64 106/152/64 110/156/64
f 106/152/64 112/159/64 110/156/64
f 99/138/65 108/154/65 111/157/65
f 108/154/65 109/155/65 111/157/65
f 113/160/66 114/161/66 115/162/66
f 113/160/66 115/162/66 116/163/66
f 116/163/67 115/162/67 117/164/67
f 116/163/67 117/164/67 118/165/67
f 118/165/68 117/164/68 119/166/68
f 118/165/68 119/166/68 120/167/68
f 120/168/69 119/169/69 121/170/69
f 120/168/69 121/170/69 122/171/69
f 117/172/70 115/173/70 114/174/70
f 119/175/70 117/172/70 114/174/70
f 121/176/70 119/175/70 114/174/70
f 123/177/70 121/176/70 114/174/70
f 122/171/71 121/170/71 124/178/71
f 121/170/71 123/179/71 124/178/71
f 124/178/72 123/179/72 113/160/72
f 123/179/72 114/161/72 113/160/72
f 125/180/69 126/181/69 127/182/69
f 125/180/69 127/182/69 128/183/69
f 129/184/73 130/185/73 113/186/73
f 129/184/73 113/186/73 116/187/73
f 131/188/73 129/184/73 118/189/73
f 129/184/73 116/187/73 118/189/73
f 125/190/73 131/188/73 120/191/73
f 131/188/73 118/189/73 120/191/73
f 126/192/73 125/190/73 122/193/73
f 125/190/73 120/191/73 122/193/73
f 132/194/73 126/192/73 124/195/73
f 126/192/73 122/193/73 124/195/73
f 130/185/74 132/194/74 113/186/74
f 132/194/74 124/195/74 113/186/74
f 133/196/75 128/197/75 134/198/75
f 128/197/75 135/199/75 134/198/75
f 129/200/67 131/201/67 136/202/67
f 131/201/67 133/196/67 136/202/67
f 126/181/71 132/203/71 137/204/71
f 126/181/71 137/204/71 127/182/71
f 131/201/68 125/205/68 128/197/68
f 131/201/68 128/197/68 133/196/68
f 130/206/66 129/200/66 138/207/66
f 129/200/66 136/202/66 138/207/66
f 132/203/72 130/206/72 138/207/72
f 132/203/72 138/207/72 137/204/72
f 139/208/67 134/198/67 140/209/67
f 139/208/67 140/209/67 141/210/67
f 138/207/76 136/202/76 142/211/76
f 136/202/76 139/208/76 142/211/76
f 137/204/77 138/207/77 142/211/77
f 137/204/77 142/211/77 143/212/77
f 128/183/78 127/182/78 144/213/78
f 128/183/78 144/213/78 135/214/78
f 136/202/67 133/196/67 139/208/67
f 133/196/67 134/198/67 139/208/67
f 127/182/71 137/204/71 143/212/71
f 127/182/71 143/212/71 144/213/71
f 144/213/71 143/212/71 145/215/71
f 143/212/71 146/216/71 145/215/71
f 134/198/79 135/199/79 147/217/79
f 134/198/79 147/217/79 140/209/79
f 142/211/80 139/208/80 141/210/80
f 142/211/80 141/210/80 148/218/80
f 143/212/81 142/211/81 146/216/81
f 142/211/81 148/218/81 146/216/81
f 135/214/82 144/213/82 147/219/82
f 144/213/82 145/215/82 147/219/82
s off
