# Blender 5.0.1
# www.blender.org
mtllib Table small.mtl
o Table_Small
v 16.700396 7.497499 -0.131331
v 16.700396 7.422500 -0.131331
v 16.655394 6.997500 -0.226331
v 16.655394 7.427500 -0.226331
v 16.655394 6.997500 -0.176331
v 16.655394 7.427500 -0.176331
v 16.605394 6.997500 -0.226331
v 16.605394 7.427500 -0.226331
v 16.605394 6.997500 -0.176331
v 16.605394 7.427500 -0.176331
v 16.642895 7.247500 -0.188831
v 16.642895 7.272500 -0.188831
v 16.617893 7.247500 -0.213831
v 16.617893 7.272500 -0.213831
v 16.225397 7.497499 -0.131331
v 16.225397 7.422500 -0.131331
v 16.270399 6.997500 -0.226331
v 16.270399 7.427500 -0.226331
v 16.270399 6.997500 -0.176331
v 16.270399 7.427500 -0.176331
v 16.320398 6.997500 -0.226331
v 16.320398 7.427500 -0.226331
v 16.320398 6.997500 -0.176331
v 16.320398 7.427500 -0.176331
v 16.282898 7.247500 -0.188831
v 16.282898 7.272500 -0.188831
v 16.307899 7.247500 -0.213831
v 16.307899 7.272500 -0.213831
v 16.700396 7.497499 -0.606331
v 16.700396 7.422500 -0.606331
v 16.655394 6.997500 -0.511331
v 16.655394 7.427500 -0.511331
v 16.655394 6.997500 -0.561331
v 16.655394 7.427500 -0.561331
v 16.605394 6.997500 -0.511331
v 16.605394 7.427500 -0.511331
v 16.605394 6.997500 -0.561331
v 16.605394 7.427500 -0.561331
v 16.642895 7.247500 -0.548831
v 16.642895 7.272500 -0.548831
v 16.617893 7.247500 -0.523831
v 16.617893 7.272500 -0.523831
v 16.225397 7.497499 -0.606331
v 16.225397 7.422500 -0.606331
v 16.270399 6.997500 -0.511331
v 16.270399 7.427500 -0.511331
v 16.270399 6.997500 -0.561331
v 16.270399 7.427500 -0.561331
v 16.320398 6.997500 -0.511331
v 16.320398 7.427500 -0.511331
v 16.320398 6.997500 -0.561331
v 16.320398 7.427500 -0.561331
v 16.282898 7.247500 -0.548831
v 16.282898 7.272500 -0.548831
v 16.307899 7.247500 -0.523831
v 16.307899 7.272500 -0.523831
vn 1.0000 -0.0000 -0.0000
vn -0.0000 -0.0000 1.0000
vn -1.0000 -0.0000 -0.0000
vn -0.0000 -0.0000 -1.0000
vn -0.7071 -0.0000 -0.7071
vn -0.0000 -1.0000 -0.0000
vn -0.0000 1.0000 -0.0000
vn 0.7071 -0.0000 -0.7071
vt 0.964885 0.326362
vt 0.964885 0.618785
vt 0.930883 0.618785
vt 0.930883 0.326362
vt 0.896880 0.618785
vt 0.896880 0.326362
vt 0.862877 0.618785
vt 0.862877 0.326362
vt 0.998888 0.326362
vt 0.998888 0.618785
vt 0.088343 0.952457
vt 0.071342 0.952457
vt 0.071342 0.741644
vt 0.088343 0.741644
vt 0.250252 0.724642
vt 0.267253 0.724642
vt 0.267253 0.748686
vt 0.250252 0.748686
vt 0.139347 0.952457
vt 0.122346 0.969458
vt 0.122346 0.724642
vt 0.139347 0.741644
vt 0.105344 0.969458
vt 0.105344 0.724642
vt 0.228802 0.748686
vt 0.211801 0.748686
vt 0.211801 0.724642
vt 0.228802 0.724642
vt 0.457939 0.494004
vt 0.229526 0.265591
vt 0.265591 0.229526
vt 0.494004 0.457939
vt 0.811873 0.001112
vt 0.845876 0.001112
vt 0.845876 0.293535
vt 0.811873 0.293535
vt 0.879878 0.001112
vt 0.879878 0.293535
vt 0.913881 0.001112
vt 0.913881 0.293535
vt 0.777870 0.001112
vt 0.777870 0.293535
vt 0.001112 0.037177
vt 0.037177 0.001112
vt 0.758645 0.326362
vt 0.792648 0.326362
vt 0.792648 0.618785
vt 0.758645 0.618785
vt 0.826650 0.326362
vt 0.826650 0.618785
vt 0.860653 0.326362
vt 0.860653 0.618785
vt 0.724642 0.326362
vt 0.724642 0.618785
vt 0.879879 0.848827
vt 0.879878 0.638010
vt 0.896880 0.621009
vt 0.896880 0.865828
vt 0.231026 0.748686
vt 0.231026 0.724642
vt 0.248027 0.724642
vt 0.248027 0.748686
vt 0.862877 0.848827
vt 0.862877 0.638010
vt 0.913881 0.621009
vt 0.913881 0.865828
vt 0.930883 0.638010
vt 0.930883 0.848827
vt 0.722418 0.686353
vt 0.686353 0.722418
vt 0.229526 0.722418
vt 0.001112 0.494004
vt 0.724642 0.001112
vt 0.775646 0.001112
vt 0.775646 0.324138
vt 0.724642 0.324138
vt 0.494004 0.001112
vt 0.722418 0.229526
vt 0.826650 0.621009
vt 0.826650 0.913432
vt 0.792648 0.913432
vt 0.792648 0.621009
vt 0.758645 0.913432
vt 0.758645 0.621009
vt 0.724642 0.913432
vt 0.724642 0.621009
vt 0.860653 0.621009
vt 0.860653 0.913432
vt 0.192575 0.741644
vt 0.209576 0.741644
vt 0.209577 0.952457
vt 0.192575 0.952457
vt 0.052116 0.952460
vt 0.035115 0.969462
vt 0.035115 0.724642
vt 0.052116 0.741644
vt 0.141571 0.741644
vt 0.158572 0.724642
vt 0.158572 0.969458
vt 0.141571 0.952457
vt 0.175574 0.724642
vt 0.175574 0.969458
vt 0.069117 0.952460
vt 0.069117 0.741644
vt 0.018113 0.969462
vt 0.018113 0.724642
vt 0.001112 0.952460
vt 0.001112 0.741644
s 0
f 3/1/1 4/2/1 6/3/1 5/4/1
f 5/4/2 6/3/2 10/5/2 9/6/2
f 9/6/3 10/5/3 8/7/3 7/8/3
f 7/9/4 8/10/4 4/2/4 3/1/4
f 14/11/4 13/12/4 27/13/4 28/14/4
f 25/15/5 26/16/5 28/17/5 27/18/5
f 13/19/6 11/20/6 25/21/6 27/22/6
f 12/23/7 14/11/7 28/14/7 26/24/7
f 11/20/2 12/23/2 26/24/2 25/21/2
f 13/25/8 14/26/8 12/27/8 11/28/8
f 16/29/2 2/30/2 1/31/2 15/32/2
f 17/33/3 19/34/3 20/35/3 18/36/3
f 19/34/2 23/37/2 24/38/2 20/35/2
f 23/37/1 21/39/1 22/40/1 24/38/1
f 21/41/4 17/33/4 18/36/4 22/42/4
f 2/30/1 30/43/1 29/44/1 1/31/1
f 31/45/1 33/46/1 34/47/1 32/48/1
f 33/46/4 37/49/4 38/50/4 34/47/4
f 37/49/3 35/51/3 36/52/3 38/50/3
f 35/53/2 31/45/2 32/48/2 36/54/2
f 42/55/7 14/56/7 12/57/7 40/58/7
f 39/59/5 41/60/5 42/61/5 40/62/5
f 41/63/3 13/64/3 14/56/3 42/55/3
f 40/58/1 12/57/1 11/65/1 39/66/1
f 39/66/6 11/65/6 13/67/6 41/68/6
f 16/29/3 15/32/3 43/69/3 44/70/3
f 2/30/6 16/29/6 44/71/6 30/72/6
f 44/73/4 43/74/4 29/75/4 30/76/4
f 29/77/7 43/78/7 15/32/7 1/31/7
f 45/79/3 46/80/3 48/81/3 47/82/3
f 47/82/4 48/81/4 52/83/4 51/84/4
f 51/84/1 52/83/1 50/85/1 49/86/1
f 49/87/2 50/88/2 46/80/2 45/79/2
f 56/89/2 55/90/2 41/91/2 42/92/2
f 56/93/7 54/94/7 26/95/7 28/96/7
f 55/97/6 53/98/6 39/99/6 41/100/6
f 54/101/7 56/89/7 42/92/7 40/102/7
f 53/98/4 54/101/4 40/102/4 39/99/4
f 55/103/1 56/93/1 28/96/1 27/104/1
f 54/94/3 53/105/3 25/106/3 26/95/3
f 53/105/6 55/107/6 27/108/6 25/106/6
