# Blender 5.0.1
# www.blender.org
mtllib TV table.mtl
o Cube.003
v 11.087498 6.981653 -1.525267
v 11.117500 7.101660 -1.495265
v 11.087498 6.981653 -1.600272
v 11.117500 7.101660 -1.570270
v 11.162502 6.981653 -1.525267
v 11.192505 7.101660 -1.495265
v 11.162502 6.981653 -1.600272
v 11.192505 7.101660 -1.570270
v 12.912504 6.981653 -1.525267
v 12.882502 7.101660 -1.495265
v 12.912504 6.981653 -1.600272
v 12.882502 7.101660 -1.570270
v 12.837500 6.981653 -1.525267
v 12.807497 7.101660 -1.495265
v 12.837500 6.981653 -1.600272
v 12.807497 7.101660 -1.570270
v 11.087498 6.981653 -1.310270
v 11.117500 7.101660 -1.340272
v 11.087498 6.981653 -1.235266
v 11.117500 7.101660 -1.265267
v 11.162502 6.981653 -1.310270
v 11.192505 7.101660 -1.340272
v 11.162502 6.981650 -1.235266
v 11.192505 7.101660 -1.265267
v 12.912504 6.981653 -1.310270
v 12.882502 7.101660 -1.340272
v 12.912504 6.981653 -1.235266
v 12.882502 7.101660 -1.265267
v 12.837500 6.981653 -1.310270
v 12.807497 7.101660 -1.340272
v 12.837500 6.981653 -1.235266
v 12.807497 7.101660 -1.265267
v 11.008893 7.104326 -1.167769
v 11.016407 7.443519 -1.167769
v 11.026846 7.104326 -1.651043
v 11.034361 7.443519 -1.651043
v 12.971430 7.104271 -1.183574
v 12.968003 7.458570 -1.183574
v 12.985394 7.104271 -1.667769
v 12.981967 7.458570 -1.667769
v 11.073834 7.153277 -1.192739
v 12.333334 7.061656 -1.667769
v 11.073834 7.392772 -1.192739
v 12.333334 7.446748 -1.181617
v 12.333334 7.446748 -1.667769
v 12.259501 7.135490 -1.206588
v 12.333334 7.086539 -1.181617
v 12.259501 7.396001 -1.206588
v 12.914415 7.165483 -1.183574
v 12.893594 7.405727 -1.183574
v 12.404956 7.377040 -1.181617
v 12.419865 7.133278 -1.181617
v 12.259501 7.135490 -1.181617
v 12.259501 7.396001 -1.181617
v 12.928379 7.165483 -1.586710
v 12.907557 7.405727 -1.586710
v 12.404956 7.377040 -1.586710
v 12.419865 7.133278 -1.586710
v 11.073834 7.392772 -1.167769
v 11.073834 7.153277 -1.167769
v 11.008893 7.104326 -1.501102
v 11.027614 7.079444 -1.337965
v 11.035128 7.466606 -1.337965
v 11.016407 7.466606 -1.501102
v 12.333334 7.446748 -1.501102
v 12.333334 7.469835 -1.334435
v 12.985394 7.104271 -1.334435
v 12.968822 7.079389 -1.500949
v 12.965395 7.458570 -1.500949
v 12.981967 7.481657 -1.334435
v 12.333334 7.061656 -1.501102
v 12.333334 7.061656 -1.334435
v 11.468158 7.407823 -1.208206
v 11.864279 7.394228 -1.192739
v 11.444446 7.481657 -1.667769
v 11.890731 7.444975 -1.651196
v 11.443546 7.086539 -1.183236
v 11.888889 7.073423 -1.167769
v 11.468158 7.135490 -1.208206
v 11.864279 7.147257 -1.192739
v 11.888890 7.444975 -1.167769
v 11.443546 7.458570 -1.183236
v 11.890731 7.098306 -1.651196
v 11.444446 7.061656 -1.667769
v 11.468158 7.407823 -1.183236
v 11.864279 7.394228 -1.167769
v 11.468158 7.135490 -1.183236
v 11.864279 7.147257 -1.167769
v 11.444446 7.481657 -1.501102
v 11.888889 7.468061 -1.501102
v 11.444446 7.458570 -1.334435
v 11.888889 7.468061 -1.334435
v 11.888890 7.073423 -1.501102
v 11.444446 7.061656 -1.501102
v 11.888890 7.073423 -1.334435
v 11.444446 7.061656 -1.334435
v 12.666668 7.395846 -1.586710
v 12.666821 7.097178 -1.652117
v 12.666668 7.444384 -1.167769
v 12.666668 7.143918 -1.586710
v 12.666668 7.072296 -1.167769
v 12.666821 7.444384 -1.652117
v 12.666668 7.143918 -1.167769
v 12.666668 7.395846 -1.167769
v 12.666668 7.467470 -1.501102
v 12.666668 7.467470 -1.334435
v 12.666668 7.072296 -1.501102
v 12.666668 7.072296 -1.334435
v 11.000001 7.271657 -1.167769
v 11.017954 7.271657 -1.651043
v 13.000001 7.271657 -1.667769
v 12.986037 7.271657 -1.183574
v 12.333334 7.271657 -1.173935
v 12.259501 7.271657 -1.221129
v 11.073834 7.271657 -1.210782
v 12.333334 7.271657 -1.667769
v 12.928379 7.271657 -1.586710
v 12.914415 7.271657 -1.183574
v 12.404956 7.271654 -1.196159
v 12.259501 7.271657 -1.196159
v 12.404956 7.271654 -1.586710
v 11.073834 7.271657 -1.185812
v 12.983429 7.271657 -1.500949
v 13.000001 7.271657 -1.334435
v 11.018722 7.271657 -1.337965
v 11.000001 7.271657 -1.501102
v 11.468158 7.271657 -1.195677
v 11.864279 7.271657 -1.210782
v 11.444446 7.271657 -1.667769
v 11.890731 7.271657 -1.635885
v 12.666668 7.271655 -1.541752
v 12.666821 7.271657 -1.636806
v 12.136267 7.346928 -1.132409
v 12.136267 7.316928 -1.162409
v 12.186267 7.346928 -1.132409
v 12.186267 7.316928 -1.162409
v 12.136267 7.316928 -1.222409
v 12.136267 7.346928 -1.222409
v 12.186267 7.316928 -1.222409
v 12.186267 7.346928 -1.222409
v 12.188077 7.246928 -1.128953
v 12.138077 7.246928 -1.128953
v 12.188077 7.246928 -1.158953
v 12.138077 7.246928 -1.158953
v 12.141342 7.295685 -1.129931
v 12.141342 7.280685 -1.159931
v 12.191342 7.295685 -1.129931
v 12.191342 7.280685 -1.159931
v 12.136267 7.146928 -1.132409
v 12.136267 7.176928 -1.162409
v 12.186267 7.146928 -1.132409
v 12.186267 7.176928 -1.162409
v 12.136267 7.176928 -1.222409
v 12.136267 7.146928 -1.222409
v 12.186267 7.176928 -1.222409
v 12.186267 7.146928 -1.222409
v 12.131243 7.196151 -1.134141
v 12.131243 7.211151 -1.164141
v 12.181243 7.196151 -1.134141
v 12.181243 7.211151 -1.164141
v 12.136267 7.320351 -1.192410
v 12.186267 7.320351 -1.192410
v 12.136267 7.350351 -1.177409
v 12.186267 7.350351 -1.177409
v 12.136267 7.173532 -1.192410
v 12.186267 7.173532 -1.192410
v 12.136267 7.143531 -1.177409
v 12.186267 7.143531 -1.177409
vn -0.9701 0.2425 -0.0000
vn -0.0000 0.2425 -0.9701
vn 0.9701 -0.2425 -0.0000
vn -0.0000 -0.2425 0.9701
vn 0.9701 0.2425 -0.0000
vn -0.9701 -0.2425 -0.0000
vn -0.0000 0.2425 0.9701
vn -0.0000 -0.2425 -0.9701
vn -0.9882 0.0884 -0.1251
vn -0.0706 -0.0460 -0.9964
vn 0.9910 0.0901 0.0986
vn 0.1021 -0.9948 0.0045
vn -0.0545 -0.0438 -0.9975
vn -0.0844 0.9964 -0.0014
vn 0.0040 0.9897 0.1430
vn -0.0908 0.1914 0.9773
vn 0.0027 -0.9970 0.0776
vn 0.9942 0.1071 -0.0000
vn -1.0000 -0.0000 -0.0000
vn -0.9876 -0.1534 -0.0342
vn 0.0717 -0.9974 -0.0000
vn 0.0381 -0.9993 -0.0000
vn -0.0000 -0.0000 1.0000
vn -0.0457 -0.0277 0.9986
vn 0.1313 0.0271 0.9910
vn 0.0548 0.0235 0.9982
vn -0.1412 -0.0227 0.9897
vn 1.0000 -0.0000 -0.0000
vn 0.0298 0.9996 -0.0000
vn 0.0359 -0.0328 0.9988
vn 0.0322 0.1240 0.9918
vn 0.1057 0.0659 0.9922
vn 0.0331 -0.0321 0.9989
vn -0.0073 0.9974 0.0712
vn -0.0647 0.9950 -0.0762
vn -0.0087 0.9975 0.0703
vn -0.0558 -0.9954 -0.0785
vn -0.0265 -0.9996 -0.0000
vn -0.0257 0.9970 -0.0725
vn -0.0275 0.9972 -0.0691
vn 0.0187 -0.9879 -0.1537
vn 0.0626 -0.9955 0.0712
vn 0.9905 0.0956 0.0984
vn 0.9904 0.0900 -0.1048
vn -0.9907 0.0886 -0.1030
vn -0.9900 0.0833 0.1136
vn -0.0703 -0.9950 -0.0711
vn 0.0265 -0.9996 -0.0000
vn -0.0996 -0.9950 -0.0057
vn 0.0556 -0.9954 -0.0779
vn 0.0219 0.9974 -0.0691
vn 0.0046 0.9976 0.0691
vn 0.0206 0.9972 -0.0726
vn 0.0575 0.9957 -0.0722
vn -0.0017 0.9897 0.1430
vn 0.0033 0.9974 0.0724
vn 0.0365 0.0295 0.9989
vn -0.0367 -0.0000 0.9993
vn 0.0009 0.0217 0.9998
vn -0.0008 0.0212 0.9998
vn 0.0329 0.0264 0.9991
vn 0.0451 0.9990 -0.0000
vn -0.0297 0.9996 -0.0000
vn 0.0045 -1.0000 -0.0000
vn -0.0343 -0.9994 -0.0000
vn -0.0392 -0.9878 0.1506
vn -0.0029 -0.9969 0.0780
vn -0.0400 0.0017 -0.9992
vn 0.0525 -0.0399 -0.9978
vn 0.0319 -0.9995 -0.0000
vn 0.0707 -0.9945 -0.0779
vn -0.0086 0.9976 -0.0687
vn -0.0104 0.9973 -0.0730
vn -0.0474 0.0347 0.9983
vn 0.0617 -0.0453 0.9971
vn 0.0422 -0.9991 0.0007
vn 0.0842 0.1775 0.9805
vn -0.0419 0.9890 0.1420
vn -0.0431 0.9991 -0.0000
vn -0.0070 -0.9970 0.0776
vn 0.0695 -0.0439 -0.9966
vn 0.0676 0.0397 -0.9969
vn 0.0917 -0.1880 0.9779
vn 0.0525 0.0399 -0.9978
vn -0.0396 -0.0009 -0.9992
vn -0.0008 -0.0213 0.9998
vn 0.0009 -0.0214 0.9998
vn -0.9927 -0.0491 0.1102
vn -0.9932 -0.0491 -0.1057
vn 0.9924 -0.0806 -0.0927
vn 0.9924 -0.0806 0.0926
vn 0.1103 -0.0672 0.9916
vn 0.0306 -0.1308 0.9909
vn -0.1419 0.0211 0.9896
vn 0.1418 -0.0242 0.9896
vn -0.9994 -0.0000 -0.0346
vn -0.0832 -0.1705 0.9818
vn -0.0530 0.0399 -0.9978
vn 0.9920 -0.0866 0.0918
vn -0.0718 0.0477 -0.9963
vn -0.9915 -0.0527 -0.1187
vn -0.0000 -0.9936 0.1134
vn -0.0000 0.9971 -0.0758
vn -0.0000 0.0200 0.9998
vn 0.9967 -0.0784 0.0196
vn -0.9967 0.0784 -0.0196
vn -0.0000 -0.0289 -0.9996
vn -0.0000 -0.0682 -0.9977
vn -0.9905 -0.1102 0.0827
vn 0.9905 0.1102 -0.0827
vn -0.0000 0.0483 0.9988
vn -0.0000 0.9937 0.1125
vn -0.0000 -0.9972 -0.0753
vn -0.0000 -0.1016 0.9948
vn 0.9877 -0.1514 -0.0379
vn -0.9877 0.1514 0.0379
vn -0.0000 0.1435 -0.9897
vn -0.0000 -0.0505 -0.9987
vn -0.9881 -0.1228 -0.0921
vn 0.9881 0.1228 0.0921
vn -0.0000 0.0352 0.9994
vn -0.0000 0.9971 0.0758
vn -0.0000 -0.9936 -0.1134
vn -0.0000 -0.9972 0.0753
vn -0.0000 0.9937 -0.1125
vt 0.441085 0.426949
vt 0.414105 0.426949
vt 0.417852 0.411499
vt 0.444832 0.411499
vt 0.414105 0.396049
vt 0.441085 0.396049
vt 0.410358 0.380599
vt 0.437337 0.380599
vt 0.437337 0.442399
vt 0.410358 0.442399
vt 0.414105 0.363619
vt 0.410358 0.348169
vt 0.437337 0.348169
vt 0.441085 0.363619
vt 0.414105 0.332720
vt 0.441085 0.332719
vt 0.417852 0.317270
vt 0.444832 0.317270
vt 0.417852 0.379069
vt 0.444832 0.379069
vt 0.440867 0.047115
vt 0.437120 0.031665
vt 0.464100 0.031665
vt 0.467847 0.047115
vt 0.440867 0.016215
vt 0.467847 0.016215
vt 0.444615 0.000765
vt 0.471594 0.000765
vt 0.444615 0.062564
vt 0.471594 0.062564
vt 0.414105 0.269390
vt 0.441085 0.269390
vt 0.437337 0.284840
vt 0.410358 0.284840
vt 0.441085 0.300290
vt 0.414105 0.300290
vt 0.444832 0.315740
vt 0.417852 0.315740
vt 0.417852 0.253940
vt 0.444832 0.253940
vt 0.051466 0.457690
vt 0.051535 0.498354
vt 0.019778 0.500234
vt 0.018843 0.457805
vt 0.273943 0.071623
vt 0.232376 0.071723
vt 0.229249 0.004677
vt 0.273938 0.000765
vt 0.073335 0.957564
vt 0.073543 0.913424
vt 0.105379 0.912063
vt 0.105991 0.957442
vt 0.073370 0.067724
vt 0.070776 0.000765
vt 0.102575 0.002470
vt 0.108375 0.066368
vt 0.273962 0.236457
vt 0.232262 0.236462
vt 0.231909 0.142524
vt 0.273950 0.142519
vt 0.468461 0.165890
vt 0.465111 0.218601
vt 0.379662 0.221550
vt 0.379663 0.165890
vt 0.075245 0.847160
vt 0.077679 0.776927
vt 0.109845 0.778004
vt 0.110493 0.848256
vt 0.407273 0.056377
vt 0.379662 0.058787
vt 0.379662 0.002946
vt 0.402216 0.000765
vt 0.079719 0.231155
vt 0.076085 0.137770
vt 0.108180 0.136525
vt 0.114713 0.229782
vt 0.326048 0.283440
vt 0.322965 0.253940
vt 0.408828 0.253940
vt 0.408828 0.283440
vt 0.130889 0.029638
vt 0.133831 0.056010
vt 0.128539 0.055982
vt 0.125597 0.029610
vt 0.322538 0.438282
vt 0.323380 0.409537
vt 0.408828 0.412494
vt 0.407986 0.441239
vt 0.320030 0.361392
vt 0.322965 0.305777
vt 0.408828 0.305777
vt 0.408828 0.361392
vt 0.132597 0.223787
vt 0.135430 0.307444
vt 0.130138 0.307416
vt 0.127304 0.223759
vt 0.182277 0.422313
vt 0.137851 0.418208
vt 0.154025 0.402562
vt 0.182375 0.407152
vt 0.141177 0.354352
vt 0.140988 0.283732
vt 0.160573 0.298965
vt 0.156337 0.354421
vt 0.183097 0.283837
vt 0.227719 0.283484
vt 0.212733 0.301926
vt 0.183124 0.299784
vt 0.226182 0.354082
vt 0.225373 0.418655
vt 0.207021 0.406805
vt 0.211031 0.354241
vt 0.156627 0.268081
vt 0.183063 0.267571
vt 0.131470 0.333095
vt 0.135161 0.358206
vt 0.129868 0.358178
vt 0.126177 0.333067
vt 0.134270 0.525867
vt 0.130889 0.609658
vt 0.125596 0.609630
vt 0.128977 0.525839
vt 0.227196 0.094460
vt 0.211564 0.099725
vt 0.207442 0.016171
vt 0.223006 0.002301
vt 0.348849 0.168766
vt 0.375444 0.168724
vt 0.377609 0.252411
vt 0.348633 0.252411
vt 0.182225 0.000765
vt 0.182271 0.016786
vt 0.156656 0.184076
vt 0.141036 0.189335
vt 0.084142 0.589744
vt 0.086598 0.500787
vt 0.123933 0.499807
vt 0.115898 0.590844
vt 0.013809 0.587445
vt 0.049126 0.588564
vt 0.013151 0.233354
vt 0.006071 0.140484
vt 0.041079 0.139128
vt 0.044714 0.232522
vt 0.008385 0.844747
vt 0.007558 0.774526
vt 0.042618 0.775740
vt 0.040153 0.846036
vt 0.006645 0.070277
vt 0.000765 0.003477
vt 0.035937 0.005599
vt 0.038364 0.069080
vt 0.000821 0.957005
vt 0.001352 0.911568
vt 0.037814 0.910961
vt 0.037144 0.957193
vt 0.124067 0.457537
vt 0.086971 0.457679
vt 0.051386 0.417742
vt 0.048490 0.326028
vt 0.083453 0.324662
vt 0.086432 0.415255
vt 0.019652 0.416063
vt 0.013215 0.327319
vt 0.045806 0.682223
vt 0.080861 0.683415
vt 0.014200 0.681542
vt 0.115914 0.684615
vt 0.156527 0.016328
vt 0.153515 0.099920
vt 0.137851 0.094751
vt 0.140876 0.004146
vt 0.349311 0.000765
vt 0.374647 0.000963
vt 0.378133 0.084663
vt 0.349081 0.084581
vt 0.211986 0.267926
vt 0.209307 0.183906
vt 0.224965 0.189074
vt 0.131438 0.441853
vt 0.126145 0.441825
vt 0.136321 0.139795
vt 0.131029 0.139767
vt 0.115157 0.323401
vt 0.123785 0.415969
vt 0.273979 0.421637
vt 0.232654 0.418169
vt 0.229440 0.331151
vt 0.273970 0.331131
vt 0.412277 0.112000
vt 0.383164 0.110012
vt 0.465526 0.113530
vt 0.379663 0.113530
vt 0.318500 0.142514
vt 0.316262 0.071711
vt 0.435004 0.109823
vt 0.435591 0.053922
vt 0.318500 0.331143
vt 0.316048 0.236454
vt 0.314723 0.419753
vt 0.320030 0.084502
vt 0.322639 0.168577
vt 0.323401 0.000822
vt 0.036980 0.999071
vt 0.073223 0.999061
vt 0.000765 0.998705
vt 0.322133 0.252259
vt 0.222994 0.419484
vt 0.204848 0.407298
vt 0.321760 0.460773
vt 0.407208 0.463730
vt 0.134125 0.000793
vt 0.128832 0.000765
vt 0.432143 0.001412
vt 0.106061 0.999235
vt 0.314854 0.003931
vt 0.449796 0.075182
vt 0.449859 0.064224
vt 0.456376 0.064214
vt 0.456394 0.075007
vt 0.446622 0.091812
vt 0.446611 0.081603
vt 0.455994 0.081319
vt 0.456080 0.091952
vt 0.449918 0.097971
vt 0.456394 0.098392
vt 0.246690 0.455149
vt 0.236312 0.454976
vt 0.236445 0.444599
vt 0.246594 0.445457
vt 0.252626 0.452328
vt 0.252794 0.445421
vt 0.229891 0.451724
vt 0.230158 0.444512
vt 0.262863 0.452283
vt 0.263391 0.445158
vt 0.263832 0.460014
vt 0.253211 0.459864
vt 0.235550 0.466014
vt 0.229249 0.459527
vt 0.246182 0.465766
vt 0.278998 0.446734
vt 0.285593 0.446907
vt 0.285576 0.457699
vt 0.279059 0.457689
vt 0.275823 0.430102
vt 0.285281 0.429963
vt 0.285197 0.440596
vt 0.275813 0.440313
vt 0.279119 0.423941
vt 0.285593 0.423524
vt 0.246804 0.434216
vt 0.235679 0.433907
vt 0.253849 0.437410
vt 0.229249 0.436810
vt 0.264792 0.437490
vt 0.263883 0.430202
vt 0.253209 0.429833
vt 0.236582 0.423549
vt 0.229897 0.429517
vt 0.247096 0.423166
vt 0.437120 0.081554
vt 0.443175 0.074756
vt 0.443494 0.098751
vt 0.437283 0.092195
vt 0.443505 0.064094
vt 0.266322 0.440362
vt 0.272379 0.447157
vt 0.272695 0.423166
vt 0.266483 0.429721
vt 0.272706 0.457818
s 0
f 1/1/1 2/2/1 4/3/1 3/4/1
f 3/4/2 4/3/2 8/5/2 7/6/2
f 7/6/3 8/5/3 6/7/3 5/8/3
f 5/9/4 6/10/4 2/2/4 1/1/4
f 9/11/5 11/12/5 12/13/5 10/14/5
f 11/12/2 15/15/2 16/16/2 12/13/2
f 15/15/6 13/17/6 14/18/6 16/16/6
f 13/19/4 9/11/4 10/14/4 14/20/4
f 17/21/1 19/22/1 20/23/1 18/24/1
f 19/22/7 23/25/7 24/26/7 20/23/7
f 23/25/3 21/27/3 22/28/3 24/26/3
f 21/29/8 17/21/8 18/24/8 22/30/8
f 25/31/5 26/32/5 28/33/5 27/34/5
f 27/34/7 28/33/7 32/35/7 31/36/7
f 31/36/6 32/35/6 30/37/6 29/38/6
f 29/39/8 30/40/8 26/32/8 25/31/8
f 126/41/9 64/42/9 36/43/9 110/44/9
f 132/45/10 102/46/10 40/47/10 111/48/10
f 124/49/11 70/50/11 38/51/11 112/52/11
f 108/53/12 67/54/12 37/55/12 101/56/12
f 130/57/13 76/58/13 45/59/13 116/60/13
f 103/61/14 49/62/14 55/63/14 100/64/14
f 106/65/15 66/66/15 44/67/15 99/68/15
f 131/69/16 97/70/16 57/71/16 121/72/16
f 95/73/17 72/74/17 47/75/17 78/76/17
f 119/77/18 52/78/18 58/79/18 121/80/18
f 120/81/19 54/82/19 48/83/19 114/84/19
f 118/85/20 50/86/20 56/87/20 117/88/20
f 104/89/21 51/90/21 57/91/21 97/92/21
f 85/93/22 59/94/22 43/95/22 73/96/22
f 112/97/23 38/98/23 50/99/23 118/100/23
f 99/101/24 44/102/24 51/103/24 104/104/24
f 113/105/25 47/106/25 52/107/25 119/108/25
f 101/109/26 37/110/26 49/111/26 103/112/26
f 113/105/27 44/102/27 54/113/27 120/114/27
f 122/115/28 60/116/28 41/117/28 115/118/28
f 88/119/29 53/120/29 46/121/29 80/122/29
f 77/123/30 87/124/30 60/125/30 33/126/30
f 128/127/31 80/128/31 46/129/31 114/130/31
f 109/131/32 33/126/32 60/125/32 122/132/32
f 86/133/33 54/113/33 44/102/33 81/134/33
f 91/135/34 63/136/34 34/137/34 82/138/34
f 75/139/35 36/43/35 64/42/35 89/140/35
f 89/140/36 64/42/36 63/136/36 91/135/36
f 83/141/37 42/142/37 71/143/37 93/144/37
f 93/144/38 71/143/38 72/74/38 95/73/38
f 102/145/39 45/146/39 65/147/39 105/148/39
f 105/148/40 65/147/40 66/66/40 106/65/40
f 98/149/41 39/150/41 68/151/41 107/152/41
f 107/152/42 68/151/42 67/54/42 108/53/42
f 111/153/43 40/154/43 69/155/43 123/156/43
f 123/156/44 69/155/44 70/50/44 124/49/44
f 109/157/45 34/137/45 63/136/45 125/158/45
f 125/158/46 63/136/46 64/42/46 126/41/46
f 61/159/47 94/160/47 96/161/47 62/162/47
f 94/160/48 93/144/48 95/73/48 96/161/48
f 35/163/49 84/164/49 94/160/49 61/159/49
f 84/164/50 83/141/50 93/144/50 94/160/50
f 65/147/51 90/165/51 92/166/51 66/66/51
f 90/165/52 89/140/52 91/135/52 92/166/52
f 45/146/53 76/167/53 90/165/53 65/147/53
f 76/167/54 75/139/54 89/140/54 90/165/54
f 66/66/55 92/166/55 81/168/55 44/67/55
f 92/166/56 91/135/56 82/138/56 81/168/56
f 59/169/57 85/170/57 82/171/57 34/172/57
f 85/170/58 86/133/58 81/134/58 82/171/58
f 115/173/59 41/174/59 79/175/59 127/176/59
f 127/176/60 79/175/60 80/128/60 128/127/60
f 47/106/61 53/177/61 88/178/61 78/179/61
f 78/179/58 88/178/58 87/124/58 77/123/58
f 60/116/62 87/180/62 79/181/62 41/117/62
f 87/180/63 88/119/63 80/122/63 79/181/63
f 54/82/64 86/182/64 74/183/64 48/83/64
f 86/182/65 85/93/65 73/96/65 74/183/65
f 62/162/66 96/161/66 77/184/66 33/185/66
f 96/161/67 95/73/67 78/76/67 77/184/67
f 110/186/68 36/187/68 75/188/68 129/189/68
f 129/189/69 75/188/69 76/58/69 130/57/69
f 71/143/70 107/152/70 108/53/70 72/74/70
f 42/142/71 98/149/71 107/152/71 71/143/71
f 69/155/72 105/148/72 106/65/72 70/50/72
f 40/154/73 102/145/73 105/148/73 69/155/73
f 47/106/74 101/109/74 103/112/74 52/107/74
f 38/98/75 99/101/75 104/104/75 50/99/75
f 50/86/76 104/89/76 97/92/76 56/87/76
f 117/190/77 56/191/77 97/70/77 131/69/77
f 70/50/78 106/65/78 99/68/78 38/51/78
f 52/192/79 103/61/79 100/64/79 58/193/79
f 72/74/80 108/53/80 101/56/80 47/75/80
f 116/60/81 45/59/81 102/46/81 132/45/81
f 42/194/82 116/60/82 132/45/82 98/195/82
f 55/196/83 117/190/83 131/69/83 100/197/83
f 84/198/84 129/189/84 130/57/84 83/199/84
f 35/200/85 110/186/85 129/189/85 84/198/85
f 73/201/86 127/176/86 128/127/86 74/202/86
f 43/203/87 115/173/87 127/176/87 73/201/87
f 62/162/88 125/158/88 126/41/88 61/159/88
f 33/185/89 109/157/89 125/158/89 62/162/89
f 68/204/90 123/156/90 124/49/90 67/205/90
f 39/206/91 111/153/91 123/156/91 68/204/91
f 34/172/92 109/131/92 122/132/92 59/169/92
f 74/202/93 128/127/93 114/130/93 48/207/93
f 59/94/28 122/115/28 115/118/28 43/95/28
f 47/106/94 113/105/94 120/114/94 53/177/94
f 44/102/95 113/105/95 119/108/95 51/103/95
f 37/208/23 112/97/23 118/100/23 49/209/23
f 49/210/96 118/85/96 117/88/96 55/211/96
f 53/212/19 120/81/19 114/84/19 46/213/19
f 51/90/28 119/77/28 121/80/28 57/91/28
f 100/197/97 131/69/97 121/72/97 58/214/97
f 83/199/98 130/57/98 116/60/98 42/194/98
f 67/205/99 124/49/99 112/52/99 37/215/99
f 98/195/100 132/45/100 111/48/100 39/216/100
f 61/159/101 126/41/101 110/44/101 35/163/101
f 162/217/102 161/218/102 137/219/102 139/220/102
f 163/221/103 164/222/103 140/223/103 138/224/103
f 161/225/19 163/221/19 138/224/19 137/226/19
f 164/222/28 162/217/28 139/220/28 140/223/28
f 147/227/104 145/228/104 142/229/104 141/230/104
f 148/231/105 147/227/105 141/230/105 143/232/105
f 145/228/106 146/233/106 144/234/106 142/229/106
f 146/235/107 148/231/107 143/232/107 144/236/107
f 134/237/108 136/238/108 148/231/108 146/235/108
f 133/239/109 134/240/109 146/233/109 145/228/109
f 136/238/110 135/241/110 147/227/110 148/231/110
f 135/241/111 133/239/111 145/228/111 147/227/111
f 166/242/112 155/243/112 153/244/112 165/245/112
f 167/246/113 154/247/113 156/248/113 168/249/113
f 165/250/19 153/251/19 154/247/19 167/246/19
f 168/249/28 156/248/28 155/243/28 166/242/28
f 159/252/114 141/230/114 142/229/114 157/253/114
f 160/254/115 143/232/115 141/230/115 159/252/115
f 157/253/116 142/229/116 144/234/116 158/255/116
f 158/256/117 144/236/117 143/232/117 160/254/117
f 150/257/118 158/256/118 160/254/118 152/258/118
f 149/259/119 157/253/119 158/255/119 150/260/119
f 152/258/120 160/254/120 159/252/120 151/261/120
f 151/261/121 159/252/121 157/253/121 149/259/121
f 135/262/28 136/263/28 162/217/28 164/222/28
f 134/264/19 133/265/19 163/221/19 161/225/19
f 133/265/122 135/262/122 164/222/122 163/221/122
f 136/263/123 134/266/123 161/218/123 162/217/123
f 151/267/28 168/249/28 166/242/28 152/268/28
f 150/269/19 165/250/19 167/246/19 149/270/19
f 149/270/124 167/246/124 168/249/124 151/267/124
f 152/268/125 166/242/125 165/245/125 150/271/125
