# Apple ModelIO OBJ File: Wall_3.5x10_(2)
mtllib Wall_3.5x10_(2).mtl
g Wall_3.5x10m
v 24.1 9.56223 -1.91876
v 24.9 9.56241 -1.99392
v 24.1 9.56223 -1.88587
v 24.9 9.56241 -1.96104
v 23.3 9.68784 -1.97234
v 22.5 9.68759 -1.96104
v 22.5 9.56241 -1.96104
v 23.3 9.56216 -1.97234
v 24.1 9.68759 -1.88826
v 25.7 9.68778 -1.88688
v 24.9 9.68759 -1.96104
v 25.7 9.56216 -1.89298
v 23.3 9.68784 -2.00523
v 22.5 9.68759 -1.99392
v 24.9 7.26405 -2
v 25.7 7.26405 -1.93059
v 24.9 7.875 -2
v 25.7 7.875 -2.02098
v 24.9 8.75 -1.91507
v 25.7 8.75 -2.03821
v 25.7 9.56216 -1.92586
v 24.1 7.26405 -1.9407
v 24.1 7.875 -2
v 24.1 8.75 -1.96651
v 23.3 7.26405 -1.98989
v 23.3 7.875 -1.9169
v 23.3 8.75 -2
v 24.1 9.68759 -1.92114
v 22.5 7.26405 -1.97437
v 22.5 7.875 -1.91507
v 22.5 8.75 -1.91507
v 26.5 7.26405 -1.97437
v 26.5 7.875 -1.91507
v 26.5 8.75 -1.95136
v 26.5 9.68759 -1.96104
v 26.5 9.56241 -1.96104
v 24.1 7.21094 -1.8186
v 23.3 7.21094 -1.87499
v 25.7 7 -1.79813
v 26.5 7 -1.88306
v 25.7 7.21094 -1.81053
v 26.5 7.21094 -1.86258
v 22.5 7 -1.88306
v 23.3 7 -1.88306
v 22.5 7.21094 -1.86258
v 24.1 7 -1.79813
v 24.9 7 -1.88306
v 24.9 7.21094 -1.88306
v 23.3 9.56216 -2.00523
v 22.5 9.56241 -1.99392
v 26.5 9.56241 -1.99392
v 25.7 9.68778 -1.91977
v 24.9 9.68759 -1.99392
v 22.5 10.5 -1.91507
v 23.3 10.5 -2
v 26.5 9.68759 -1.99392
v 25.7 10.5 -1.91507
v 26.5 10.5 -1.91507
v 24.1 10.5 -2
v 24.9 10.5 -1.91507
v 30.1 9.56223 -1.91876
v 30.9 9.56241 -1.99392
v 30.1 9.56223 -1.88587
v 30.9 9.56241 -1.96104
v 29.3 9.68784 -1.97234
v 28.5 9.68759 -1.94734
v 28.5 9.56241 -1.94734
v 29.3 9.56216 -1.97234
v 30.1 9.68759 -1.88826
v 31.7 9.68778 -1.88688
v 30.9 9.68759 -1.96104
v 31.7 9.56216 -1.89298
v 29.3 9.68784 -2.00523
v 28.5 9.68759 -1.98022
v 30.9 7.26405 -2
v 31.7 7.26405 -1.93059
v 30.9 7.875 -2
v 31.7 7.875 -2.02098
v 30.9 8.75 -1.91507
v 31.7 8.75 -2.03821
v 31.7 9.56216 -1.92586
v 30.1 7.26405 -1.9407
v 30.1 7.875 -2
v 30.1 8.75 -1.96651
v 29.3 7.26405 -1.98989
v 29.3 7.875 -1.9169
v 29.3 8.75 -2
v 30.1 9.68759 -1.92114
v 28.5 7.26405 -1.94838
v 28.5 7.875 -1.86978
v 28.5 8.75 -1.9943
v 32.5 7.26405 -1.97437
v 32.5 7.875 -1.91507
v 32.5 8.75 -1.91507
v 32.5 9.68759 -1.96104
v 32.5 9.56241 -1.96104
v 30.1 7.21094 -1.8186
v 29.3 7.21094 -1.87499
v 31.7 7 -1.79813
v 32.5 7 -1.88306
v 31.7 7.21094 -1.81053
v 32.5 7.21094 -1.86258
v 28.5 7 -1.85707
v 29.3 7 -1.88306
v 28.5 7.21094 -1.83659
v 30.1 7 -1.79813
v 30.9 7 -1.88306
v 30.9 7.21094 -1.88306
v 29.3 9.56216 -2.00523
v 28.5 9.56241 -1.98022
v 32.5 9.56241 -1.99392
v 31.7 9.68778 -1.91977
v 30.9 9.68759 -1.99392
v 28.5 10.5 -1.91507
v 29.3 10.5 -2
v 32.5 9.68759 -1.99392
v 31.7 10.5 -1.91507
v 32.5 10.5 -1.91507
v 30.1 10.5 -2
v 30.9 10.5 -1.91507
v 27.5 7.21094 -1.80036
v 27.5 7 -1.82085
v 27.5 7.26405 -1.91216
v 27.5 7.875 -1.98576
v 27.5 8.75 -1.91507
v 27.5 9.56241 -2.03464
v 27.5 9.56241 -2.00176
v 27.5 9.68759 -2.00176
v 27.5 9.68759 -2.03464
v 27.5 10.5 -1.91507
vn 0.0002 -1 -0
vn 0.0141 -0 0.9999
vn -0.106 0.0094 0.9943
vn -0.0885 -0.0242 0.9958
vn -0.0003 1 -0
vn -0.0302 0.0737 0.9968
vn 0.0896 -0.0385 0.9952
vn -0.0003 -1 -0
vn 0.037 0.0484 0.9981
vn -0.0321 -0.0675 0.9972
vn 0.0921 0.0095 0.9957
vn 0.0212 -0.0112 0.9997
vn 0.031 0.0283 0.9991
vn 0.0003 1 -0
vn 0.0108 -0.1076 0.9941
vn 0.0541 0.0474 0.9974
vn -0.0388 0.0254 0.9989
vn -0.1196 0.0303 0.9924
vn 0.0885 -0.0242 0.9958
vn -0.027 0.9122 0.4089
vn 0.0853 -0.0191 0.9962
vn 0.0077 -0.0675 0.9977
vn -0.0879 0.0293 0.9957
vn 0.0929 0.0483 0.9945
vn -0.0979 0.0292 0.9948
vn 0.0314 0.9134 0.4059
vn 0.0249 0.9088 0.4164
vn -0.0363 0.9119 0.4087
vn 0.0074 0.9055 0.4243
vn 0.0001 -1 -0
vn 0.0003 -1 -0
vn -0.0002 1 -0
vn 0.06 -0.0516 0.9969
vn 0.06 0.0516 0.9969
vn 0.0462 -0.0513 0.9976
vn -0.0117 -0.0429 0.999
vn -0.0524 0.0452 0.9976
vn -0.0747 -0.0261 0.9969
vn -0.0076 -0 1
vn 0.0148 0.0191 0.9997
vn -0.0462 -0.0513 0.9976
vn 0.0344 -0.0206 0.9992
vn 0.0002 1 -0
vn -0 1 -0
vn 0.0312 -0 0.9995
vn 0.0549 -0.1229 0.9909
vn 0.0328 0.1178 0.9925
vn -0.1417 0.0097 0.9899
vn 0.0401 -0.0675 0.9969
vn 0.0212 0.9053 0.4242
vn 0.0685 -0.0432 0.9967
vn 0.0192 -0.0054 0.9998
vn -0.0344 -0.0206 0.9992
vn 0.036 -0.0966 0.9947
vn 0.0155 0.9031 0.4291
vn -0.0398 -0.0041 0.9992
vn -0.0184 0.0307 0.9994
vn 0.0124 0.0648 0.9978
vn -0 -1 -0
vn -0.0543 -0 0.9985
vn -0.027 -0.1129 0.9932
vn 0.0202 -0.1212 0.9924
vn 0.0407 -0 0.9992
vn 0.0022 0.0993 0.9951
vn 0.0172 -0.0196 0.9997
vn 0.0042 0.0117 0.9999
vn -0.0267 0.9029 0.429
vn -0.0618 -0.0965 0.9934
vt 0.265625 0.839776
vt 0.265106 0.759807
vt 0.268795 0.839747
vt 0.268292 0.759815
vt 0.281224 0.919319
vt 0.280922 0.998543
vt 0.268816 0.998544
vt 0.268445 0.919311
vt 0.280702 0.83974
vt 0.280335 0.679415
vt 0.281379 0.759859
vt 0.268248 0.679488
vt 0.284437 0.919462
vt 0.284113 0.998513
vt 0.036956 0.760497
vt 0.034186 0.680581
vt 0.097213 0.760308
vt 0.096458 0.680504
vt 0.184613 0.760184
vt 0.183276 0.680057
vt 0.265043 0.679506
vt 0.035024 0.840407
vt 0.097072 0.840222
vt 0.184528 0.839826
vt 0.036971 0.920182
vt 0.097687 0.920478
vt 0.184764 0.91969
vt 0.283872 0.83976
vt 0.036613 0.999474
vt 0.097639 0.999674
vt 0.184676 0.999459
vt 0.035415 0.600378
vt 0.095947 0.60026
vt 0.183364 0.600277
vt 0.280217 0.599995
vt 0.267655 0.600047
vt 0.021979 0.840489
vt 0.024473 0.920064
vt 0.000538 0.680594
vt 0.001843 0.60021
vt 0.021338 0.680526
vt 0.02319 0.600332
vt 0.003668 0.999698
vt 0.003303 0.920435
vt 0.024472 0.999645
vt 0.001033 0.840535
vt 0.002936 0.760561
vt 0.024333 0.760489
vt 0.265239 0.919464
vt 0.265626 0.998509
vt 0.264467 0.599857
vt 0.283534 0.67939
vt 0.284572 0.75986
vt 0.364923 0.999592
vt 0.365175 0.919937
vt 0.2834 0.599778
vt 0.364576 0.678925
vt 0.364273 0.600037
vt 0.365508 0.839701
vt 0.365656 0.758507
vt 0.265283 0.241425
vt 0.264935 0.161337
vt 0.268457 0.241405
vt 0.268124 0.16135
vt 0.280815 0.321333
vt 0.280305 0.401102
vt 0.268188 0.401075
vt 0.26784 0.321318
vt 0.28038 0.241427
vt 0.280319 0.08082
vt 0.281233 0.161419
vt 0.268174 0.080876
vt 0.284023 0.321453
vt 0.283513 0.401153
vt 0.036862 0.160828
vt 0.03499 0.080672
vt 0.097136 0.161096
vt 0.096988 0.081367
vt 0.184454 0.161478
vt 0.183341 0.081546
vt 0.26496 0.080892
vt 0.034316 0.240787
vt 0.096478 0.241026
vt 0.184022 0.241152
vt 0.035988 0.320589
vt 0.096583 0.321388
vt 0.183843 0.321199
vt 0.283554 0.241454
vt 0.034858 0.400395
vt 0.096067 0.400497
vt 0.183728 0.401107
vt 0.036823 0.000877
vt 0.09714 0.001785
vt 0.183711 0.00194
vt 0.280291 0.001699
vt 0.267525 0.001756
vt 0.021283 0.240794
vt 0.023475 0.320572
vt 0.001115 0.080287
vt 0.003689 0.000302
vt 0.022058 0.080476
vt 0.024752 0.001195
vt 0.001758 0.400538
vt 0.002201 0.320793
vt 0.022708 0.400761
vt 0.000302 0.24072
vt 0.002756 0.160598
vt 0.024214 0.160708
vt 0.264635 0.321439
vt 0.264981 0.401106
vt 0.264381 0.00151
vt 0.28353 0.080799
vt 0.284431 0.161425
vt 0.364788 0.401644
vt 0.364958 0.321956
vt 0.283433 0.001407
vt 0.364576 0.080337
vt 0.364132 0.001433
vt 0.365387 0.24152
vt 0.365656 0.160143
vt 0.021832 0.499907
vt 0.000892 0.499933
vt 0.034084 0.500032
vt 0.095745 0.500137
vt 0.183038 0.500967
vt 0.264389 0.50057
vt 0.267645 0.500556
vt 0.280178 0.500558
vt 0.283432 0.500583
vt 0.364636 0.500806
usemtl 
f 1/1/1 2/2/1 3/3/1
f 2/2/1 4/4/1 3/3/1
f 5/5/2 6/6/2 7/7/2
f 5/5/2 7/7/2 8/8/2
f 9/9/3 5/5/3 8/8/3
f 9/9/3 8/8/3 3/3/3
f 10/10/4 11/11/4 4/4/4
f 10/10/4 4/4/4 12/12/4
f 13/13/5 14/14/5 5/5/5
f 14/14/5 6/6/5 5/5/5
f 15/15/6 16/16/6 17/17/6
f 16/16/6 18/18/6 17/17/6
f 17/17/7 18/18/7 19/19/7
f 18/18/7 20/20/7 19/19/7
f 2/2/8 21/21/8 4/4/8
f 21/21/8 12/12/8 4/4/8
f 22/22/9 15/15/9 17/17/9
f 22/22/9 17/17/9 23/23/9
f 23/23/10 17/17/10 19/19/10
f 23/23/10 19/19/10 24/24/10
f 11/11/11 9/9/11 3/3/11
f 11/11/11 3/3/11 4/4/11
f 25/25/12 22/22/12 26/26/12
f 22/22/12 23/23/12 26/26/12
f 26/26/13 23/23/13 24/24/13
f 26/26/13 24/24/13 27/27/13
f 28/28/14 13/13/14 5/5/14
f 28/28/14 5/5/14 9/9/14
f 29/29/15 25/25/15 30/30/15
f 25/25/15 26/26/15 30/30/15
f 30/30/16 26/26/16 27/27/16
f 30/30/16 27/27/16 31/31/16
f 16/16/17 32/32/17 18/18/17
f 32/32/17 33/33/17 18/18/17
f 18/18/18 33/33/18 20/20/18
f 33/33/18 34/34/18 20/20/18
f 35/35/19 10/10/19 36/36/19
f 10/10/19 12/12/19 36/36/19
f 22/22/20 25/25/20 37/37/20
f 25/25/20 38/38/20 37/37/20
f 39/39/21 40/40/21 41/41/21
f 40/40/21 42/42/21 41/41/21
f 43/43/22 44/44/22 45/45/22
f 44/44/22 38/38/22 45/45/22
f 44/44/23 46/46/23 38/38/23
f 46/46/23 37/37/23 38/38/23
f 46/46/24 47/47/24 48/48/24
f 46/46/24 48/48/24 37/37/24
f 47/47/25 39/39/25 48/48/25
f 39/39/25 41/41/25 48/48/25
f 15/15/26 22/22/26 37/37/26
f 15/15/26 37/37/26 48/48/26
f 32/32/27 16/16/27 41/41/27
f 32/32/27 41/41/27 42/42/27
f 16/16/28 15/15/28 41/41/28
f 15/15/28 48/48/28 41/41/28
f 25/25/29 29/29/29 45/45/29
f 25/25/29 45/45/29 38/38/29
f 49/49/30 1/1/30 8/8/30
f 1/1/30 3/3/30 8/8/30
f 50/50/8 49/49/8 7/7/8
f 49/49/8 8/8/8 7/7/8
f 21/21/31 51/51/31 12/12/31
f 51/51/31 36/36/31 12/12/31
f 52/52/32 53/53/32 11/11/32
f 52/52/32 11/11/32 10/10/32
f 14/14/33 13/13/33 54/54/33
f 13/13/33 55/55/33 54/54/33
f 31/31/34 27/27/34 49/49/34
f 31/31/34 49/49/34 50/50/34
f 52/52/35 56/56/35 57/57/35
f 56/56/35 58/58/35 57/57/35
f 20/20/36 34/34/36 51/51/36
f 20/20/36 51/51/36 21/21/36
f 13/13/37 28/28/37 55/55/37
f 28/28/37 59/59/37 55/55/37
f 27/27/38 24/24/38 1/1/38
f 27/27/38 1/1/38 49/49/38
f 28/28/39 53/53/39 60/60/39
f 28/28/39 60/60/39 59/59/39
f 24/24/40 19/19/40 2/2/40
f 24/24/40 2/2/40 1/1/40
f 53/53/41 52/52/41 57/57/41
f 53/53/41 57/57/41 60/60/41
f 19/19/42 20/20/42 2/2/42
f 20/20/42 21/21/42 2/2/42
f 56/56/43 52/52/43 10/10/43
f 56/56/43 10/10/43 35/35/43
f 53/53/44 28/28/44 9/9/44
f 53/53/44 9/9/44 11/11/44
f 61/61/1 62/62/1 63/63/1
f 62/62/1 64/64/1 63/63/1
f 65/65/45 66/66/45 67/67/45
f 65/65/45 67/67/45 68/68/45
f 69/69/3 65/65/3 68/68/3
f 69/69/3 68/68/3 63/63/3
f 70/70/4 71/71/4 64/64/4
f 70/70/4 64/64/4 72/72/4
f 73/73/5 74/74/5 65/65/5
f 74/74/5 66/66/5 65/65/5
f 75/75/6 76/76/6 77/77/6
f 76/76/6 78/78/6 77/77/6
f 77/77/7 78/78/7 79/79/7
f 78/78/7 80/80/7 79/79/7
f 62/62/8 81/81/8 64/64/8
f 81/81/8 72/72/8 64/64/8
f 82/82/9 75/75/9 77/77/9
f 82/82/9 77/77/9 83/83/9
f 83/83/10 77/77/10 79/79/10
f 83/83/10 79/79/10 84/84/10
f 71/71/11 69/69/11 63/63/11
f 71/71/11 63/63/11 64/64/11
f 85/85/12 82/82/12 86/86/12
f 82/82/12 83/83/12 86/86/12
f 86/86/13 83/83/13 84/84/13
f 86/86/13 84/84/13 87/87/13
f 88/88/14 73/73/14 65/65/14
f 88/88/14 65/65/14 69/69/14
f 89/89/46 85/85/46 90/90/46
f 85/85/46 86/86/46 90/90/46
f 90/90/47 86/86/47 87/87/47
f 90/90/47 87/87/47 91/91/47
f 76/76/17 92/92/17 78/78/17
f 92/92/17 93/93/17 78/78/17
f 78/78/48 93/93/48 80/80/48
f 93/93/48 94/94/48 80/80/48
f 95/95/19 70/70/19 96/96/19
f 70/70/19 72/72/19 96/96/19
f 82/82/20 85/85/20 97/97/20
f 85/85/20 98/98/20 97/97/20
f 99/99/21 100/100/21 101/101/21
f 100/100/21 102/102/21 101/101/21
f 103/103/49 104/104/49 105/105/49
f 104/104/49 98/98/49 105/105/49
f 104/104/23 106/106/23 98/98/23
f 106/106/23 97/97/23 98/98/23
f 106/106/24 107/107/24 108/108/24
f 106/106/24 108/108/24 97/97/24
f 107/107/25 99/99/25 108/108/25
f 99/99/25 101/101/25 108/108/25
f 75/75/26 82/82/26 97/97/26
f 75/75/26 97/97/26 108/108/26
f 92/92/27 76/76/27 101/101/27
f 92/92/27 101/101/27 102/102/27
f 76/76/28 75/75/28 101/101/28
f 75/75/28 108/108/28 101/101/28
f 85/85/50 89/89/50 105/105/50
f 85/85/50 105/105/50 98/98/50
f 109/109/30 61/61/30 68/68/30
f 61/61/30 63/63/30 68/68/30
f 110/110/8 109/109/8 68/68/8
f 110/110/8 68/68/8 67/67/8
f 81/81/31 111/111/31 72/72/31
f 111/111/31 96/96/31 72/72/31
f 112/112/32 113/113/32 71/71/32
f 112/112/32 71/71/32 70/70/32
f 74/74/51 73/73/51 114/114/51
f 73/73/51 115/115/51 114/114/51
f 91/91/52 87/87/52 110/110/52
f 87/87/52 109/109/52 110/110/52
f 112/112/35 116/116/35 117/117/35
f 116/116/35 118/118/35 117/117/35
f 80/80/53 94/94/53 111/111/53
f 80/80/53 111/111/53 81/81/53
f 73/73/37 88/88/37 115/115/37
f 88/88/37 119/119/37 115/115/37
f 87/87/38 84/84/38 61/61/38
f 87/87/38 61/61/38 109/109/38
f 88/88/39 113/113/39 120/120/39
f 88/88/39 120/120/39 119/119/39
f 84/84/40 79/79/40 62/62/40
f 84/84/40 62/62/40 61/61/40
f 113/113/41 112/112/41 117/117/41
f 113/113/41 117/117/41 120/120/41
f 79/79/42 80/80/42 62/62/42
f 80/80/42 81/81/42 62/62/42
f 116/116/43 112/112/43 70/70/43
f 116/116/43 70/70/43 95/95/43
f 113/113/44 88/88/44 69/69/44
f 113/113/44 69/69/44 71/71/44
f 121/121/54 122/122/54 103/103/54
f 121/121/54 103/103/54 105/105/54
f 123/123/55 121/121/55 105/105/55
f 123/123/55 105/105/55 89/89/55
f 124/124/56 123/123/56 90/90/56
f 123/123/56 89/89/56 90/90/56
f 125/125/57 124/124/57 90/90/57
f 125/125/57 90/90/57 91/91/57
f 126/126/58 125/125/58 110/110/58
f 125/125/58 91/91/58 110/110/58
f 127/127/59 126/126/59 110/110/59
f 127/127/59 110/110/59 67/67/59
f 128/128/60 127/127/60 67/67/60
f 128/128/60 67/67/60 66/66/60
f 129/129/44 128/128/44 66/66/44
f 129/129/44 66/66/44 74/74/44
f 130/130/61 129/129/61 114/114/61
f 129/129/61 74/74/61 114/114/61
f 58/58/62 56/56/62 129/129/62
f 58/58/62 129/129/62 130/130/62
f 56/56/44 35/35/44 128/128/44
f 56/56/44 128/128/44 129/129/44
f 35/35/63 36/36/63 127/127/63
f 35/35/63 127/127/63 128/128/63
f 36/36/59 51/51/59 126/126/59
f 36/36/59 126/126/59 127/127/59
f 51/51/64 34/34/64 126/126/64
f 34/34/64 125/125/64 126/126/64
f 34/34/65 33/33/65 124/124/65
f 34/34/65 124/124/65 125/125/65
f 33/33/66 32/32/66 124/124/66
f 32/32/66 123/123/66 124/124/66
f 32/32/67 42/42/67 121/121/67
f 32/32/67 121/121/67 123/123/67
f 42/42/68 40/40/68 122/122/68
f 42/42/68 122/122/68 121/121/68
s off
