# Apple ModelIO OBJ File: Wall_3.5x4
mtllib Wall_3.5x4.mtl
g Wall_3.5x4m
v 12.1 9.56223 -1.91876
v 12.9 9.56241 -1.99392
v 12.1 9.56223 -1.88587
v 12.9 9.56241 -1.96104
v 11.3 9.68784 -1.97234
v 10.5 9.68759 -1.96104
v 10.5 9.56241 -1.96104
v 11.3 9.56216 -1.97234
v 12.1 9.68759 -1.88826
v 13.7 9.68778 -1.88688
v 12.9 9.68759 -1.96104
v 13.7 9.56216 -1.89298
v 11.3 9.68784 -2.00523
v 10.5 9.68759 -1.99392
v 12.9 7.26405 -2
v 13.7 7.26405 -1.93059
v 12.9 7.875 -2
v 13.7 7.875 -2.02098
v 12.9 8.75 -1.91507
v 13.7 8.75 -2.03821
v 13.7 9.56216 -1.92586
v 12.1 7.26405 -1.9407
v 12.1 7.875 -2
v 12.1 8.75 -1.96651
v 11.3 7.26405 -1.98989
v 11.3 7.875 -1.9169
v 11.3 8.75 -2
v 12.1 9.68759 -1.92114
v 10.5 7.26405 -1.97437
v 10.5 7.875 -1.91507
v 10.5 8.75 -1.91507
v 14.5 7.26405 -1.97437
v 14.5 7.875 -1.91507
v 14.5 8.75 -1.91507
v 14.5 9.68759 -1.96104
v 14.5 9.56241 -1.96104
v 12.1 7.21094 -1.8186
v 11.3 7.21094 -1.87499
v 13.7 7 -1.79813
v 14.5 7 -1.88306
v 13.7 7.21094 -1.81053
v 14.5 7.21094 -1.86258
v 10.5 7 -1.88306
v 11.3 7 -1.88306
v 10.5 7.21094 -1.86258
v 12.1 7 -1.79813
v 12.9 7 -1.88306
v 12.9 7.21094 -1.88306
v 11.3 9.56216 -2.00523
v 10.5 9.56241 -1.99392
v 14.5 9.56241 -1.99392
v 13.7 9.68778 -1.91977
v 12.9 9.68759 -1.99392
v 10.5 10.5 -1.91507
v 11.3 10.5 -2
v 14.5 9.68759 -1.99392
v 13.7 10.5 -1.91507
v 14.5 10.5 -1.91507
v 12.1 10.5 -2
v 12.9 10.5 -1.91507
vn 0.0002 -1 -0
vn 0.0141 -0 0.9999
vn -0.106 0.0094 0.9943
vn -0.0885 -0.0242 0.9958
vn -0.0003 1 -0
vn -0.0302 0.0737 0.9968
vn 0.0896 -0.0385 0.9952
vn -0.0003 -1 -0
vn 0.037 0.0484 0.9981
vn -0.0321 -0.0675 0.9972
vn 0.0921 0.0095 0.9957
vn 0.0212 -0.0112 0.9997
vn 0.031 0.0283 0.9991
vn 0.0003 1 -0
vn 0.0108 -0.1076 0.9941
vn 0.0541 0.0474 0.9974
vn -0.0388 0.0254 0.9989
vn -0.1417 0.0097 0.9899
vn 0.0885 -0.0242 0.9958
vn -0.027 0.9122 0.4089
vn 0.0853 -0.0191 0.9962
vn 0.0077 -0.0675 0.9977
vn -0.0879 0.0293 0.9957
vn 0.0929 0.0483 0.9945
vn -0.0979 0.0292 0.9948
vn 0.0314 0.9134 0.4059
vn 0.0249 0.9088 0.4164
vn -0.0363 0.9119 0.4087
vn 0.0074 0.9055 0.4243
vn 0.0001 -1 -0
vn 0.0003 -1 -0
vn -0.0002 1 -0
vn 0.06 -0.0516 0.9969
vn 0.06 0.0516 0.9969
vn 0.0462 -0.0513 0.9976
vn -0.0344 -0.0206 0.9992
vn -0.0524 0.0452 0.9976
vn -0.0747 -0.0261 0.9969
vn -0.0076 -0 1
vn 0.0148 0.0191 0.9997
vn -0.0462 -0.0513 0.9976
vn 0.0344 -0.0206 0.9992
vn 0.0002 1 -0
vn -0 1 -0
vt 0.250377 0.400083
vt 0.251774 0.599845
vt 0.242457 0.400156
vt 0.243819 0.599835
vt 0.211425 0.201269
vt 0.212274 0.003181
vt 0.242545 0.003192
vt 0.243373 0.201298
vt 0.212701 0.400181
vt 0.213986 0.80082
vt 0.211116 0.599755
vt 0.244287 0.80059
vt 0.203394 0.200911
vt 0.204295 0.003251
vt 0.820768 0.599177
vt 0.826119 0.799213
vt 0.670379 0.599013
vt 0.671407 0.797982
vt 0.452529 0.598833
vt 0.455946 0.798246
vt 0.252306 0.800526
vt 0.8264 0.399452
vt 0.671344 0.399477
vt 0.45294 0.400066
vt 0.822059 0.199975
vt 0.670242 0.198906
vt 0.45257 0.200519
vt 0.204779 0.400131
vt 0.823387 0.001669
vt 0.670729 0.000864
vt 0.453019 0.001063
vt 0.822196 0.998357
vt 0.671672 0.996573
vt 0.455652 0.996887
vt 0.214652 0.99823
vt 0.246504 0.997991
vt 0.859017 0.399355
vt 0.853313 0.200346
vt 0.910664 0.799897
vt 0.904888 0.999523
vt 0.858394 0.799595
vt 0.852318 0.997465
vt 0.90579 0.001289
vt 0.906263 0.199548
vt 0.853754 0.001307
vt 0.911406 0.399406
vt 0.90591 0.599468
vt 0.852345 0.59937
vt 0.251386 0.200918
vt 0.25052 0.003282
vt 0.25435 0.998583
vt 0.205974 0.800896
vt 0.203137 0.599761
vt 0.002202 0.000477
vt 0.0015 0.199682
vt 0.206814 0.998983
vt 0.00375 0.802639
vt 0.005444 0.999523
vt 0.000644 0.400367
vt 0.000477 0.60349
usemtl 
f 1/1/1 2/2/1 3/3/1
f 2/2/1 4/4/1 3/3/1
f 5/5/2 6/6/2 7/7/2
f 5/5/2 7/7/2 8/8/2
f 9/9/3 5/5/3 8/8/3
f 9/9/3 8/8/3 3/3/3
f 10/10/4 11/11/4 4/4/4
f 10/10/4 4/4/4 12/12/4
f 13/13/5 14/14/5 6/6/5
f 13/13/5 6/6/5 5/5/5
f 15/15/6 16/16/6 17/17/6
f 16/16/6 18/18/6 17/17/6
f 17/17/7 18/18/7 19/19/7
f 18/18/7 20/20/7 19/19/7
f 2/2/8 21/21/8 12/12/8
f 2/2/8 12/12/8 4/4/8
f 22/22/9 15/15/9 17/17/9
f 22/22/9 17/17/9 23/23/9
f 23/23/10 17/17/10 19/19/10
f 23/23/10 19/19/10 24/24/10
f 11/11/11 9/9/11 3/3/11
f 11/11/11 3/3/11 4/4/11
f 25/25/12 22/22/12 26/26/12
f 22/22/12 23/23/12 26/26/12
f 26/26/13 23/23/13 24/24/13
f 26/26/13 24/24/13 27/27/13
f 28/28/14 13/13/14 5/5/14
f 28/28/14 5/5/14 9/9/14
f 29/29/15 25/25/15 30/30/15
f 25/25/15 26/26/15 30/30/15
f 30/30/16 26/26/16 27/27/16
f 30/30/16 27/27/16 31/31/16
f 16/16/17 32/32/17 18/18/17
f 32/32/17 33/33/17 18/18/17
f 18/18/18 33/33/18 20/20/18
f 33/33/18 34/34/18 20/20/18
f 35/35/19 10/10/19 36/36/19
f 10/10/19 12/12/19 36/36/19
f 22/22/20 25/25/20 37/37/20
f 25/25/20 38/38/20 37/37/20
f 39/39/21 40/40/21 41/41/21
f 40/40/21 42/42/21 41/41/21
f 43/43/22 44/44/22 45/45/22
f 44/44/22 38/38/22 45/45/22
f 44/44/23 46/46/23 38/38/23
f 46/46/23 37/37/23 38/38/23
f 46/46/24 47/47/24 48/48/24
f 46/46/24 48/48/24 37/37/24
f 47/47/25 39/39/25 48/48/25
f 39/39/25 41/41/25 48/48/25
f 15/15/26 22/22/26 37/37/26
f 15/15/26 37/37/26 48/48/26
f 32/32/27 16/16/27 41/41/27
f 32/32/27 41/41/27 42/42/27
f 16/16/28 15/15/28 41/41/28
f 15/15/28 48/48/28 41/41/28
f 25/25/29 29/29/29 45/45/29
f 25/25/29 45/45/29 38/38/29
f 49/49/30 1/1/30 3/3/30
f 49/49/30 3/3/30 8/8/30
f 50/50/8 49/49/8 8/8/8
f 50/50/8 8/8/8 7/7/8
f 21/21/31 51/51/31 12/12/31
f 51/51/31 36/36/31 12/12/31
f 52/52/32 53/53/32 11/11/32
f 52/52/32 11/11/32 10/10/32
f 14/14/33 13/13/33 54/54/33
f 13/13/33 55/55/33 54/54/33
f 31/31/34 27/27/34 49/49/34
f 31/31/34 49/49/34 50/50/34
f 52/52/35 56/56/35 57/57/35
f 56/56/35 58/58/35 57/57/35
f 20/20/36 34/34/36 51/51/36
f 20/20/36 51/51/36 21/21/36
f 13/13/37 28/28/37 55/55/37
f 28/28/37 59/59/37 55/55/37
f 27/27/38 24/24/38 1/1/38
f 27/27/38 1/1/38 49/49/38
f 28/28/39 53/53/39 60/60/39
f 28/28/39 60/60/39 59/59/39
f 24/24/40 19/19/40 2/2/40
f 24/24/40 2/2/40 1/1/40
f 53/53/41 52/52/41 57/57/41
f 53/53/41 57/57/41 60/60/41
f 19/19/42 20/20/42 2/2/42
f 20/20/42 21/21/42 2/2/42
f 56/56/43 52/52/43 10/10/43
f 56/56/43 10/10/43 35/35/43
f 53/53/44 28/28/44 9/9/44
f 53/53/44 9/9/44 11/11/44
s off
