# Apple ModelIO OBJ File: Window_big
mtllib Window_big.mtl
g Window_Big
v -6.565 9.43768 -1.95004
v -6.565 8.06767 -1.95004
v -6.565 8.06767 -1.85004
v -6.565 9.43768 -1.85004
v -6.5 8.00268 -2
v -6.5 9.50268 -2
v -6.5 9.50268 -1.85004
v -6.5 8.00268 -1.85004
v -7.935 9.43768 -1.95004
v -7.935 9.43768 -1.85004
v -8 8.00268 -2
v -8 8.00268 -1.85004
v -8 9.50268 -2
v -8 9.50268 -1.85004
v -7.935 8.06767 -1.85004
v -7.935 8.06767 -1.95004
v -6.67224 8.661 -1.91639
v -6.67224 8.84435 -1.91639
v -6.67224 8.84435 -1.98368
v -6.67224 8.661 -1.98368
v -6.58776 8.661 -1.98368
v -6.58776 8.84435 -1.98368
v -6.58776 8.84435 -1.91639
v -6.58776 8.661 -1.91639
v -6.64953 8.5761 -1.8237
v -6.64953 8.5761 -1.86192
v -6.61131 8.5761 -1.86192
v -6.61131 8.5761 -1.8237
v -6.60384 8.77926 -1.84531
v -6.657 8.77926 -1.84531
v -6.657 8.75018 -1.81623
v -6.60384 8.75018 -1.81623
v -6.60384 8.71096 -1.86939
v -6.657 8.71096 -1.86939
v -6.657 8.7261 -1.8847
v -6.60384 8.7261 -1.8847
v -6.60384 8.77926 -1.91939
v -6.657 8.77926 -1.91939
v -6.60384 8.7261 -1.91939
v -6.657 8.7261 -1.91939
v -6.68917 8.19184 -1.95004
v -6.68917 9.31351 -1.95004
v -6.68917 9.31351 -1.99521
v -6.68917 8.19184 -1.99521
v -7.81083 8.19184 -1.95004
v -7.81083 9.31351 -1.95004
v -7.81083 9.31351 -1.99521
v -7.81083 8.19184 -1.99521
v -7.28022 8.14869 -1.96499
v -7.28022 9.35666 -1.96499
v -7.28022 9.35666 -1.99674
v -7.28022 8.14869 -1.99674
v -7.21978 8.14869 -1.99674
v -7.21978 9.35666 -1.99674
v -7.21978 9.35666 -1.96499
v -7.21978 8.14869 -1.96499
vn -1 -0 -0
vn 1 -0 -0
vn -0 -1 -0
vn -0 1 -0
vn -0 -0 1
vn -0 0.7071 0.7071
vn -0 -0.7112 -0.703
vn -0 -0.0429 0.9991
vn 0.9986 -0.0483 0.0207
vn -0.9986 -0.0483 0.0207
vn -0 -0.0553 -0.9985
vt 0.514946 0.533808
vt 0.732535 0.747188
vt 0.71696 0.763071
vt 0.499371 0.549691
vt 0.714863 0.724854
vt 0.476627 0.491227
vt 0.499984 0.46741
vt 0.738219 0.701036
vt 0.297356 0.320428
vt 0.281781 0.336311
vt 0.953098 0.95848
vt 0.976454 0.934663
vt 0.238392 0.257601
vt 0.261749 0.233784
vt 0.384901 0.32117
vt 0.689656 0.32117
vt 0.704115 0.335628
vt 0.370443 0.335628
vt 0.689656 0.016414
vt 0.384901 0.016414
vt 0.370443 0.001956
vt 0.704115 0.001956
vt 0.950125 0.960568
vt 0.93455 0.976451
vt 0.079767 0.107048
vt 0.064192 0.122931
vt 0.023514 0.000157
vt 0.000157 0.023975
vt 0.078026 0.034319
vt 0.118813 0.034319
vt 0.118813 0.049288
vt 0.078026 0.049288
vt 0.078026 0.000558
vt 0.118813 0.000558
vt 0.118813 0.015528
vt 0.078026 0.015528
vt 0.063057 0.034319
vt 0.063057 0.015528
vt 0.133782 0.015528
vt 0.133782 0.034319
vt 0.000887 0.009388
vt 0.000887 0.000887
vt 0.009388 0.000887
vt 0.009388 0.009388
vt 0.139627 0.080003
vt 0.132517 0.079448
vt 0.132666 0.074168
vt 0.139471 0.074554
vt 0.152758 0.073422
vt 0.166162 0.071471
vt 0.167006 0.076472
vt 0.153004 0.079117
vt 0.119561 0.078472
vt 0.119578 0.07293
vt 0.142744 0.093128
vt 0.129018 0.093882
vt 0.132166 0.038188
vt 0.142206 0.038823
vt 0.151139 0.039016
vt 0.155515 0.0883
vt 0.122265 0.037976
vt 0.115333 0.087401
vt 0.168988 0.085262
vt 0.160019 0.037976
vt 0.978059 0.75033
vt 0.978059 0.500818
vt 0.988108 0.500818
vt 0.988108 0.75033
vt 0.277495 0.389427
vt 0.027982 0.389428
vt 0.00036 0.361806
vt 0.305116 0.361806
vt 0.277495 0.63894
vt 0.305116 0.666562
vt 0.027982 0.63894
vt 0.00036 0.666562
vt 0.638397 0.269911
vt 0.388885 0.269911
vt 0.388885 0.020398
vt 0.638397 0.020398
vt 0.978059 0.999843
vt 0.988107 0.999843
vt 0.978059 0.251305
vt 0.988108 0.251305
vt 0.978059 0.001792
vt 0.988108 0.001792
vt 0.007658 0.055183
vt 0.007658 0.323893
vt 0.000594 0.323893
vt 0.000594 0.055183
vt 0.028165 0.055183
vt 0.028165 0.323893
vt 0.021101 0.323893
vt 0.021101 0.055183
usemtl 
f 1/1/1 2/2/1 3/3/1
f 1/1/1 3/3/1 4/4/1
f 5/5/2 6/6/2 7/7/2
f 5/5/2 7/7/2 8/8/2
f 9/9/3 1/1/3 4/4/3
f 9/9/3 4/4/3 10/10/3
f 11/11/3 5/5/3 8/8/3
f 11/11/3 8/8/3 12/12/3
f 6/6/4 13/13/4 14/14/4
f 6/6/4 14/14/4 7/7/4
f 15/15/5 10/16/5 14/17/5
f 15/15/5 14/17/5 12/18/5
f 4/19/5 3/20/5 8/21/5
f 4/19/5 8/21/5 7/22/5
f 3/20/5 15/15/5 12/18/5
f 3/20/5 12/18/5 8/21/5
f 10/16/5 4/19/5 7/22/5
f 10/16/5 7/22/5 14/17/5
f 2/2/4 16/23/4 15/24/4
f 2/2/4 15/24/4 3/3/4
f 16/25/2 9/9/2 10/10/2
f 16/25/2 10/10/2 15/26/2
f 12/27/1 14/14/1 13/13/1
f 12/27/1 13/13/1 11/28/1
f 17/29/1 18/30/1 19/31/1
f 17/29/1 19/31/1 20/32/1
f 21/33/2 22/34/2 23/35/2
f 21/33/2 23/35/2 24/36/2
f 24/36/5 23/35/5 18/30/5
f 24/36/5 18/30/5 17/29/5
f 20/37/3 21/38/3 24/36/3
f 20/37/3 24/36/3 17/29/3
f 22/39/4 19/40/4 18/30/4
f 22/39/4 18/30/4 23/35/4
f 25/41/3 26/42/3 27/43/3
f 25/41/3 27/43/3 28/44/3
f 29/45/6 30/46/6 31/47/6
f 29/45/6 31/47/6 32/48/6
f 33/49/7 34/50/7 35/51/7
f 33/49/7 35/51/7 36/52/7
f 30/46/1 35/53/1 34/54/1
f 30/46/1 34/54/1 31/47/1
f 32/48/2 33/49/2 29/45/2
f 33/49/2 36/52/2 29/45/2
f 30/46/4 29/45/4 37/55/4
f 30/46/4 37/55/4 38/56/4
f 32/48/8 31/47/8 25/57/8
f 32/48/8 25/57/8 28/58/8
f 33/49/9 32/48/9 27/59/9
f 32/48/9 28/58/9 27/59/9
f 29/45/2 36/52/2 39/60/2
f 29/45/2 39/60/2 37/55/2
f 31/47/10 34/54/10 26/61/10
f 31/47/10 26/61/10 25/57/10
f 35/53/1 30/46/1 38/56/1
f 35/53/1 38/56/1 40/62/1
f 36/52/3 35/51/3 40/63/3
f 36/52/3 40/63/3 39/60/3
f 34/50/11 33/49/11 27/59/11
f 34/50/11 27/59/11 26/64/11
f 41/65/1 42/66/1 43/67/1
f 41/65/1 43/67/1 44/68/1
f 45/69/5 46/70/5 9/71/5
f 45/69/5 9/71/5 16/72/5
f 41/73/5 45/69/5 16/72/5
f 41/73/5 16/72/5 2/74/5
f 46/70/5 42/75/5 1/76/5
f 46/70/5 1/76/5 9/71/5
f 42/75/5 41/73/5 2/74/5
f 42/75/5 2/74/5 1/76/5
f 47/77/5 48/78/5 44/79/5
f 47/77/5 44/79/5 43/80/5
f 45/81/4 41/65/4 44/68/4
f 45/81/4 44/68/4 48/82/4
f 42/66/3 46/83/3 47/84/3
f 42/66/3 47/84/3 43/67/3
f 46/83/2 45/85/2 48/86/2
f 46/83/2 48/86/2 47/84/2
f 49/87/1 50/88/1 51/89/1
f 49/87/1 51/89/1 52/90/1
f 53/91/2 54/92/2 55/93/2
f 53/91/2 55/93/2 56/94/2
f 56/94/5 55/93/5 50/88/5
f 56/94/5 50/88/5 49/87/5
s off
