# Apple ModelIO OBJ File: Wood_beam_big
mtllib Wood_beam_big.mtl
g Cube
v -9.92875 9.86 -0.316624
v -10.0559 9.12 -0.303898
v -10.0704 9.12 -0.275616
v -9.95146 9.86 -0.286146
v -10.1024 9.12 -0.295858
v -9.97582 9.86 -0.310258
v -9.79414 9.86 -0.306767
v -9.8573 9.12 -0.293816
v -9.8291 9.86 -0.285226
v -9.89055 9.12 -0.275078
v -9.83979 9.86 -0.316624
v -9.90285 9.12 -0.303898
v -10.0011 8.38 -0.23027
v -10.0211 8.38 -0.208298
v -10.0486 8.38 -0.225991
v -9.90496 8.38 -0.224031
v -9.93411 8.38 -0.207781
v -9.95192 8.38 -0.23027
v -10.0153 7.64 -0.312737
v -10.0313 7.64 -0.285001
v -10.0619 7.64 -0.304951
v -9.85126 7.64 -0.305111
v -9.88319 7.64 -0.285043
v -9.89779 7.64 -0.312737
v -10.0594 6.9 -0.25
v -10.0727 6.9 -0.223849
v -10.1061 6.9 -0.242526
v -9.89389 6.9 -0.242805
v -9.92335 6.9 -0.223922
v -9.94057 6.9 -0.25
v -9.8398 9.86 0.183376
v -9.90287 9.12 0.196102
v -9.82885 9.86 0.160169
v -9.89044 9.12 0.16979
v -9.79316 9.86 0.17581
v -9.85689 9.12 0.18676
v -10.0129 9.86 0.177406
v -10.1521 9.12 0.18443
v -9.98476 9.86 0.16059
v -10.1162 9.12 0.169176
v -9.9657 9.86 0.183376
v -10.1072 9.12 0.196102
v -9.95194 8.38 0.26973
v -9.93429 8.38 0.238332
v -9.90561 8.38 0.26127
v -10.1169 8.38 0.260874
v -10.0834 8.38 0.238228
v -10.0707 8.38 0.26973
v -9.87038 7.64 0.187263
v -9.85862 7.64 0.160559
v -9.82426 7.64 0.178252
v -10.0054 7.64 0.182056
v -9.97999 7.64 0.161562
v -9.958 7.64 0.187263
v -9.94059 6.9 0.25
v -9.92338 6.9 0.222155
v -9.89397 6.9 0.242359
v -10.1059 6.9 0.242082
v -10.0727 6.9 0.222082
v -10.0593 6.9 0.25
v -9.94059 10.6 0.25
v -9.92338 10.6 0.222155
v -9.89397 10.6 0.242358
v -10.106 10.6 0.242076
v -10.0727 10.6 0.222081
v -10.0593 10.6 0.25
v -10.0594 10.6 -0.25
v -10.0727 10.6 -0.223846
v -10.1061 10.6 -0.242515
v -9.89389 10.6 -0.242803
v -9.92336 10.6 -0.223922
v -9.94057 10.6 -0.25
v -10.1627 9.86 0.019805
v -10.2438 9.12 0.005497
v -10.1386 9.86 0.036149
v -10.2164 9.12 0.021944
v -10.2364 9.12 0.052185
v -10.1549 9.86 0.066369
v -10.1573 9.86 -0.136992
v -10.2385 9.12 -0.100593
v -10.2169 9.12 -0.073637
v -10.1393 9.86 -0.105045
v -10.1627 9.86 -0.089819
v -10.2438 9.12 -0.053398
v -10.2613 8.38 0.133176
v -10.2303 8.38 0.138056
v -10.2476 8.38 0.176669
v -10.2521 8.38 -0.110095
v -10.2314 8.38 -0.080944
v -10.2613 8.38 -0.064159
v -10.2027 7.64 0.038326
v -10.1762 7.64 0.049846
v -10.1927 7.64 0.083956
v -10.195 7.64 -0.177508
v -10.1768 7.64 -0.144655
v -10.2027 7.64 -0.130993
v -10.25 6.9 0.059398
v -10.2209 6.9 0.073796
v -10.242 6.9 0.105838
v -10.2421 6.9 -0.105894
v -10.221 6.9 -0.075473
v -10.25 6.9 -0.059445
v -9.66273 9.86 -0.148146
v -9.74381 9.12 -0.14205
v -9.77087 9.12 -0.153073
v -9.69347 9.86 -0.157088
v -9.67324 9.86 -0.193543
v -9.75345 9.12 -0.187856
v -9.66867 9.86 -0.013699
v -9.74939 9.12 0.005994
v -9.69227 9.86 -0.036314
v -9.7698 9.12 -0.020007
v -9.74381 9.12 -0.041309
v -9.66273 9.86 -0.060923
v -9.76135 8.38 -0.047727
v -9.78575 8.38 -0.066398
v -9.76841 8.38 -0.094513
v -9.76848 8.38 0.12116
v -9.78577 8.38 0.085963
v -9.76135 8.38 0.074295
v -9.70272 7.64 -0.146239
v -9.73136 7.64 -0.158203
v -9.7124 7.64 -0.192028
v -9.71013 7.64 0.033784
v -9.73076 7.64 0.003982
v -9.70272 7.64 -0.012974
v -9.75 6.9 -0.059399
v -9.77493 6.9 -0.075533
v -9.75707 6.9 -0.106167
v -9.75723 6.9 0.106188
v -9.77497 6.9 0.073883
v -9.75 6.9 0.059378
v -9.75 10.6 -0.059395
v -9.77493 10.6 -0.075536
v -9.75708 10.6 -0.106182
v -9.75724 10.6 0.106222
v -9.77497 10.6 0.073886
v -9.75 10.6 0.059353
v -10.25 10.6 0.059404
v -10.2209 10.6 0.073808
v -10.242 10.6 0.105877
v -10.2421 10.6 -0.105905
v -10.221 10.6 -0.075475
v -10.25 10.6 -0.059444
v -9.75933 7.64 -0.257912
v -9.80016 6.9 -0.198377
v -10.1935 6.9 -0.198377
v -10.1527 7.64 -0.257912
v -10.1167 9.86 -0.255154
v -10.1935 10.6 -0.198377
v -9.72336 9.86 -0.255154
v -9.80016 10.6 -0.198377
v -10.1935 6.9 0.194991
v -10.1527 7.64 0.135457
v -9.80016 6.9 0.194991
v -9.75933 7.64 0.135457
v -9.72336 9.86 0.138214
v -9.80016 10.6 0.194991
v -10.1935 10.6 0.194991
v -10.1167 9.86 0.138214
v -9.8104 8.38 0.207606
v -10.2038 8.38 0.207606
v -9.79708 9.12 0.145318
v -10.1905 9.12 0.145318
v -10.2038 8.38 -0.185763
v -9.8104 8.38 -0.185763
v -10.1905 9.12 -0.24805
v -9.79708 9.12 -0.24805
vn -0.8376 0.1309 -0.5303
vn 0.6142 -0.115 -0.7807
vn -0.5083 0.0294 -0.8607
vn 0.931 -0.0838 -0.3553
vn -0.8192 -0.1112 -0.5626
vn 0.537 -0.0407 -0.8426
vn -0.4885 -0.0506 -0.8711
vn 0.858 -0.1016 -0.5035
vn -0.8073 0.0763 -0.5852
vn 0.5422 0.0794 -0.8365
vn -0.5103 0.0557 -0.8582
vn 0.8342 0.1174 -0.5388
vn -0.878 0.0107 -0.4785
vn 0.5147 -0.1008 -0.8514
vn -0.5353 -0.0404 -0.8437
vn 0.8571 -0.0905 -0.5071
vn 0.9021 -0.0696 0.4259
vn -0.4256 0.0486 0.9036
vn 0.4462 -0.0722 0.892
vn -0.8593 0.1654 0.484
vn 0.8867 -0.0113 0.4621
vn -0.5363 0.1144 0.8362
vn 0.4763 0.1076 0.8727
vn -0.9375 -0.0103 0.3478
vn 0.8913 0.0458 0.4511
vn -0.5359 -0.1472 0.8313
vn 0.5909 0.0011 0.8068
vn -0.8413 -0.1777 0.5105
vn 0.8824 -0.0411 0.4686
vn -0.5073 0.1186 0.8536
vn 0.5681 -0.0071 0.8229
vn -0.8251 0.1535 0.5438
vn 0.8733 0.0734 0.4817
vn -0.4777 -0.1384 0.8676
vn 0.514 -0.0103 0.8577
vn -0.8333 -0.1483 0.5325
vn -0.8395 -0.0963 -0.5348
vn 0.5868 0.1693 -0.7918
vn -0.5314 0.002 -0.8471
vn 0.8888 0.1544 -0.4315
vn -0.5363 0.0413 0.843
vn -0.8529 0.1015 -0.5121
vn -0.8242 0.1139 0.5548
vn -0.5757 0.0243 -0.8173
vn -0.3379 0.16 0.9275
vn -0.8771 -0.0625 -0.4762
vn -0.7987 0.0084 0.6017
vn -0.546 0.0221 -0.8375
vn -0.271 -0.1385 0.9526
vn -0.9061 -0.0151 -0.4228
vn -0.8416 -0.1104 0.5288
vn -0.4783 0.0408 -0.8773
vn -0.4217 0.0538 0.9051
vn -0.8687 0.0399 -0.4937
vn -0.8443 0.1021 0.5261
vn -0.4745 -0.0542 -0.8786
vn 0.3262 -0.0414 -0.9444
vn 0.8805 -0.0907 0.4653
vn 0.738 -0.0952 -0.668
vn 0.6364 -0.0495 0.7698
vn 0.4964 -0.1161 -0.8603
vn 0.8745 0.0412 0.4833
vn 0.8473 -0.0981 -0.522
vn 0.5439 0.1122 0.8316
vn 0.4946 0.1479 -0.8564
vn 0.8628 -0.0003 0.5056
vn 0.8572 0.1229 -0.5001
vn 0.478 -0.0635 0.8761
vn 0.4606 -0.1289 -0.8782
vn 0.8684 0.0047 0.4959
vn 0.8463 -0.1025 -0.5227
vn 0.5097 0.051 0.8588
vn 0.4061 0.15 -0.9014
vn 0.869 0.0408 0.4931
vn 0.7858 0.1828 -0.5909
vn 0.5822 -0.0594 0.8108
vn -0.4981 -0.102 0.8611
vn -0.8555 -0.0711 -0.5129
vn -0.8408 -0.1163 0.5287
vn -0.5115 -0.0236 -0.8589
vn 0.4404 -0.0983 -0.8924
vn -0 -0.0845 -0.9964
vn -0.4549 -0.0472 -0.8893
vn -0.3985 0.0214 -0.9169
vn -0 0.0897 -0.996
vn 0.4999 0.1295 -0.8563
vn -0.3682 0.1098 0.9232
vn -0 0.0845 0.9964
vn 0.4936 0.0357 0.869
vn 0.4608 -0.0186 0.8873
vn -0 -0.0897 0.996
vn -0.408 -0.1211 0.9049
vn 0.5155 -0.0436 0.8558
vn -0 -0.1108 0.9938
vn -0.3887 -0.1357 0.9113
vn 0.5221 0.0568 0.851
vn -0 0.099 0.9951
vn -0.5924 0.0665 0.8029
vn 0.5203 -0.0379 0.8532
vn -0 0.0172 0.9999
vn -0.481 0.0775 0.8733
vn -0.3331 0.0873 -0.9388
vn -0 0.1108 -0.9938
vn 0.4135 0.1227 -0.9022
vn -0.3389 -0.0929 -0.9362
vn -0 -0.099 -0.9951
vn 0.4749 -0.0976 -0.8746
vn -0.4096 0.0422 -0.9113
vn -0 -0.0172 -0.9999
vn 0.5953 -0.0659 -0.8008
vn -0.885 0.0113 -0.4655
vn -0.998 0.0638 -0
vn -0.8438 0.0806 0.5307
vn -0.8733 -0.1273 0.4702
vn -0.9931 -0.1171 -0
vn -0.9181 -0.0772 -0.3888
vn 0.9001 -0.0147 0.4354
vn 0.998 -0.0638 -0
vn 0.8648 -0.0983 -0.4924
vn 0.8466 0.1418 -0.513
vn 0.9931 0.1171 -0
vn 0.9251 0.0586 0.3752
vn 0.8642 0.1186 -0.489
vn 0.9969 0.079 -0
vn 0.8998 0.0195 0.4358
vn 0.8685 -0.0682 -0.491
vn 0.9997 -0.0237 -0
vn 0.9292 0.0239 0.3688
vn 0.7894 -0.0874 -0.6076
vn 0.9941 -0.1089 -0
vn 0.9394 -0.0921 0.3302
vn -0.6951 -0.1286 0.7073
vn -0.9969 -0.079 -0
vn -0.8645 -0.0158 -0.5024
vn -0.8071 0.0871 0.584
vn -0.9997 0.0237 -0
vn -0.918 0.0026 -0.3967
vn -0.8872 0.0908 0.4523
vn -0.9941 0.1089 -0
vn -0.9447 0.0896 -0.3153
vt 0.065961 0.791645
vt 0.085227 0.597352
vt 0.093358 0.596812
vt 0.076108 0.791943
vt 0.103276 0.596709
vt 0.085029 0.791688
vt 0.022974 0.791961
vt 0.028952 0.598938
vt 0.033767 0.792092
vt 0.038644 0.59845
vt 0.04239 0.791645
vt 0.04688 0.598934
vt 0.069588 0.40042
vt 0.077288 0.400405
vt 0.085705 0.400358
vt 0.039983 0.400501
vt 0.048626 0.400538
vt 0.056104 0.400499
vt 0.075542 0.200598
vt 0.083884 0.200865
vt 0.09345 0.200918
vt 0.027358 0.200685
vt 0.037192 0.200722
vt 0.045349 0.200606
vt 0.085259 0.006096
vt 0.092673 0.005698
vt 0.103005 0.006079
vt 0.036648 0.00628
vt 0.045393 0.005873
vt 0.053183 0.0065
vt 0.334893 0.794421
vt 0.332461 0.592534
vt 0.341888 0.794256
vt 0.340074 0.592898
vt 0.352328 0.794411
vt 0.350318 0.592975
vt 0.282695 0.794835
vt 0.26025 0.590005
vt 0.291648 0.794551
vt 0.270295 0.590648
vt 0.299862 0.794621
vt 0.277725 0.590268
vt 0.32108 0.399997
vt 0.33021 0.399852
vt 0.339904 0.399758
vt 0.273668 0.400017
vt 0.283806 0.399986
vt 0.292382 0.400399
vt 0.334472 0.201943
vt 0.342155 0.20189
vt 0.352788 0.201982
vt 0.292471 0.201805
vt 0.301024 0.201723
vt 0.309994 0.201801
vt 0.323257 0.001649
vt 0.331893 0.002195
vt 0.341652 0.001913
vt 0.27471 0.000476
vt 0.284842 0.001181
vt 0.293453 0.000312
vt 0.323907 0.995449
vt 0.332634 0.994655
vt 0.342176 0.994556
vt 0.275513 0.998825
vt 0.285762 0.997652
vt 0.29383 0.998112
vt 0.087555 0.989613
vt 0.095153 0.990001
vt 0.105524 0.990054
vt 0.040095 0.98759
vt 0.048903 0.988233
vt 0.056766 0.987639
vt 0.210386 0.794376
vt 0.200814 0.590698
vt 0.218387 0.79441
vt 0.209352 0.591039
vt 0.218501 0.590361
vt 0.227887 0.794593
vt 0.161499 0.793328
vt 0.167782 0.592163
vt 0.176703 0.592163
vt 0.171456 0.793536
vt 0.179014 0.793721
vt 0.185399 0.591404
vt 0.217142 0.400533
vt 0.225041 0.400476
vt 0.235717 0.400662
vt 0.152203 0.40067
vt 0.16169 0.400353
vt 0.170632 0.400287
vt 0.211136 0.201813
vt 0.218784 0.201688
vt 0.228848 0.201829
vt 0.144801 0.201596
vt 0.154991 0.201626
vt 0.162787 0.201747
vt 0.204709 0.001676
vt 0.213102 0.001787
vt 0.223067 0.000884
vt 0.155784 0.003413
vt 0.165783 0.003535
vt 0.17454 0.00316
vt 0.456226 0.792305
vt 0.454567 0.59589
vt 0.462169 0.59529
vt 0.46459 0.792426
vt 0.47541 0.792196
vt 0.472131 0.595691
vt 0.415195 0.793112
vt 0.410296 0.59529
vt 0.423757 0.793056
vt 0.418864 0.595007
vt 0.427652 0.595375
vt 0.433699 0.792957
vt 0.440331 0.399521
vt 0.448268 0.399733
vt 0.456793 0.399634
vt 0.391235 0.399201
vt 0.401572 0.399382
vt 0.408674 0.399156
vt 0.457209 0.201843
vt 0.465318 0.201925
vt 0.475451 0.201906
vt 0.40429 0.201854
vt 0.41392 0.201908
vt 0.422611 0.201888
vt 0.443317 0.007104
vt 0.450742 0.006637
vt 0.459617 0.007077
vt 0.394443 0.005303
vt 0.40441 0.00535
vt 0.411875 0.00572
vt 0.444824 0.98697
vt 0.452119 0.987667
vt 0.460844 0.986931
vt 0.395772 0.98913
vt 0.405866 0.989288
vt 0.41306 0.988736
vt 0.205715 0.998637
vt 0.214193 0.998158
vt 0.224118 0.999427
vt 0.157498 0.995433
vt 0.167156 0.995336
vt 0.175777 0.99654
vt 7.1e-05 0.200878
vt 0.008647 0.005411
vt 0.128851 0.004965
vt 0.120446 0.201315
vt 0.126444 0.792211
vt 0.13089 0.992653
vt 7e-05 0.79257
vt 0.012436 0.987646
vt 0.249135 7e-05
vt 0.247218 0.201991
vt 0.368516 0.003573
vt 0.374019 0.201934
vt 0.373402 0.794112
vt 0.369488 0.991595
vt 0.250065 0.99993
vt 0.251107 0.794783
vt 0.366724 0.399337
vt 0.249123 0.400455
vt 0.369957 0.593996
vt 0.24586 0.589924
vt 0.128696 0.400708
vt 0.0122 0.400517
vt 0.128737 0.594744
vt 0.009085 0.598626
vt 0.486955 0.007037
vt 0.496789 0.20204
vt 0.496071 0.791842
vt 0.488544 0.987298
vt 0.483446 0.400046
vt 0.491823 0.595132
usemtl 
f 1/1/1 2/2/1 3/3/1
f 1/1/1 3/3/1 4/4/1
f 4/4/2 3/3/2 5/5/2
f 4/4/2 5/5/2 6/6/2
f 7/7/3 8/8/3 9/9/3
f 8/8/3 10/10/3 9/9/3
f 9/9/4 10/10/4 11/11/4
f 10/10/4 12/12/4 11/11/4
f 2/2/5 13/13/5 14/14/5
f 2/2/5 14/14/5 3/3/5
f 3/3/6 14/14/6 15/15/6
f 3/3/6 15/15/6 5/5/6
f 8/8/7 16/16/7 17/17/7
f 8/8/7 17/17/7 10/10/7
f 10/10/8 17/17/8 12/12/8
f 17/17/8 18/18/8 12/12/8
f 13/13/9 19/19/9 14/14/9
f 19/19/9 20/20/9 14/14/9
f 14/14/10 20/20/10 21/21/10
f 14/14/10 21/21/10 15/15/10
f 16/16/11 22/22/11 17/17/11
f 22/22/11 23/23/11 17/17/11
f 17/17/12 23/23/12 24/24/12
f 17/17/12 24/24/12 18/18/12
f 19/19/13 25/25/13 26/26/13
f 19/19/13 26/26/13 20/20/13
f 20/20/14 26/26/14 27/27/14
f 20/20/14 27/27/14 21/21/14
f 22/22/15 28/28/15 23/23/15
f 28/28/15 29/29/15 23/23/15
f 23/23/16 29/29/16 24/24/16
f 29/29/16 30/30/16 24/24/16
f 31/31/17 32/32/17 33/33/17
f 32/32/17 34/34/17 33/33/17
f 33/33/18 34/34/18 35/35/18
f 34/34/18 36/36/18 35/35/18
f 37/37/19 38/38/19 39/39/19
f 38/38/19 40/40/19 39/39/19
f 39/39/20 40/40/20 41/41/20
f 40/40/20 42/42/20 41/41/20
f 32/32/21 43/43/21 34/34/21
f 43/43/21 44/44/21 34/34/21
f 34/34/22 44/44/22 36/36/22
f 44/44/22 45/45/22 36/36/22
f 38/38/23 46/46/23 40/40/23
f 46/46/23 47/47/23 40/40/23
f 40/40/24 47/47/24 48/48/24
f 40/40/24 48/48/24 42/42/24
f 43/43/25 49/49/25 50/50/25
f 43/43/25 50/50/25 44/44/25
f 44/44/26 50/50/26 51/51/26
f 44/44/26 51/51/26 45/45/26
f 46/46/27 52/52/27 53/53/27
f 46/46/27 53/53/27 47/47/27
f 47/47/28 53/53/28 48/48/28
f 53/53/28 54/54/28 48/48/28
f 49/49/29 55/55/29 50/50/29
f 55/55/29 56/56/29 50/50/29
f 50/50/30 56/56/30 51/51/30
f 56/56/30 57/57/30 51/51/30
f 52/52/31 58/58/31 53/53/31
f 58/58/31 59/59/31 53/53/31
f 53/53/32 59/59/32 54/54/32
f 59/59/32 60/60/32 54/54/32
f 61/61/33 31/31/33 33/33/33
f 61/61/33 33/33/33 62/62/33
f 62/62/34 33/33/34 35/35/34
f 62/62/34 35/35/34 63/63/34
f 64/64/35 37/37/35 39/39/35
f 64/64/35 39/39/35 65/65/35
f 65/65/36 39/39/36 66/66/36
f 39/39/36 41/41/36 66/66/36
f 67/67/37 1/1/37 68/68/37
f 1/1/37 4/4/37 68/68/37
f 68/68/38 4/4/38 69/69/38
f 4/4/38 6/6/38 69/69/38
f 70/70/39 7/7/39 9/9/39
f 70/70/39 9/9/39 71/71/39
f 71/71/40 9/9/40 11/11/40
f 71/71/40 11/11/40 72/72/40
f 73/73/41 74/74/41 75/75/41
f 74/74/41 76/76/41 75/75/41
f 75/75/42 76/76/42 77/77/42
f 75/75/42 77/77/42 78/78/42
f 79/79/43 80/80/43 81/81/43
f 79/79/43 81/81/43 82/82/43
f 82/82/44 81/81/44 83/83/44
f 81/81/44 84/84/44 83/83/44
f 74/74/45 85/85/45 86/86/45
f 74/74/45 86/86/45 76/76/45
f 76/76/46 86/86/46 87/87/46
f 76/76/46 87/87/46 77/77/46
f 80/80/47 88/88/47 89/89/47
f 80/80/47 89/89/47 81/81/47
f 81/81/48 89/89/48 90/90/48
f 81/81/48 90/90/48 84/84/48
f 85/85/49 91/91/49 92/92/49
f 85/85/49 92/92/49 86/86/49
f 86/86/50 92/92/50 93/93/50
f 86/86/50 93/93/50 87/87/50
f 88/88/51 94/94/51 89/89/51
f 94/94/51 95/95/51 89/89/51
f 89/89/52 95/95/52 90/90/52
f 95/95/52 96/96/52 90/90/52
f 91/91/53 97/97/53 98/98/53
f 91/91/53 98/98/53 92/92/53
f 92/92/54 98/98/54 99/99/54
f 92/92/54 99/99/54 93/93/54
f 94/94/55 100/100/55 101/101/55
f 94/94/55 101/101/55 95/95/55
f 95/95/56 101/101/56 102/102/56
f 95/95/56 102/102/56 96/96/56
f 103/103/57 104/104/57 105/105/57
f 103/103/57 105/105/57 106/106/57
f 106/106/58 105/105/58 107/107/58
f 105/105/58 108/108/58 107/107/58
f 109/109/59 110/110/59 111/111/59
f 110/110/59 112/112/59 111/111/59
f 111/111/60 112/112/60 113/113/60
f 111/111/60 113/113/60 114/114/60
f 104/104/61 115/115/61 105/105/61
f 115/115/61 116/116/61 105/105/61
f 105/105/62 116/116/62 108/108/62
f 116/116/62 117/117/62 108/108/62
f 110/110/63 118/118/63 112/112/63
f 118/118/63 119/119/63 112/112/63
f 112/112/64 119/119/64 113/113/64
f 119/119/64 120/120/64 113/113/64
f 115/115/65 121/121/65 116/116/65
f 121/121/65 122/122/65 116/116/65
f 116/116/66 122/122/66 123/123/66
f 116/116/66 123/123/66 117/117/66
f 118/118/67 124/124/67 125/125/67
f 118/118/67 125/125/67 119/119/67
f 119/119/68 125/125/68 126/126/68
f 119/119/68 126/126/68 120/120/68
f 121/121/69 127/127/69 128/128/69
f 121/121/69 128/128/69 122/122/69
f 122/122/70 128/128/70 123/123/70
f 128/128/70 129/129/70 123/123/70
f 124/124/71 130/130/71 125/125/71
f 130/130/71 131/131/71 125/125/71
f 125/125/72 131/131/72 126/126/72
f 131/131/72 132/132/72 126/126/72
f 133/133/73 103/103/73 134/134/73
f 103/103/73 106/106/73 134/134/73
f 134/134/74 106/106/74 135/135/74
f 106/106/74 107/107/74 135/135/74
f 136/136/75 109/109/75 111/111/75
f 136/136/75 111/111/75 137/137/75
f 137/137/76 111/111/76 114/114/76
f 137/137/76 114/114/76 138/138/76
f 139/139/77 73/73/77 75/75/77
f 139/139/77 75/75/77 140/140/77
f 140/140/78 75/75/78 141/141/78
f 75/75/78 78/78/78 141/141/78
f 142/142/79 79/79/79 82/82/79
f 142/142/79 82/82/79 143/143/79
f 143/143/80 82/82/80 144/144/80
f 82/82/80 83/83/80 144/144/80
f 28/28/81 22/22/81 145/145/81
f 28/28/81 145/145/81 146/146/81
f 25/25/82 19/19/82 24/24/82
f 25/25/82 24/24/82 30/30/82
f 147/147/83 148/148/83 21/21/83
f 147/147/83 21/21/83 27/27/83
f 149/149/84 150/150/84 69/69/84
f 149/149/84 69/69/84 6/6/84
f 1/1/85 67/67/85 72/72/85
f 1/1/85 72/72/85 11/11/85
f 7/7/86 70/70/86 151/151/86
f 70/70/86 152/152/86 151/151/86
f 58/58/87 52/52/87 153/153/87
f 52/52/87 154/154/87 153/153/87
f 55/55/88 49/49/88 60/60/88
f 49/49/88 54/54/88 60/60/88
f 155/155/89 156/156/89 51/51/89
f 155/155/89 51/51/89 57/57/89
f 157/157/90 158/158/90 35/35/90
f 158/158/90 63/63/90 35/35/90
f 31/31/91 61/61/91 66/66/91
f 31/31/91 66/66/91 41/41/91
f 37/37/92 64/64/92 159/159/92
f 37/37/92 159/159/92 160/160/92
f 156/156/93 161/161/93 51/51/93
f 161/161/93 45/45/93 51/51/93
f 49/49/94 43/43/94 48/48/94
f 49/49/94 48/48/94 54/54/94
f 52/52/95 46/46/95 162/162/95
f 52/52/95 162/162/95 154/154/95
f 161/161/96 163/163/96 36/36/96
f 161/161/96 36/36/96 45/45/96
f 43/43/97 32/32/97 42/42/97
f 43/43/97 42/42/97 48/48/97
f 46/46/98 38/38/98 162/162/98
f 38/38/98 164/164/98 162/162/98
f 163/163/99 157/157/99 36/36/99
f 157/157/99 35/35/99 36/36/99
f 32/32/100 31/31/100 42/42/100
f 31/31/100 41/41/100 42/42/100
f 38/38/101 37/37/101 164/164/101
f 37/37/101 160/160/101 164/164/101
f 148/148/102 165/165/102 15/15/102
f 148/148/102 15/15/102 21/21/102
f 19/19/103 13/13/103 24/24/103
f 13/13/103 18/18/103 24/24/103
f 22/22/104 16/16/104 166/166/104
f 22/22/104 166/166/104 145/145/104
f 165/165/105 167/167/105 15/15/105
f 167/167/105 5/5/105 15/15/105
f 13/13/106 2/2/106 12/12/106
f 13/13/106 12/12/106 18/18/106
f 16/16/107 8/8/107 168/168/107
f 16/16/107 168/168/107 166/166/107
f 167/167/108 149/149/108 6/6/108
f 167/167/108 6/6/108 5/5/108
f 2/2/109 1/1/109 11/11/109
f 2/2/109 11/11/109 12/12/109
f 8/8/110 7/7/110 151/151/110
f 8/8/110 151/151/110 168/168/110
f 100/100/111 94/94/111 147/147/111
f 94/94/111 148/148/111 147/147/111
f 97/97/112 91/91/112 96/96/112
f 97/97/112 96/96/112 102/102/112
f 153/153/113 154/154/113 93/93/113
f 153/153/113 93/93/113 99/99/113
f 160/160/114 159/159/114 141/141/114
f 160/160/114 141/141/114 78/78/114
f 73/73/115 139/139/115 83/83/115
f 139/139/115 144/144/115 83/83/115
f 79/79/116 142/142/116 150/150/116
f 79/79/116 150/150/116 149/149/116
f 130/130/117 124/124/117 155/155/117
f 124/124/117 156/156/117 155/155/117
f 127/127/118 121/121/118 126/126/118
f 127/127/118 126/126/118 132/132/118
f 146/169/119 145/170/119 129/129/119
f 145/170/119 123/123/119 129/129/119
f 151/171/120 152/172/120 135/135/120
f 151/171/120 135/135/120 107/107/120
f 103/103/121 133/133/121 114/114/121
f 133/133/121 138/138/121 114/114/121
f 109/109/122 136/136/122 157/157/122
f 136/136/122 158/158/122 157/157/122
f 145/170/123 166/173/123 117/117/123
f 145/170/123 117/117/123 123/123/123
f 121/121/124 115/115/124 120/120/124
f 121/121/124 120/120/124 126/126/124
f 124/124/125 118/118/125 156/156/125
f 118/118/125 161/161/125 156/156/125
f 166/173/126 168/174/126 117/117/126
f 168/174/126 108/108/126 117/117/126
f 115/115/127 104/104/127 113/113/127
f 115/115/127 113/113/127 120/120/127
f 118/118/128 110/110/128 161/161/128
f 110/110/128 163/163/128 161/161/128
f 168/174/129 151/171/129 107/107/129
f 168/174/129 107/107/129 108/108/129
f 104/104/130 103/103/130 114/114/130
f 104/104/130 114/114/130 113/113/130
f 110/110/131 109/109/131 163/163/131
f 109/109/131 157/157/131 163/163/131
f 154/154/132 162/162/132 93/93/132
f 162/162/132 87/87/132 93/93/132
f 91/91/133 85/85/133 90/90/133
f 91/91/133 90/90/133 96/96/133
f 94/94/134 88/88/134 165/165/134
f 94/94/134 165/165/134 148/148/134
f 162/162/135 164/164/135 77/77/135
f 162/162/135 77/77/135 87/87/135
f 85/85/136 74/74/136 84/84/136
f 85/85/136 84/84/136 90/90/136
f 88/88/137 80/80/137 165/165/137
f 80/80/137 167/167/137 165/165/137
f 164/164/138 160/160/138 78/78/138
f 164/164/138 78/78/138 77/77/138
f 74/74/139 73/73/139 83/83/139
f 74/74/139 83/83/139 84/84/139
f 80/80/140 79/79/140 167/167/140
f 79/79/140 149/149/140 167/167/140
s off
