# Blender 5.0.1
# www.blender.org
mtllib Light switch.mtl
o Light_switch
v 15.718758 7.266335 1.471989
v 15.718758 7.404617 1.471989
v 15.807039 7.266335 1.471989
v 15.807039 7.404617 1.471989
v 15.687899 7.235476 1.396989
v 15.687899 7.435476 1.396989
v 15.837898 7.235476 1.396989
v 15.837898 7.435476 1.396989
v 15.687899 7.235476 1.471989
v 15.687899 7.435476 1.471989
v 15.837898 7.435476 1.471989
v 15.837898 7.235476 1.471989
v 15.718758 7.266335 1.455025
v 15.718758 7.404617 1.455025
v 15.807039 7.404617 1.455025
v 15.807039 7.266335 1.455025
v 15.747924 7.325733 1.421073
v 15.777875 7.325733 1.421073
v 15.747924 7.299110 1.447696
v 15.777875 7.299110 1.447696
v 15.747924 7.308855 1.484064
v 15.777875 7.308855 1.484064
v 15.747924 7.393854 1.533921
v 15.777875 7.393854 1.533921
v 15.747924 7.410892 1.516882
v 15.777875 7.410892 1.516882
v 15.747924 7.362101 1.430818
v 15.777875 7.362101 1.430818
vn 1.0000 -0.0000 -0.0000
vn -0.0000 1.0000 -0.0000
vn -0.0000 -1.0000 -0.0000
vn -1.0000 -0.0000 -0.0000
vn -0.0000 -0.0000 1.0000
vn -0.0000 -0.7071 -0.7071
vn -0.0000 -0.9659 0.2588
vn -0.0000 -0.5059 0.8626
vn -0.0000 0.7071 0.7071
vn -0.0000 0.8699 -0.4932
vn -0.0000 0.2588 -0.9659
vt 0.579601 0.137145
vt 0.579601 0.502865
vt 0.442456 0.502865
vt 0.442456 0.137145
vt 0.000000 0.828593
vt 0.000000 0.667160
vt 0.031021 0.667160
vt 0.031021 0.828593
vt 0.168166 0.000000
vt 0.442456 0.000000
vt 0.168166 0.137145
vt 0.442456 0.640010
vt 0.168166 0.640010
vt 0.168166 0.502865
vt 0.168166 0.137145
vt 0.031021 0.502865
vt 0.031021 0.137145
vt 0.224595 0.193573
vt 0.224595 0.446437
vt 0.386028 0.446437
vt 0.386028 0.193573
vt 0.224595 0.193573
vt 0.741035 0.458608
vt 0.741035 0.711472
vt 0.579601 0.711472
vt 0.579601 0.458608
vt 0.000000 0.252863
vt 0.000000 0.000000
vt 0.031021 0.000000
vt 0.031021 0.252863
vt 0.000000 0.414297
vt 0.031021 0.414297
vt 0.832945 0.236311
vt 0.792230 0.272946
vt 0.746179 0.221766
vt 0.786894 0.185132
vt 0.700128 0.170586
vt 0.740843 0.133952
vt 0.579601 0.036634
vt 0.620316 -0.000000
vt 0.031021 0.694780
vt 0.031021 0.640010
vt 0.075084 0.640010
vt 0.075084 0.694780
vt 0.770932 0.338417
vt 0.609074 0.419223
vt 0.579601 0.386468
vt 0.678831 0.236057
vt 1.000000 0.421974
vt 0.959285 0.458608
vt 0.838280 0.324126
vt 0.878995 0.287491
vt 0.808192 0.119661
vt 0.968208 0.036807
vt 0.997680 0.069562
vt 0.900293 0.222020
s 0
f 7/1/1 8/2/1 11/3/1 12/4/1
f 1/5/2 3/6/2 16/7/2 13/8/2
f 5/9/3 7/10/3 12/4/3 9/11/3
f 8/12/2 6/13/2 10/14/2 11/3/2
f 9/15/4 10/14/4 6/16/4 5/17/4
f 1/18/5 2/19/5 10/14/5 9/15/5
f 4/20/5 3/21/5 12/4/5 11/3/5
f 3/21/5 1/22/5 9/11/5 12/4/5
f 2/19/5 4/20/5 11/3/5 10/14/5
f 16/23/5 15/24/5 14/25/5 13/26/5
f 2/27/1 1/28/1 13/29/1 14/30/1
f 4/31/3 2/27/3 14/30/3 15/32/3
f 3/6/4 4/31/4 15/32/4 16/7/4
f 17/33/6 18/34/6 20/35/6 19/36/6
f 19/36/7 20/35/7 22/37/7 21/38/7
f 21/38/8 22/37/8 24/39/8 23/40/8
f 23/41/9 24/42/9 26/43/9 25/44/9
f 20/35/1 18/34/1 28/45/1 26/46/1 24/47/1 22/48/1
f 25/49/10 26/50/10 28/51/10 27/52/10
f 27/52/11 28/51/11 18/34/11 17/33/11
f 17/33/4 19/36/4 21/53/4 23/54/4 25/55/4 27/56/4
