# Blender 5.0.1
# www.blender.org
mtllib Shelf Big.mtl
o Cube.001
v 13.972899 6.997500 0.947441
v 13.972899 8.847500 0.947441
v 13.972899 6.997500 0.847441
v 13.972899 8.847500 0.847441
v 14.072900 6.997500 0.947441
v 14.072900 8.847500 0.947441
v 14.072900 6.997500 0.847441
v 14.072900 8.847500 0.847441
v 13.972899 6.997500 0.947441
v 13.972899 6.997500 0.847441
v 14.072900 6.997500 0.847441
v 14.072900 6.997500 0.947441
v 14.001099 7.460000 0.973663
v 13.966975 7.922500 0.963340
v 13.988332 8.385000 0.945764
v 13.988332 8.385000 0.845764
v 13.966975 7.922500 0.863340
v 14.001099 7.460000 0.873663
v 14.088332 8.385000 0.845764
v 14.066975 7.922500 0.863340
v 14.101099 7.460000 0.873663
v 14.088332 8.385000 0.945764
v 14.066975 7.922500 0.963340
v 14.101099 7.460000 0.973663
v 14.952899 6.997500 0.947441
v 14.952899 8.847500 0.947441
v 14.952899 6.997500 0.847441
v 14.952899 8.847500 0.847441
v 14.852899 6.997500 0.947441
v 14.852899 8.847500 0.947441
v 14.852899 6.997500 0.847441
v 14.852899 8.847500 0.847441
v 14.952899 6.997500 0.947441
v 14.952899 6.997500 0.847441
v 14.852899 6.997500 0.847441
v 14.852899 6.997500 0.947441
v 14.924700 7.460000 0.973663
v 14.958823 7.922500 0.963340
v 14.937467 8.385000 0.945764
v 14.937467 8.385000 0.845764
v 14.958823 7.922500 0.863340
v 14.924700 7.460000 0.873663
v 14.837466 8.385000 0.845764
v 14.858824 7.922500 0.863340
v 14.824699 7.460000 0.873663
v 14.837466 8.385000 0.945764
v 14.858824 7.922500 0.963340
v 14.824699 7.460000 0.973663
v 13.972899 6.997500 0.478095
v 13.972899 8.847500 0.478095
v 13.972899 6.997500 0.578095
v 13.972899 8.847500 0.578095
v 14.072900 6.997500 0.478095
v 14.072900 8.847500 0.478095
v 14.072900 6.997500 0.578095
v 14.072900 8.847500 0.578095
v 13.972899 6.997500 0.478095
v 13.972899 6.997500 0.578095
v 14.072900 6.997500 0.578095
v 14.072900 6.997500 0.478095
v 14.001099 7.460000 0.451873
v 13.966975 7.922500 0.462195
v 13.988332 8.385000 0.479771
v 13.988332 8.385000 0.579771
v 13.966975 7.922500 0.562195
v 14.001099 7.460000 0.551873
v 14.088332 8.385000 0.579771
v 14.066975 7.922500 0.562195
v 14.101099 7.460000 0.551873
v 14.088332 8.385000 0.479771
v 14.066975 7.922500 0.462195
v 14.101099 7.460000 0.451873
v 14.952899 6.997500 0.478095
v 14.952899 8.847500 0.478095
v 14.952899 6.997500 0.578095
v 14.952899 8.847500 0.578095
v 14.852899 6.997500 0.478095
v 14.852899 8.847500 0.478095
v 14.852899 6.997500 0.578095
v 14.852899 8.847500 0.578095
v 14.952899 6.997500 0.478095
v 14.952899 6.997500 0.578095
v 14.852899 6.997500 0.578095
v 14.852899 6.997500 0.478095
v 14.924700 7.460000 0.451873
v 14.958823 7.922500 0.462195
v 14.937467 8.385000 0.479771
v 14.937467 8.385000 0.579771
v 14.958823 7.922500 0.562195
v 14.924700 7.460000 0.551873
v 14.837466 8.385000 0.579771
v 14.858824 7.922500 0.562195
v 14.824699 7.460000 0.551873
v 14.837466 8.385000 0.479771
v 14.858824 7.922500 0.462195
v 14.824699 7.460000 0.451873
v 14.012916 7.102500 0.912732
v 14.012916 7.152500 0.912732
v 14.012916 7.102500 0.512803
v 14.012916 7.152500 0.512803
v 14.912883 7.102500 0.912732
v 14.912883 7.152500 0.912732
v 14.912883 7.102500 0.512803
v 14.912883 7.152500 0.512803
v 14.027337 7.612999 0.932635
v 14.029054 7.662959 0.933688
v 14.013631 7.621892 0.533040
v 14.015347 7.671852 0.534093
v 14.926244 7.582775 0.901130
v 14.927960 7.632735 0.902183
v 14.912539 7.591668 0.501535
v 14.914255 7.641628 0.502588
v 14.025439 8.092386 0.947596
v 14.025229 8.142353 0.949384
v 14.000432 8.106551 0.548702
v 14.000221 8.156519 0.550489
v 14.923637 8.098183 0.891493
v 14.923427 8.148150 0.893281
v 14.898630 8.112349 0.492598
v 14.898419 8.162316 0.494386
v 14.024453 8.627258 0.911444
v 14.026424 8.677187 0.909646
v 14.018347 8.613106 0.511812
v 14.020318 8.663034 0.510014
v 14.923615 8.591311 0.898978
v 14.925587 8.641239 0.897179
v 14.917509 8.577159 0.499346
v 14.919479 8.627088 0.497548
vn -0.9994 -0.0333 -0.0000
vn -0.0000 0.0036 -1.0000
vn 0.9994 0.0333 -0.0000
vn -0.0000 -0.0036 1.0000
vn -0.0000 1.0000 -0.0000
vn -0.0000 -0.0566 0.9984
vn -0.0000 0.0223 0.9998
vn -0.0000 0.0380 0.9993
vn 0.9981 -0.0609 -0.0000
vn 0.9973 0.0736 -0.0000
vn 0.9989 -0.0461 -0.0000
vn -0.0000 0.0566 -0.9984
vn -0.0000 -0.0223 -0.9998
vn -0.0000 -0.0380 -0.9993
vn -0.9981 0.0609 -0.0000
vn -0.9973 -0.0736 -0.0000
vn -0.9989 0.0461 -0.0000
vn 0.9994 -0.0333 -0.0000
vn -0.9994 0.0333 -0.0000
vn -0.9981 -0.0609 -0.0000
vn -0.9973 0.0736 -0.0000
vn -0.9989 -0.0461 -0.0000
vn 0.9981 0.0609 -0.0000
vn 0.9973 -0.0736 -0.0000
vn 0.9989 0.0461 -0.0000
vn -0.0000 0.0036 1.0000
vn -0.0000 -0.0036 -1.0000
vn -0.0000 -0.0566 -0.9984
vn -0.0000 0.0223 -0.9998
vn -0.0000 0.0380 -0.9993
vn -0.0000 0.0566 0.9984
vn -0.0000 -0.0223 0.9998
vn -0.0000 -0.0380 0.9993
vn -1.0000 -0.0000 -0.0000
vn -0.0000 -0.0000 -1.0000
vn 1.0000 -0.0000 -0.0000
vn -0.0000 -0.0000 1.0000
vn -0.0000 -1.0000 -0.0000
vn -0.9988 0.0336 0.0350
vn -0.0343 0.0222 -0.9992
vn 0.9988 -0.0336 -0.0350
vn 0.0343 -0.0222 0.9992
vn -0.0343 -0.9992 -0.0211
vn 0.0343 0.9992 0.0211
vn -0.9980 -0.0064 0.0623
vn -0.0625 0.0354 -0.9974
vn 0.9980 0.0064 -0.0623
vn 0.0625 -0.0354 0.9974
vn 0.0042 -0.9994 -0.0358
vn -0.0042 0.9994 0.0358
vn -0.9991 0.0399 0.0139
vn -0.0153 -0.0354 -0.9993
vn 0.9991 -0.0399 -0.0139
vn 0.0153 0.0354 0.9993
vn -0.0394 -0.9986 0.0360
vn 0.0394 0.9986 -0.0360
vt 0.059458 0.403100
vt 0.058624 0.537063
vt 0.030379 0.536905
vt 0.030138 0.403460
vt 0.001871 0.536037
vt 0.001269 0.403467
vt 0.117131 0.403931
vt 0.115655 0.536560
vt 0.086841 0.536343
vt 0.088346 0.403362
vt 0.389749 0.537758
vt 0.418483 0.537758
vt 0.418483 0.566493
vt 0.389749 0.566493
vt 0.088442 0.004697
vt 0.088810 0.137252
vt 0.060200 0.137359
vt 0.059854 0.002993
vt 0.087534 0.270045
vt 0.059265 0.270378
vt 0.117223 0.003047
vt 0.117322 0.136841
vt 0.116395 0.270912
vt 0.031792 0.001269
vt 0.030579 0.136841
vt 0.001269 0.136635
vt 0.003708 0.002600
vt 0.031670 0.271290
vt 0.003523 0.270904
vt 0.177533 0.403080
vt 0.206853 0.403461
vt 0.206516 0.536906
vt 0.178271 0.537043
vt 0.235722 0.403489
vt 0.235025 0.536059
vt 0.119859 0.403870
vt 0.148644 0.403322
vt 0.150054 0.536303
vt 0.121241 0.536500
vt 0.267184 0.568137
vt 0.238449 0.568137
vt 0.238449 0.539403
vt 0.267184 0.539403
vt 0.148833 0.004657
vt 0.177422 0.002973
vt 0.176980 0.137339
vt 0.148371 0.137211
vt 0.177821 0.270359
vt 0.149552 0.270005
vt 0.120053 0.002986
vt 0.119859 0.136780
vt 0.120690 0.270851
vt 0.205485 0.001269
vt 0.233569 0.002620
vt 0.235912 0.136657
vt 0.206602 0.136842
vt 0.233562 0.270924
vt 0.205415 0.271290
vt 0.267290 0.403940
vt 0.296349 0.404652
vt 0.295238 0.536855
vt 0.267144 0.536866
vt 0.324676 0.404991
vt 0.323568 0.536102
vt 0.352924 0.404701
vt 0.352027 0.536399
vt 0.238449 0.403946
vt 0.239055 0.535984
vt 0.447782 0.537758
vt 0.476517 0.537758
vt 0.476517 0.566493
vt 0.447782 0.566493
vt 0.240890 0.003968
vt 0.269500 0.002670
vt 0.267637 0.137940
vt 0.238449 0.137716
vt 0.268826 0.271567
vt 0.240610 0.271141
vt 0.325565 0.002879
vt 0.354588 0.004236
vt 0.355940 0.138003
vt 0.326897 0.137407
vt 0.353679 0.271810
vt 0.324727 0.272375
vt 0.297548 0.001269
vt 0.297569 0.137485
vt 0.296453 0.272610
vt 0.447438 0.401186
vt 0.447533 0.535221
vt 0.419205 0.535200
vt 0.418135 0.401890
vt 0.390637 0.534429
vt 0.389568 0.402222
vt 0.361941 0.534719
vt 0.361082 0.401922
vt 0.476517 0.401206
vt 0.475856 0.534342
vt 0.358477 0.566493
vt 0.358477 0.537758
vt 0.387212 0.537758
vt 0.387212 0.566493
vt 0.390351 0.002419
vt 0.390353 0.002446
vt 0.362478 0.004279
vt 0.362476 0.004245
vt 0.417832 0.001269
vt 0.417833 0.001296
vt 0.472787 0.003273
vt 0.476517 0.133003
vt 0.447730 0.133305
vt 0.445014 0.002322
vt 0.474388 0.267304
vt 0.445971 0.267731
vt 0.386993 0.132609
vt 0.358477 0.132952
vt 0.389584 0.268522
vt 0.360402 0.267909
vt 0.418274 0.132699
vt 0.418135 0.268773
vt 0.855079 0.374788
vt 0.869446 0.374788
vt 0.869446 0.489706
vt 0.855079 0.489706
vt 0.998731 0.374788
vt 0.984364 0.374788
vt 0.984364 0.116186
vt 0.998731 0.116186
vt 0.855079 0.001269
vt 0.869446 0.001269
vt 0.869446 0.116186
vt 0.855079 0.116186
vt 0.740161 0.374788
vt 0.740161 0.116186
vt 0.593972 0.374788
vt 0.608339 0.374788
vt 0.608339 0.489706
vt 0.593972 0.489706
vt 0.737624 0.374788
vt 0.723257 0.374788
vt 0.723257 0.116186
vt 0.737624 0.116186
vt 0.593972 0.001269
vt 0.608339 0.001269
vt 0.608339 0.116186
vt 0.593972 0.116186
vt 0.479054 0.374788
vt 0.479054 0.116186
vt 0.855079 0.865762
vt 0.869446 0.865762
vt 0.869446 0.980680
vt 0.855079 0.980680
vt 0.998731 0.865762
vt 0.984364 0.865762
vt 0.984364 0.607161
vt 0.998731 0.607161
vt 0.855079 0.492243
vt 0.869446 0.492243
vt 0.869446 0.607161
vt 0.855079 0.607161
vt 0.740161 0.865762
vt 0.740161 0.607161
vt 0.593972 0.865762
vt 0.608339 0.865762
vt 0.608339 0.980680
vt 0.593972 0.980680
vt 0.737624 0.865762
vt 0.723257 0.865762
vt 0.723257 0.607161
vt 0.737624 0.607161
vt 0.593972 0.492243
vt 0.608339 0.492243
vt 0.608339 0.607161
vt 0.593972 0.607161
vt 0.479054 0.865762
vt 0.479054 0.607161
s 0
f 15/1/1 2/2/1 4/3/1 16/4/1
f 16/4/2 4/3/2 8/5/2 19/6/2
f 19/7/3 8/8/3 6/9/3 22/10/3
f 22/10/4 6/9/4 2/2/4 15/1/4
f 8/11/5 4/12/5 2/13/5 6/14/5
f 12/15/6 24/16/6 13/17/6 9/18/6
f 24/16/7 23/19/7 14/20/7 13/17/7
f 23/19/8 22/10/8 15/1/8 14/20/8
f 11/21/9 21/22/9 24/16/9 12/15/9
f 21/22/10 20/23/10 23/19/10 24/16/10
f 20/23/11 19/7/11 22/10/11 23/19/11
f 10/24/12 18/25/12 21/26/12 11/27/12
f 18/25/13 17/28/13 20/29/13 21/26/13
f 17/28/14 16/4/14 19/6/14 20/29/14
f 9/18/15 13/17/15 18/25/15 10/24/15
f 13/17/16 14/20/16 17/28/16 18/25/16
f 14/20/17 15/1/17 16/4/17 17/28/17
f 39/30/18 40/31/18 28/32/18 26/33/18
f 40/31/2 43/34/2 32/35/2 28/32/2
f 43/36/19 46/37/19 30/38/19 32/39/19
f 46/37/4 39/30/4 26/33/4 30/38/4
f 32/40/5 30/41/5 26/42/5 28/43/5
f 36/44/6 33/45/6 37/46/6 48/47/6
f 48/47/7 37/46/7 38/48/7 47/49/7
f 47/49/8 38/48/8 39/30/8 46/37/8
f 35/50/20 36/44/20 48/47/20 45/51/20
f 45/51/21 48/47/21 47/49/21 44/52/21
f 44/52/22 47/49/22 46/37/22 43/36/22
f 34/53/12 35/54/12 45/55/12 42/56/12
f 42/56/13 45/55/13 44/57/13 41/58/13
f 41/58/14 44/57/14 43/34/14 40/31/14
f 33/45/23 34/53/23 42/56/23 37/46/23
f 37/46/24 42/56/24 41/58/24 38/48/24
f 38/48/25 41/58/25 40/31/25 39/30/25
f 63/59/1 64/60/1 52/61/1 50/62/1
f 64/60/26 67/63/26 56/64/26 52/61/26
f 67/63/3 70/65/3 54/66/3 56/64/3
f 70/67/27 63/59/27 50/62/27 54/68/27
f 56/69/5 54/70/5 50/71/5 52/72/5
f 60/73/28 57/74/28 61/75/28 72/76/28
f 72/76/29 61/75/29 62/77/29 71/78/29
f 71/78/30 62/77/30 63/59/30 70/67/30
f 59/79/9 60/80/9 72/81/9 69/82/9
f 69/82/10 72/81/10 71/83/10 68/84/10
f 68/84/11 71/83/11 70/65/11 67/63/11
f 58/85/31 59/79/31 69/82/31 66/86/31
f 66/86/32 69/82/32 68/84/32 65/87/32
f 65/87/33 68/84/33 67/63/33 64/60/33
f 57/74/15 58/85/15 66/86/15 61/75/15
f 61/75/16 66/86/16 65/87/16 62/77/16
f 62/77/17 65/87/17 64/60/17 63/59/17
f 87/88/18 74/89/18 76/90/18 88/91/18
f 88/91/26 76/90/26 80/92/26 91/93/26
f 91/93/19 80/92/19 78/94/19 94/95/19
f 94/96/27 78/97/27 74/89/27 87/88/27
f 80/98/5 76/99/5 74/100/5 78/101/5
f 79/102/5 83/103/5 84/104/5 77/105/5
f 75/106/5 82/107/5 83/103/5 79/102/5
f 84/108/28 96/109/28 85/110/28 81/111/28
f 96/109/29 95/112/29 86/113/29 85/110/29
f 95/112/30 94/96/30 87/88/30 86/113/30
f 83/103/20 93/114/20 96/115/20 84/104/20
f 93/114/21 92/116/21 95/117/21 96/115/21
f 92/116/22 91/93/22 94/95/22 95/117/22
f 82/107/31 90/118/31 93/114/31 83/103/31
f 90/118/32 89/119/32 92/116/32 93/114/32
f 89/119/33 88/91/33 91/93/33 92/116/33
f 81/111/23 85/110/23 90/118/23 82/107/23
f 85/110/24 86/113/24 89/119/24 90/118/24
f 86/113/25 87/88/25 88/91/25 89/119/25
f 97/120/34 98/121/34 100/122/34 99/123/34
f 99/124/35 100/125/35 104/126/35 103/127/35
f 103/128/36 104/129/36 102/130/36 101/131/36
f 101/131/37 102/130/37 98/121/37 97/120/37
f 99/132/38 103/133/38 101/131/38 97/120/38
f 104/126/5 100/125/5 98/121/5 102/130/5
f 105/134/39 106/135/39 108/136/39 107/137/39
f 107/138/40 108/139/40 112/140/40 111/141/40
f 111/142/41 112/143/41 110/144/41 109/145/41
f 109/145/42 110/144/42 106/135/42 105/134/42
f 107/146/43 111/147/43 109/145/43 105/134/43
f 112/140/44 108/139/44 106/135/44 110/144/44
f 113/148/45 114/149/45 116/150/45 115/151/45
f 115/152/46 116/153/46 120/154/46 119/155/46
f 119/156/47 120/157/47 118/158/47 117/159/47
f 117/159/48 118/158/48 114/149/48 113/148/48
f 115/160/49 119/161/49 117/159/49 113/148/49
f 120/154/50 116/153/50 114/149/50 118/158/50
f 121/162/51 122/163/51 124/164/51 123/165/51
f 123/166/52 124/167/52 128/168/52 127/169/52
f 127/170/53 128/171/53 126/172/53 125/173/53
f 125/173/54 126/172/54 122/163/54 121/162/54
f 123/174/55 127/175/55 125/173/55 121/162/55
f 128/168/56 124/167/56 122/163/56 126/172/56
l 3 1
l 10 3
l 7 3
l 11 7
l 5 7
l 12 5
l 1 5
l 1 9
l 27 25
l 34 27
l 31 27
l 35 31
l 29 31
l 36 29
l 25 29
l 25 33
l 51 49
l 58 51
l 55 51
l 59 55
l 53 55
l 60 53
l 49 53
l 49 57
l 75 73
l 73 77
l 73 81
